<svg width="381" height="218" viewBox="0 0 381 218" fill="none" xmlns="http://www.w3.org/2000/svg">
<g id="Group 18">
<g id="Rectangle 11" filter="url(#filter0_d_3_122)">
<rect width="381" height="217.884" rx="11.9062" fill="#222123"/>
</g>
<g id="Mask group">
<mask id="mask0_3_122" style="mask-type:alpha" maskUnits="userSpaceOnUse" x="0" y="0" width="381" height="218">
<rect id="Rectangle 15" width="381" height="217.884" rx="11.9062" fill="#222123"/>
</mask>
<g mask="url(#mask0_3_122)">
<g id="Rectangle 16" filter="url(#filter1_d_3_122)">
<rect x="276.82" y="-107.751" width="250.031" height="250.031" rx="17.8594" transform="rotate(30 276.82 -107.751)" fill="url(#paint0_linear_3_122)"/>
</g>
</g>
</g>
<path id="Gold" d="M304.074 35.5453H300.023C299.701 35.5453 299.445 35.4731 299.256 35.3286C299.079 35.173 298.99 34.9619 298.99 34.6952C298.99 34.4396 299.079 34.2396 299.256 34.0951C299.445 33.9395 299.701 33.8618 300.023 33.8618H305.491C305.846 33.8395 306.118 33.9173 306.307 34.0951C306.496 34.2618 306.585 34.5118 306.574 34.8452V35.0452C306.574 36.0898 306.541 36.8399 306.474 37.2955C306.407 37.7511 306.268 38.1678 306.057 38.5457C305.746 39.1235 305.168 39.518 304.324 39.7292C303.835 39.8514 302.207 39.9125 299.44 39.9125C296.662 39.9125 294.961 39.7903 294.339 39.5458C293.806 39.3458 293.389 39.0735 293.089 38.729C292.8 38.3734 292.6 37.9011 292.489 37.3122C292.367 36.7343 292.306 35.7509 292.306 34.3618C292.306 32.895 292.367 31.8504 292.489 31.2281C292.611 30.6058 292.85 30.1002 293.206 29.7112C293.672 29.2112 294.339 28.9056 295.206 28.7945C296.028 28.6611 297.867 28.5944 300.723 28.5944C302.346 28.5944 303.507 28.6667 304.207 28.8111C304.918 28.9556 305.452 29.2334 305.807 29.6446C306.23 30.1224 306.441 30.6836 306.441 31.3281C306.441 31.617 306.352 31.8448 306.174 32.0115C306.007 32.1782 305.774 32.2616 305.474 32.2616H304.974C304.418 32.2727 304.068 32.0226 303.924 31.5115C303.835 31.2559 303.668 31.0614 303.424 30.9281C303.179 30.8058 302.868 30.728 302.49 30.6947C302.123 30.6502 301.446 30.628 300.457 30.628C298.423 30.628 297.117 30.6614 296.539 30.728C295.962 30.7947 295.567 30.9558 295.356 31.2114C295.045 31.5559 294.889 32.506 294.889 34.0618C294.889 35.1619 294.928 35.9453 295.006 36.4121C295.095 36.8677 295.256 37.1955 295.489 37.3955C295.734 37.6178 296.106 37.7622 296.606 37.8289C297.117 37.8845 298.129 37.9123 299.64 37.9123C301.151 37.9123 302.123 37.8845 302.557 37.8289C302.99 37.7734 303.324 37.6344 303.557 37.4122C303.913 37.0677 304.09 36.5176 304.09 35.762C304.09 35.6842 304.085 35.612 304.074 35.5453ZM318.892 28.5778C320.359 28.5778 321.442 28.6555 322.142 28.8111C322.842 28.9667 323.387 29.2556 323.776 29.6779C324.22 30.178 324.493 30.9614 324.593 32.0282C324.637 32.4838 324.659 33.2672 324.659 34.3785C324.659 35.7675 324.576 36.7899 324.409 37.4455C324.254 38.0901 323.965 38.6012 323.542 38.9791C322.976 39.4791 322.076 39.768 320.842 39.8458C320.231 39.9014 318.636 39.9292 316.058 39.9292C314.691 39.9292 313.669 39.8847 312.991 39.7958C312.324 39.7069 311.769 39.5458 311.324 39.3124C310.757 39.0013 310.363 38.5123 310.141 37.8456C309.93 37.1677 309.824 36.0898 309.824 34.6118C309.824 32.9339 309.874 31.8282 309.974 31.2948C310.241 29.8168 311.219 28.9667 312.908 28.7444C313.752 28.6333 315.747 28.5778 318.892 28.5778ZM317.308 30.678C316.719 30.678 316.28 30.678 315.991 30.678C315.703 30.678 315.358 30.6947 314.958 30.728C314.558 30.7503 314.275 30.7669 314.108 30.778C313.952 30.7891 313.752 30.8392 313.508 30.9281C313.274 31.017 313.124 31.0892 313.058 31.1447C312.991 31.1892 312.897 31.3003 312.774 31.4781C312.652 31.6559 312.585 31.8059 312.574 31.9282C312.563 32.0393 312.535 32.2449 312.491 32.5449C312.458 32.845 312.441 33.1005 312.441 33.3117C312.441 33.5117 312.441 33.834 312.441 34.2785C312.441 34.7785 312.441 35.1619 312.441 35.4286C312.441 35.6953 312.469 35.9842 312.524 36.2954C312.591 36.5954 312.647 36.8066 312.691 36.9288C312.747 37.051 312.863 37.1899 313.041 37.3455C313.23 37.49 313.402 37.5844 313.558 37.6289C313.725 37.6622 313.997 37.7067 314.375 37.7622C314.752 37.8067 315.102 37.8289 315.425 37.8289C315.758 37.8289 316.241 37.8289 316.875 37.8289C318.464 37.8289 319.52 37.8067 320.042 37.7622C320.575 37.7178 320.992 37.6122 321.292 37.4455C321.603 37.2788 321.814 36.9733 321.926 36.5288C322.037 36.0843 322.092 35.3064 322.092 34.1951C322.092 33.7617 322.092 33.445 322.092 33.245C322.092 33.0339 322.076 32.7838 322.042 32.4949C322.009 32.206 321.981 32.006 321.959 31.8948C321.948 31.7837 321.881 31.6393 321.759 31.4615C321.648 31.2837 321.559 31.1725 321.492 31.1281C321.425 31.0725 321.27 31.0003 321.025 30.9114C320.792 30.8225 320.598 30.778 320.442 30.778C320.286 30.7669 320.009 30.7503 319.609 30.728C319.22 30.6947 318.881 30.678 318.592 30.678C318.314 30.678 317.886 30.678 317.308 30.678ZM330.779 37.7289H337.813C338.513 37.6956 338.874 38.0067 338.897 38.6624V38.879C338.874 39.5347 338.513 39.8458 337.813 39.8125H329.295C328.918 39.8236 328.64 39.7403 328.462 39.5625C328.284 39.3847 328.201 39.1069 328.212 38.729V29.7779C328.19 29.0556 328.529 28.6944 329.229 28.6944H329.762C330.462 28.6944 330.801 29.0556 330.779 29.7779V37.7289ZM341.547 38.729V29.7779C341.536 29.4001 341.619 29.1223 341.797 28.9445C341.975 28.7667 342.253 28.6833 342.63 28.6944H350.781C352.859 28.6944 354.271 29.1 355.015 29.9113C355.36 30.3002 355.604 30.8392 355.749 31.5281C355.893 32.206 355.965 33.1561 355.965 34.3785C355.965 35.6231 355.876 36.5843 355.699 37.2622C355.521 37.94 355.221 38.4734 354.799 38.8624C354.121 39.4958 352.871 39.8125 351.048 39.8125H342.63C342.253 39.8236 341.975 39.7403 341.797 39.5625C341.619 39.3847 341.536 39.1069 341.547 38.729ZM344.114 37.7789H350.481C351.348 37.7789 352.004 37.6567 352.448 37.4122C353.059 37.0788 353.365 36.1287 353.365 34.5618C353.365 33.7284 353.332 33.0839 353.265 32.6283C353.198 32.1727 353.048 31.8004 352.815 31.5115C352.593 31.2114 352.304 31.017 351.948 30.9281C351.604 30.8392 351.115 30.7947 350.481 30.7947H344.114V37.7789Z" fill="#222123"/>
<g id="Ricci_car 2" clip-path="url(#clip0_3_122)">
<g id="LOGO YO">
<path id="Vector" d="M134.869 26.1938C136.603 26.1938 137.883 26.2858 138.71 26.4696C139.537 26.6534 140.181 26.9949 140.64 27.4938C141.166 28.0848 141.487 29.0105 141.606 30.2711C141.658 30.8095 141.684 31.7353 141.684 33.0484C141.684 34.6898 141.586 35.8979 141.389 36.6726C141.205 37.4342 140.864 38.0383 140.365 38.4847C139.695 39.0757 138.631 39.4171 137.174 39.509C136.452 39.5746 134.567 39.6075 131.521 39.6075C129.906 39.6075 128.698 39.5549 127.897 39.4499C127.109 39.3448 126.452 39.1544 125.927 38.8787C125.257 38.511 124.791 37.9332 124.528 37.1453C124.279 36.3443 124.154 35.0706 124.154 33.3241C124.154 31.3413 124.213 30.0348 124.331 29.4044C124.647 27.658 125.802 26.6534 127.798 26.3908C128.796 26.2595 131.153 26.1938 134.869 26.1938ZM132.998 28.6757C132.302 28.6757 131.783 28.6757 131.442 28.6757C131.101 28.6757 130.693 28.6954 130.221 28.7348C129.748 28.761 129.413 28.7807 129.216 28.7938C129.032 28.807 128.796 28.8661 128.507 28.9711C128.231 29.0762 128.054 29.1615 127.975 29.2272C127.897 29.2797 127.785 29.411 127.64 29.6211C127.496 29.8312 127.417 30.0085 127.404 30.1529C127.391 30.2842 127.358 30.5272 127.306 30.8817C127.266 31.2363 127.247 31.5383 127.247 31.7878C127.247 32.0241 127.247 32.405 127.247 32.9302C127.247 33.5211 127.247 33.9741 127.247 34.2893C127.247 34.6044 127.279 34.9459 127.345 35.3135C127.424 35.6681 127.489 35.9176 127.542 36.062C127.608 36.2065 127.745 36.3706 127.956 36.5544C128.179 36.7251 128.382 36.8368 128.566 36.8893C128.763 36.9287 129.085 36.9812 129.531 37.0469C129.978 37.0994 130.391 37.1257 130.772 37.1257C131.166 37.1257 131.737 37.1257 132.486 37.1257C134.364 37.1257 135.611 37.0994 136.228 37.0469C136.859 36.9943 137.351 36.8696 137.706 36.6726C138.073 36.4757 138.323 36.1145 138.454 35.5893C138.585 35.064 138.651 34.1448 138.651 32.8317C138.651 32.3196 138.651 31.9454 138.651 31.709C138.651 31.4595 138.631 31.164 138.592 30.8226C138.553 30.4812 138.52 30.2449 138.493 30.1135C138.48 29.9822 138.402 29.8115 138.257 29.6014C138.126 29.3913 138.021 29.26 137.942 29.2075C137.863 29.1418 137.679 29.0565 137.39 28.9514C137.115 28.8464 136.885 28.7938 136.701 28.7938C136.517 28.7807 136.189 28.761 135.716 28.7348C135.257 28.6954 134.856 28.6757 134.515 28.6757C134.186 28.6757 133.681 28.6757 132.998 28.6757Z" fill="white"/>
<path id="Vector_2" d="M113.572 32.1227L117.866 27.2772C118.181 26.8833 118.476 26.6206 118.752 26.4893C119.028 26.358 119.415 26.3055 119.914 26.3318H121.175C121.635 26.3318 121.864 26.5222 121.864 26.903C121.864 27.008 121.786 27.159 121.628 27.356L115.069 34.5257V38.1893C115.095 39.0429 114.695 39.4696 113.867 39.4696H113.237C112.41 39.4696 112.009 39.0429 112.036 38.1893V34.5257L105.417 27.356C105.26 27.1853 105.181 27.0277 105.181 26.8833C105.181 26.5156 105.411 26.3318 105.87 26.3318H107.19C107.689 26.3055 108.076 26.358 108.352 26.4893C108.628 26.6206 108.923 26.8833 109.239 27.2772L113.572 32.1227Z" fill="white"/>
<path id="Vector_3" d="M90.5042 26.1938C92.2375 26.1938 93.5178 26.2858 94.3451 26.4696C95.1723 26.6534 95.8158 26.9949 96.2754 27.4938C96.8006 28.0848 97.1223 29.0105 97.2405 30.2711C97.2931 30.8095 97.3193 31.7353 97.3193 33.0484C97.3193 34.6898 97.2208 35.8979 97.0239 36.6726C96.84 37.4342 96.4986 38.0383 95.9996 38.4847C95.3299 39.0757 94.2663 39.4171 92.8087 39.509C92.0865 39.5746 90.2021 39.6075 87.1557 39.6075C85.5405 39.6075 84.3325 39.5549 83.5314 39.4499C82.7436 39.3448 82.087 39.1544 81.5618 38.8787C80.8921 38.511 80.4259 37.9332 80.1633 37.1453C79.9138 36.3443 79.789 35.0706 79.789 33.3241C79.789 31.3413 79.8481 30.0348 79.9663 29.4044C80.2815 27.658 81.437 26.6534 83.433 26.3908C84.4309 26.2595 86.788 26.1938 90.5042 26.1938ZM88.633 28.6757C87.937 28.6757 87.4183 28.6757 87.0769 28.6757C86.7355 28.6757 86.3284 28.6954 85.8557 28.7348C85.383 28.761 85.0481 28.7807 84.8511 28.7938C84.6673 28.807 84.4309 28.8661 84.1421 28.9711C83.8663 29.0762 83.689 29.1615 83.6102 29.2272C83.5314 29.2797 83.4198 29.411 83.2754 29.6211C83.1309 29.8312 83.0522 30.0085 83.039 30.1529C83.0259 30.2842 82.9931 30.5272 82.9405 30.8817C82.9012 31.2363 82.8815 31.5383 82.8815 31.7878C82.8815 32.0241 82.8815 32.405 82.8815 32.9302C82.8815 33.5211 82.8815 33.9741 82.8815 34.2893C82.8815 34.6044 82.9143 34.9459 82.9799 35.3135C83.0587 35.6681 83.1244 35.9176 83.1769 36.062C83.2426 36.2065 83.3804 36.3706 83.5905 36.5544C83.8138 36.7251 84.0173 36.8368 84.2011 36.8893C84.3981 36.9287 84.7198 36.9812 85.1663 37.0469C85.6128 37.0994 86.0264 37.1257 86.4072 37.1257C86.8011 37.1257 87.3724 37.1257 88.1208 37.1257C89.9986 37.1257 91.2461 37.0994 91.8633 37.0469C92.4936 36.9943 92.986 36.8696 93.3405 36.6726C93.7082 36.4757 93.9577 36.1145 94.089 35.5893C94.2203 35.064 94.286 34.1448 94.286 32.8317C94.286 32.3196 94.286 31.9454 94.286 31.709C94.286 31.4595 94.2663 31.164 94.2269 30.8226C94.1875 30.4812 94.1547 30.2449 94.1284 30.1135C94.1153 29.9822 94.0365 29.8115 93.892 29.6014C93.7607 29.3913 93.6557 29.26 93.5769 29.2075C93.4981 29.1418 93.3143 29.0565 93.0254 28.9514C92.7496 28.8464 92.5198 28.7938 92.336 28.7938C92.1521 28.7807 91.8239 28.761 91.3511 28.7348C90.8915 28.6954 90.491 28.6757 90.1496 28.6757C89.8213 28.6757 89.3158 28.6757 88.633 28.6757Z" fill="white"/>
<path id="Vector_4" d="M73.585 34.427H68.7986C68.4178 34.427 68.1158 34.3417 67.8926 34.1709C67.6825 33.9871 67.5774 33.7376 67.5774 33.4225C67.5774 33.1204 67.6825 32.8841 67.8926 32.7134C68.1158 32.5295 68.4178 32.4376 68.7986 32.4376H75.2592C75.6794 32.4114 76.0011 32.5033 76.2244 32.7134C76.4476 32.9103 76.5526 33.2058 76.5395 33.5997V33.8361C76.5395 35.0704 76.5001 35.9568 76.4213 36.4952C76.3425 37.0336 76.1784 37.526 75.9289 37.9725C75.5612 38.6553 74.8784 39.1214 73.8804 39.3709C73.3026 39.5154 71.3789 39.5876 68.1092 39.5876C64.8264 39.5876 62.8173 39.4432 62.082 39.1543C61.4517 38.9179 60.9592 38.5962 60.6047 38.1891C60.2633 37.7689 60.0269 37.2108 59.8956 36.5149C59.7511 35.8321 59.6789 34.6699 59.6789 33.0285C59.6789 31.2952 59.7511 30.0608 59.8956 29.3255C60.04 28.5901 60.3224 27.9927 60.7426 27.5331C61.2941 26.9422 62.082 26.5811 63.1062 26.4497C64.0779 26.2922 66.2511 26.2134 69.6259 26.2134C71.5431 26.2134 72.9153 26.2987 73.7425 26.4694C74.5829 26.6401 75.2133 26.9684 75.6335 27.4543C76.1324 28.0189 76.3819 28.6821 76.3819 29.4437C76.3819 29.7851 76.2769 30.0543 76.0668 30.2513C75.8698 30.4482 75.5941 30.5467 75.2395 30.5467H74.6486C73.992 30.5598 73.5784 30.2644 73.4077 29.6603C73.3026 29.3583 73.1057 29.1285 72.8168 28.971C72.5279 28.8265 72.1602 28.7346 71.7138 28.6952C71.2804 28.6427 70.4794 28.6164 69.3107 28.6164C66.9077 28.6164 65.3648 28.6558 64.6819 28.7346C63.9991 28.8134 63.533 29.0038 63.2835 29.3058C62.9158 29.7129 62.732 30.8356 62.732 32.674C62.732 33.974 62.7779 34.8997 62.8698 35.4512C62.9749 35.9896 63.1653 36.377 63.441 36.6134C63.7299 36.876 64.1698 37.0467 64.7607 37.1255C65.3648 37.1911 66.5597 37.224 68.3456 37.224C70.1314 37.224 71.2804 37.1911 71.7925 37.1255C72.3047 37.0598 72.6986 36.8957 72.9744 36.6331C73.3946 36.226 73.6047 35.576 73.6047 34.6831C73.6047 34.5911 73.5981 34.5058 73.585 34.427Z" fill="white"/>
<path id="Vector_5" d="M49.5915 26.1938C51.3248 26.1938 52.6051 26.2858 53.4324 26.4696C54.2597 26.6534 54.9031 26.9949 55.3627 27.4938C55.8879 28.0848 56.2097 29.0105 56.3278 30.2711C56.3804 30.8095 56.4066 31.7353 56.4066 33.0484C56.4066 34.6898 56.3081 35.8979 56.1112 36.6726C55.9273 37.4342 55.5859 38.0383 55.0869 38.4847C54.4172 39.0757 53.3536 39.4171 51.896 39.509C51.1738 39.5746 49.2895 39.6075 46.243 39.6075C44.6279 39.6075 43.4198 39.5549 42.6188 39.4499C41.8309 39.3448 41.1743 39.1544 40.6491 38.8787C39.9794 38.511 39.5132 37.9332 39.2506 37.1453C39.0011 36.3443 38.8763 35.0706 38.8763 33.3241C38.8763 31.3413 38.9354 30.0348 39.0536 29.4044C39.3688 27.658 40.5243 26.6534 42.5203 26.3908C43.5183 26.2595 45.8753 26.1938 49.5915 26.1938ZM47.7203 28.6757C47.0243 28.6757 46.5056 28.6757 46.1642 28.6757C45.8228 28.6757 45.4157 28.6954 44.943 28.7348C44.4703 28.761 44.1354 28.7807 43.9385 28.7938C43.7546 28.807 43.5183 28.8661 43.2294 28.9711C42.9536 29.0762 42.7763 29.1615 42.6976 29.2272C42.6188 29.2797 42.5071 29.411 42.3627 29.6211C42.2183 29.8312 42.1395 30.0085 42.1263 30.1529C42.1132 30.2842 42.0804 30.5272 42.0279 30.8817C41.9885 31.2363 41.9688 31.5383 41.9688 31.7878C41.9688 32.0241 41.9688 32.405 41.9688 32.9302C41.9688 33.5211 41.9688 33.9741 41.9688 34.2893C41.9688 34.6044 42.0016 34.9459 42.0672 35.3135C42.146 35.6681 42.2117 35.9176 42.2642 36.062C42.3299 36.2065 42.4678 36.3706 42.6779 36.5544C42.9011 36.7251 43.1046 36.8368 43.2885 36.8893C43.4854 36.9287 43.8071 36.9812 44.2536 37.0469C44.7001 37.0994 45.1137 37.1257 45.4945 37.1257C45.8885 37.1257 46.4597 37.1257 47.2082 37.1257C49.0859 37.1257 50.3334 37.0994 50.9506 37.0469C51.5809 36.9943 52.0733 36.8696 52.4278 36.6726C52.7955 36.4757 53.045 36.1145 53.1763 35.5893C53.3076 35.064 53.3733 34.1448 53.3733 32.8317C53.3733 32.3196 53.3733 31.9454 53.3733 31.709C53.3733 31.4595 53.3536 31.164 53.3142 30.8226C53.2748 30.4812 53.242 30.2449 53.2157 30.1135C53.2026 29.9822 53.1238 29.8115 52.9794 29.6014C52.848 29.3913 52.743 29.26 52.6642 29.2075C52.5854 29.1418 52.4016 29.0565 52.1127 28.9514C51.8369 28.8464 51.6071 28.7938 51.4233 28.7938C51.2395 28.7807 50.9112 28.761 50.4384 28.7348C49.9789 28.6954 49.5783 28.6757 49.2369 28.6757C48.9087 28.6757 48.4031 28.6757 47.7203 28.6757Z" fill="white"/>
<path id="Vector_6" d="M26.847 37.0073H35.1592C35.9864 36.9679 36.4132 37.3356 36.4395 38.1103V38.3664C36.4132 39.1411 35.9864 39.5088 35.1592 39.4694H25.094C24.6475 39.4825 24.3193 39.3841 24.1092 39.174C23.8991 38.9639 23.8006 38.6356 23.8137 38.1891V27.6118C23.7874 26.7583 24.188 26.3315 25.0152 26.3315H25.6455C26.4728 26.3315 26.8733 26.7583 26.847 27.6118V37.0073Z" fill="white"/>
</g>
</g>
<path id="Anastasiya Zaytseva" d="M32.385 194.594H26.7057L26.158 195.57C26.0469 195.8 25.9159 195.963 25.7651 196.058C25.6143 196.146 25.4119 196.181 25.1579 196.166H24.5983C24.2491 196.166 24.0744 196.023 24.0744 195.737C24.0744 195.658 24.1102 195.562 24.1816 195.451L27.9797 188.807C28.0988 188.577 28.2337 188.422 28.3845 188.343C28.5353 188.256 28.7377 188.216 28.9917 188.224H30.1228C30.3768 188.216 30.5792 188.256 30.73 188.343C30.8808 188.422 31.0158 188.577 31.1348 188.807L34.8734 195.439C34.9448 195.574 34.9806 195.673 34.9806 195.737C34.9806 195.872 34.9329 195.979 34.8377 196.058C34.7424 196.13 34.6154 196.166 34.4567 196.166H33.9328C33.6868 196.173 33.4883 196.138 33.3375 196.058C33.1867 195.971 33.0557 195.812 32.9446 195.582L32.385 194.594ZM31.6944 193.308L29.5394 189.51L27.4082 193.308H31.6944ZM45.7079 194.832L45.6722 188.998C45.6484 188.482 45.8865 188.224 46.3866 188.224H46.708C47.2081 188.224 47.4462 188.482 47.4224 188.998V195.392C47.4303 195.661 47.3708 195.86 47.2438 195.987C47.1168 196.114 46.9184 196.173 46.6485 196.166H45.3269C45.0173 196.173 44.7753 196.142 44.6006 196.07C44.4339 195.991 44.2514 195.832 44.0529 195.594L38.6356 189.593L38.6713 195.392C38.6951 195.908 38.457 196.166 37.9569 196.166H37.6117C37.1195 196.166 36.8814 195.908 36.8973 195.392V188.998C36.8893 188.728 36.9489 188.53 37.0759 188.403C37.2029 188.276 37.4013 188.216 37.6712 188.224H38.969C39.2785 188.216 39.5167 188.252 39.6833 188.331C39.858 188.403 40.0485 188.557 40.2548 188.796L45.7079 194.832ZM57.83 194.594H52.1507L51.603 195.57C51.4919 195.8 51.3609 195.963 51.2101 196.058C51.0593 196.146 50.8569 196.181 50.6029 196.166H50.0433C49.694 196.166 49.5194 196.023 49.5194 195.737C49.5194 195.658 49.5551 195.562 49.6266 195.451L53.4246 188.807C53.5437 188.577 53.6786 188.422 53.8295 188.343C53.9803 188.256 54.1827 188.216 54.4367 188.224H55.5678C55.8218 188.216 56.0242 188.256 56.175 188.343C56.3258 188.422 56.4607 188.577 56.5798 188.807L60.3184 195.439C60.3898 195.574 60.4255 195.673 60.4255 195.737C60.4255 195.872 60.3779 195.979 60.2826 196.058C60.1874 196.13 60.0604 196.166 59.9016 196.166H59.3778C59.1317 196.173 58.9333 196.138 58.7825 196.058C58.6316 195.971 58.5007 195.812 58.3896 195.582L57.83 194.594ZM57.1394 193.308L54.9844 189.51L52.8531 193.308H57.1394ZM63.0295 193.665H63.3866C63.7994 193.641 64.0455 193.824 64.1248 194.213C64.1725 194.483 64.3431 194.665 64.6368 194.761C64.9384 194.848 65.506 194.892 66.3394 194.892C67.276 194.892 68.1412 194.844 68.935 194.749C69.3556 194.693 69.6295 194.59 69.7565 194.439C69.9152 194.257 69.9946 194.034 69.9946 193.772C69.9946 193.534 69.9351 193.352 69.816 193.225C69.7049 193.098 69.5144 193.006 69.2445 192.951C69.0143 192.903 68.1769 192.875 66.7323 192.867H65.5893C64.7559 192.867 64.1407 192.832 63.7438 192.76C63.347 192.681 63.0374 192.538 62.8151 192.332C62.4421 191.99 62.2555 191.478 62.2555 190.796C62.2555 189.843 62.454 189.192 62.8509 188.843C63.1207 188.597 63.589 188.422 64.2558 188.319C64.9225 188.208 65.9147 188.153 67.2324 188.153C68.2722 188.153 69.0342 188.184 69.5184 188.248C70.0105 188.303 70.4232 188.419 70.7566 188.593C71.2487 188.855 71.4948 189.3 71.4948 189.927C71.4948 190.133 71.4313 190.296 71.3043 190.415C71.1852 190.534 71.0146 190.593 70.7923 190.593H70.459C70.2446 190.585 70.0899 190.55 69.9946 190.486C69.9073 190.415 69.7843 190.248 69.6255 189.986C69.5144 189.788 69.2406 189.661 68.804 189.605C68.2881 189.542 67.8237 189.51 67.411 189.51C65.8393 189.51 64.871 189.601 64.5058 189.784C64.2201 189.927 64.0772 190.189 64.0772 190.57C64.0772 190.903 64.1883 191.133 64.4106 191.26C64.6487 191.395 65.3075 191.463 66.387 191.463H67.7324C68.9231 191.463 69.7605 191.506 70.2446 191.594C70.7288 191.681 71.094 191.859 71.34 192.129C71.6655 192.463 71.8282 193.014 71.8282 193.784C71.8282 194.618 71.6377 195.213 71.2567 195.57C71.0027 195.824 70.5661 195.999 69.947 196.094C69.3358 196.189 68.3714 196.237 67.0538 196.237C65.5139 196.237 64.4582 196.189 63.8867 196.094C63.3152 195.991 62.9025 195.788 62.6485 195.487C62.4262 195.217 62.3151 194.856 62.3151 194.403C62.3151 193.911 62.5532 193.665 63.0295 193.665ZM77.2703 189.712H74.3056C73.8055 189.736 73.5476 189.514 73.5317 189.046V188.891C73.5476 188.422 73.8055 188.2 74.3056 188.224H82.0566C82.5566 188.2 82.8146 188.422 82.8305 188.891V189.046C82.8146 189.514 82.5566 189.736 82.0566 189.712H79.1038V195.392C79.1197 195.908 78.8736 196.166 78.3656 196.166H77.9965C77.4885 196.166 77.2464 195.908 77.2703 195.392V189.712ZM91.0093 194.594H85.33L84.7824 195.57C84.6712 195.8 84.5403 195.963 84.3895 196.058C84.2386 196.146 84.0362 196.181 83.7822 196.166H83.2226C82.8734 196.166 82.6988 196.023 82.6988 195.737C82.6988 195.658 82.7345 195.562 82.8059 195.451L86.604 188.807C86.7231 188.577 86.858 188.422 87.0088 188.343C87.1596 188.256 87.362 188.216 87.616 188.224H88.7471C89.0011 188.216 89.2035 188.256 89.3544 188.343C89.5052 188.422 89.6401 188.577 89.7592 188.807L93.4977 195.439C93.5692 195.574 93.6049 195.673 93.6049 195.737C93.6049 195.872 93.5573 195.979 93.462 196.058C93.3668 196.13 93.2398 196.166 93.081 196.166H92.5571C92.3111 196.173 92.1126 196.138 91.9618 196.058C91.811 195.971 91.68 195.812 91.5689 195.582L91.0093 194.594ZM90.3188 193.308L88.1637 189.51L86.0325 193.308H90.3188ZM96.2088 193.665H96.566C96.9788 193.641 97.2248 193.824 97.3042 194.213C97.3518 194.483 97.5225 194.665 97.8162 194.761C98.1178 194.848 98.6853 194.892 99.5188 194.892C100.455 194.892 101.321 194.844 102.114 194.749C102.535 194.693 102.809 194.59 102.936 194.439C103.095 194.257 103.174 194.034 103.174 193.772C103.174 193.534 103.114 193.352 102.995 193.225C102.884 193.098 102.694 193.006 102.424 192.951C102.194 192.903 101.356 192.875 99.9117 192.867H98.7687C97.9352 192.867 97.3201 192.832 96.9232 192.76C96.5263 192.681 96.2168 192.538 95.9945 192.332C95.6215 191.99 95.4349 191.478 95.4349 190.796C95.4349 189.843 95.6334 189.192 96.0302 188.843C96.3001 188.597 96.7684 188.422 97.4352 188.319C98.1019 188.208 99.0941 188.153 100.412 188.153C101.452 188.153 102.214 188.184 102.698 188.248C103.19 188.303 103.603 188.419 103.936 188.593C104.428 188.855 104.674 189.3 104.674 189.927C104.674 190.133 104.611 190.296 104.484 190.415C104.365 190.534 104.194 190.593 103.972 190.593H103.638C103.424 190.585 103.269 190.55 103.174 190.486C103.087 190.415 102.964 190.248 102.805 189.986C102.694 189.788 102.42 189.661 101.983 189.605C101.467 189.542 101.003 189.51 100.59 189.51C99.0187 189.51 98.0503 189.601 97.6852 189.784C97.3995 189.927 97.2566 190.189 97.2566 190.57C97.2566 190.903 97.3677 191.133 97.59 191.26C97.8281 191.395 98.4869 191.463 99.5664 191.463H100.912C102.102 191.463 102.94 191.506 103.424 191.594C103.908 191.681 104.273 191.859 104.519 192.129C104.845 192.463 105.008 193.014 105.008 193.784C105.008 194.618 104.817 195.213 104.436 195.57C104.182 195.824 103.745 195.999 103.126 196.094C102.515 196.189 101.551 196.237 100.233 196.237C98.6933 196.237 97.6376 196.189 97.0661 196.094C96.4946 195.991 96.0818 195.788 95.8278 195.487C95.6056 195.217 95.4945 194.856 95.4945 194.403C95.4945 193.911 95.7326 193.665 96.2088 193.665ZM107.488 195.392V188.998C107.472 188.482 107.715 188.224 108.215 188.224H108.596C109.096 188.224 109.338 188.482 109.322 188.998V195.392C109.338 195.908 109.096 196.166 108.596 196.166H108.215C107.715 196.166 107.472 195.908 107.488 195.392ZM116.582 191.724L119.178 188.796C119.368 188.557 119.547 188.399 119.714 188.319C119.88 188.24 120.114 188.208 120.416 188.224H121.178C121.456 188.224 121.595 188.339 121.595 188.569C121.595 188.633 121.547 188.724 121.452 188.843L117.487 193.177V195.392C117.503 195.908 117.261 196.166 116.761 196.166H116.38C115.88 196.166 115.638 195.908 115.654 195.392V193.177L111.653 188.843C111.558 188.74 111.51 188.645 111.51 188.557C111.51 188.335 111.649 188.224 111.927 188.224H112.725C113.026 188.208 113.26 188.24 113.427 188.319C113.594 188.399 113.772 188.557 113.963 188.796L116.582 191.724ZM129.737 194.594H124.058L123.51 195.57C123.399 195.8 123.268 195.963 123.117 196.058C122.967 196.146 122.764 196.181 122.51 196.166H121.951C121.601 196.166 121.427 196.023 121.427 195.737C121.427 195.658 121.462 195.562 121.534 195.451L125.332 188.807C125.451 188.577 125.586 188.422 125.737 188.343C125.888 188.256 126.09 188.216 126.344 188.224H127.475C127.729 188.216 127.931 188.256 128.082 188.343C128.233 188.422 128.368 188.577 128.487 188.807L132.226 195.439C132.297 195.574 132.333 195.673 132.333 195.737C132.333 195.872 132.285 195.979 132.19 196.058C132.095 196.13 131.968 196.166 131.809 196.166H131.285C131.039 196.173 130.841 196.138 130.69 196.058C130.539 195.971 130.408 195.812 130.297 195.582L129.737 194.594ZM129.047 193.308L126.892 189.51L124.76 193.308H129.047ZM144.025 189.617H138.286C137.786 189.641 137.528 189.423 137.512 188.962V188.879C137.528 188.419 137.786 188.2 138.286 188.224H145.858C146.358 188.2 146.616 188.419 146.632 188.879V189.069C146.632 189.292 146.588 189.478 146.501 189.629C146.422 189.772 146.275 189.915 146.06 190.058L139.845 194.772H145.965C146.465 194.749 146.723 194.967 146.739 195.427V195.511C146.723 195.971 146.465 196.189 145.965 196.166H138.059C137.559 196.189 137.301 195.971 137.286 195.511V195.32C137.286 195.098 137.325 194.915 137.405 194.772C137.492 194.622 137.643 194.471 137.857 194.32L144.025 189.617ZM156.905 194.594H151.226L150.678 195.57C150.567 195.8 150.436 195.963 150.285 196.058C150.135 196.146 149.932 196.181 149.678 196.166H149.119C148.769 196.166 148.595 196.023 148.595 195.737C148.595 195.658 148.63 195.562 148.702 195.451L152.5 188.807C152.619 188.577 152.754 188.422 152.905 188.343C153.056 188.256 153.258 188.216 153.512 188.224H154.643C154.897 188.216 155.1 188.256 155.25 188.343C155.401 188.422 155.536 188.577 155.655 188.807L159.394 195.439C159.465 195.574 159.501 195.673 159.501 195.737C159.501 195.872 159.453 195.979 159.358 196.058C159.263 196.13 159.136 196.166 158.977 196.166H158.453C158.207 196.173 158.009 196.138 157.858 196.058C157.707 195.971 157.576 195.812 157.465 195.582L156.905 194.594ZM156.215 193.308L154.06 189.51L151.928 193.308H156.215ZM164.44 191.724L167.035 188.796C167.226 188.557 167.404 188.399 167.571 188.319C167.738 188.24 167.972 188.208 168.274 188.224H169.036C169.313 188.224 169.452 188.339 169.452 188.569C169.452 188.633 169.405 188.724 169.309 188.843L165.345 193.177V195.392C165.361 195.908 165.118 196.166 164.618 196.166H164.237C163.737 196.166 163.495 195.908 163.511 195.392V193.177L159.511 188.843C159.415 188.74 159.368 188.645 159.368 188.557C159.368 188.335 159.507 188.224 159.784 188.224H160.582C160.884 188.208 161.118 188.24 161.285 188.319C161.451 188.399 161.63 188.557 161.82 188.796L164.44 191.724ZM174.915 189.712H171.951C171.451 189.736 171.193 189.514 171.177 189.046V188.891C171.193 188.422 171.451 188.2 171.951 188.224H179.702C180.202 188.2 180.46 188.422 180.476 188.891V189.046C180.46 189.514 180.202 189.736 179.702 189.712H176.749V195.392C176.765 195.908 176.519 196.166 176.011 196.166H175.642C175.134 196.166 174.892 195.908 174.915 195.392V189.712ZM183.062 193.665H183.419C183.832 193.641 184.078 193.824 184.157 194.213C184.205 194.483 184.375 194.665 184.669 194.761C184.971 194.848 185.538 194.892 186.372 194.892C187.308 194.892 188.173 194.844 188.967 194.749C189.388 194.693 189.662 194.59 189.789 194.439C189.947 194.257 190.027 194.034 190.027 193.772C190.027 193.534 189.967 193.352 189.848 193.225C189.737 193.098 189.547 193.006 189.277 192.951C189.047 192.903 188.209 192.875 186.765 192.867H185.622C184.788 192.867 184.173 192.832 183.776 192.76C183.379 192.681 183.07 192.538 182.847 192.332C182.474 191.99 182.288 191.478 182.288 190.796C182.288 189.843 182.486 189.192 182.883 188.843C183.153 188.597 183.621 188.422 184.288 188.319C184.955 188.208 185.947 188.153 187.265 188.153C188.304 188.153 189.066 188.184 189.551 188.248C190.043 188.303 190.455 188.419 190.789 188.593C191.281 188.855 191.527 189.3 191.527 189.927C191.527 190.133 191.464 190.296 191.337 190.415C191.217 190.534 191.047 190.593 190.825 190.593H190.491C190.277 190.585 190.122 190.55 190.027 190.486C189.94 190.415 189.816 190.248 189.658 189.986C189.547 189.788 189.273 189.661 188.836 189.605C188.32 189.542 187.856 189.51 187.443 189.51C185.872 189.51 184.903 189.601 184.538 189.784C184.252 189.927 184.109 190.189 184.109 190.57C184.109 190.903 184.221 191.133 184.443 191.26C184.681 191.395 185.34 191.463 186.419 191.463H187.765C188.955 191.463 189.793 191.506 190.277 191.594C190.761 191.681 191.126 191.859 191.372 192.129C191.698 192.463 191.86 193.014 191.86 193.784C191.86 194.618 191.67 195.213 191.289 195.57C191.035 195.824 190.598 195.999 189.979 196.094C189.368 196.189 188.404 196.237 187.086 196.237C185.546 196.237 184.49 196.189 183.919 196.094C183.347 195.991 182.935 195.788 182.681 195.487C182.458 195.217 182.347 194.856 182.347 194.403C182.347 193.911 182.585 193.665 183.062 193.665ZM196.151 189.617V191.498H201.794C202.302 191.498 202.556 191.705 202.556 192.117C202.556 192.538 202.302 192.748 201.794 192.748H196.151V194.772H202.08C202.58 194.749 202.838 194.967 202.854 195.427V195.511C202.838 195.971 202.58 196.189 202.08 196.166H195.115C194.845 196.173 194.647 196.114 194.52 195.987C194.393 195.86 194.333 195.661 194.341 195.392V188.998C194.333 188.728 194.393 188.53 194.52 188.403C194.647 188.276 194.845 188.216 195.115 188.224H202.009C202.509 188.2 202.767 188.419 202.783 188.879V188.962C202.767 189.423 202.509 189.641 202.009 189.617H196.151ZM209.981 194.713L213.184 188.819C213.287 188.589 213.414 188.43 213.565 188.343C213.716 188.248 213.918 188.208 214.172 188.224H214.72C215.077 188.224 215.256 188.367 215.256 188.653C215.256 188.732 215.22 188.831 215.149 188.95L211.481 195.582C211.37 195.812 211.239 195.971 211.089 196.058C210.938 196.138 210.735 196.173 210.481 196.166H209.457C209.203 196.181 209.001 196.146 208.85 196.058C208.699 195.963 208.568 195.8 208.457 195.57L204.873 188.95C204.81 188.823 204.778 188.724 204.778 188.653C204.778 188.518 204.826 188.415 204.921 188.343C205.016 188.264 205.147 188.224 205.314 188.224H205.85C206.104 188.208 206.302 188.248 206.445 188.343C206.596 188.43 206.723 188.589 206.826 188.819L209.981 194.713ZM223.531 194.594H217.852L217.305 195.57C217.193 195.8 217.062 195.963 216.912 196.058C216.761 196.146 216.558 196.181 216.304 196.166H215.745C215.396 196.166 215.221 196.023 215.221 195.737C215.221 195.658 215.257 195.562 215.328 195.451L219.126 188.807C219.245 188.577 219.38 188.422 219.531 188.343C219.682 188.256 219.884 188.216 220.138 188.224H221.269C221.523 188.216 221.726 188.256 221.877 188.343C222.027 188.422 222.162 188.577 222.281 188.807L226.02 195.439C226.091 195.574 226.127 195.673 226.127 195.737C226.127 195.872 226.079 195.979 225.984 196.058C225.889 196.13 225.762 196.166 225.603 196.166H225.079C224.833 196.173 224.635 196.138 224.484 196.058C224.333 195.971 224.202 195.812 224.091 195.582L223.531 194.594ZM222.841 193.308L220.686 189.51L218.555 193.308H222.841Z" fill="white"/>
</g>
<defs>
<filter id="filter0_d_3_122" x="-23.8125" y="-17.8594" width="428.625" height="265.509" filterUnits="userSpaceOnUse" color-interpolation-filters="sRGB">
<feFlood flood-opacity="0" result="BackgroundImageFix"/>
<feColorMatrix in="SourceAlpha" type="matrix" values="0 0 0 0 0 0 0 0 0 0 0 0 0 0 0 0 0 0 127 0" result="hardAlpha"/>
<feOffset dy="5.95312"/>
<feGaussianBlur stdDeviation="11.9062"/>
<feComposite in2="hardAlpha" operator="out"/>
<feColorMatrix type="matrix" values="0 0 0 0 0 0 0 0 0 0 0 0 0 0 0 0 0 0 0.3 0"/>
<feBlend mode="normal" in2="BackgroundImageFix" result="effect1_dropShadow_3_122"/>
<feBlend mode="normal" in="SourceGraphic" in2="effect1_dropShadow_3_122" result="shape"/>
</filter>
<filter id="filter1_d_3_122" x="128.573" y="-130.983" width="388.012" height="388.012" filterUnits="userSpaceOnUse" color-interpolation-filters="sRGB">
<feFlood flood-opacity="0" result="BackgroundImageFix"/>
<feColorMatrix in="SourceAlpha" type="matrix" values="0 0 0 0 0 0 0 0 0 0 0 0 0 0 0 0 0 0 127 0" result="hardAlpha"/>
<feOffset/>
<feGaussianBlur stdDeviation="14.8828"/>
<feComposite in2="hardAlpha" operator="out"/>
<feColorMatrix type="matrix" values="0 0 0 0 0 0 0 0 0 0 0 0 0 0 0 0 0 0 0.3 0"/>
<feBlend mode="normal" in2="BackgroundImageFix" result="effect1_dropShadow_3_122"/>
<feBlend mode="normal" in="SourceGraphic" in2="effect1_dropShadow_3_122" result="shape"/>
</filter>
<linearGradient id="paint0_linear_3_122" x1="401.836" y1="-107.751" x2="401.836" y2="142.28" gradientUnits="userSpaceOnUse">
<stop offset="0.4803" stop-color="#FFBF00"/>
<stop offset="0.851362" stop-color="#FFC928"/>
</linearGradient>
<clipPath id="clip0_3_122">
<rect width="125.016" height="18.4547" fill="white" transform="translate(23.8125 23.8125)"/>
</clipPath>
</defs>
</svg>
