<svg width="417" height="239" viewBox="0 0 417 239" fill="none" xmlns="http://www.w3.org/2000/svg">
<g id="Group 2">
<g id="Rectangle 10" filter="url(#filter0_d_3_114)">
<rect width="417" height="238.472" rx="13.0312" fill="#222123"/>
</g>
<g id="Mask group">
<mask id="mask0_3_114" style="mask-type:alpha" maskUnits="userSpaceOnUse" x="0" y="0" width="417" height="239">
<rect id="Rectangle 15" width="417" height="238.472" rx="13.0312" fill="#222123"/>
</mask>
<g mask="url(#mask0_3_114)">
<g id="Rectangle 16" filter="url(#filter1_d_3_114)">
<rect x="302.977" y="-117.933" width="273.656" height="273.656" rx="19.5469" transform="rotate(30 302.977 -117.933)" fill="url(#paint0_linear_3_114)"/>
</g>
</g>
</g>
<path id="Efrosin Tarasov" d="M29.2161 207.211V209.27H35.3929C35.9489 209.27 36.2269 209.496 36.2269 209.948C36.2269 210.408 35.9489 210.638 35.3929 210.638H29.2161V212.854H35.7056C36.253 212.827 36.5353 213.066 36.5527 213.57V213.661C36.5353 214.165 36.253 214.404 35.7056 214.378H28.0824C27.787 214.387 27.5698 214.322 27.4308 214.183C27.2918 214.044 27.2266 213.827 27.2353 213.531V206.533C27.2266 206.238 27.2918 206.021 27.4308 205.882C27.5698 205.743 27.787 205.678 28.0824 205.686H35.6275C36.1748 205.66 36.4571 205.899 36.4745 206.403V206.494C36.4571 206.998 36.1748 207.237 35.6275 207.211H29.2161ZM41.1303 207.211V209.452H46.7989C47.3462 209.426 47.6286 209.665 47.6459 210.169V210.247C47.6286 210.751 47.3462 210.99 46.7989 210.964H41.1303V213.531C41.1477 214.096 40.8827 214.378 40.3354 214.378H39.9314C39.3841 214.378 39.1191 214.096 39.1365 213.531V206.533C39.1278 206.238 39.193 206.021 39.332 205.882C39.471 205.743 39.6882 205.678 39.9836 205.686H47.1377C47.685 205.66 47.9717 205.899 47.9978 206.403V206.494C47.9717 206.998 47.685 207.237 47.1377 207.211H41.1303ZM51.2485 205.686H57.7641C58.5199 205.686 59.0976 205.738 59.4972 205.843C59.8969 205.947 60.214 206.125 60.4485 206.377C60.8221 206.785 61.0089 207.48 61.0089 208.462C61.0089 209.357 60.8829 209.961 60.631 210.273C60.3964 210.569 60.0315 210.76 59.5363 210.847C60.0836 210.89 60.4442 211.029 60.6179 211.264C60.7917 211.498 60.8742 211.963 60.8655 212.658V213.531C60.8829 214.096 60.6179 214.378 60.0706 214.378H59.6406C59.0933 214.378 58.8283 214.096 58.8457 213.531V213.075C58.837 212.484 58.7284 212.102 58.5199 211.928C58.3201 211.746 57.8901 211.659 57.2298 211.668H52.3952V213.531C52.4126 214.096 52.1476 214.378 51.6003 214.378H51.1963C50.649 214.378 50.3841 214.096 50.4014 213.531V206.533C50.3927 206.238 50.4579 206.021 50.5969 205.882C50.7359 205.743 50.9531 205.678 51.2485 205.686ZM52.3952 210.065H57.1646C57.8944 210.065 58.3809 209.978 58.6241 209.804C58.8674 209.63 58.989 209.283 58.989 208.762C58.989 208.162 58.8761 207.771 58.6502 207.589C58.4243 207.406 57.9422 207.315 57.2037 207.315H52.3952V210.065ZM70.6845 205.595C71.8312 205.595 72.6783 205.656 73.2256 205.778C73.7729 205.899 74.1986 206.125 74.5026 206.455C74.8501 206.846 75.063 207.459 75.1412 208.293C75.1759 208.649 75.1933 209.261 75.1933 210.13C75.1933 211.216 75.1281 212.015 74.9978 212.528C74.8762 213.032 74.6503 213.431 74.3202 213.727C73.8771 214.118 73.1734 214.343 72.2091 214.404C71.7313 214.448 70.4847 214.469 68.4692 214.469C67.4006 214.469 66.6013 214.435 66.0714 214.365C65.5502 214.296 65.1158 214.17 64.7683 213.987C64.3252 213.744 64.0168 213.362 63.8431 212.84C63.678 212.311 63.5955 211.468 63.5955 210.312C63.5955 209.001 63.6346 208.136 63.7128 207.719C63.9213 206.564 64.6858 205.899 66.0063 205.725C66.6665 205.639 68.2259 205.595 70.6845 205.595ZM69.4465 207.237C68.9861 207.237 68.6429 207.237 68.417 207.237C68.1912 207.237 67.9218 207.25 67.6091 207.276C67.2963 207.294 67.0748 207.307 66.9445 207.315C66.8229 207.324 66.6665 207.363 66.4754 207.433C66.2929 207.502 66.1757 207.558 66.1235 207.602C66.0714 207.637 65.9976 207.724 65.902 207.863C65.8064 208.002 65.7543 208.119 65.7456 208.214C65.7369 208.301 65.7152 208.462 65.6805 208.697C65.6544 208.931 65.6414 209.131 65.6414 209.296C65.6414 209.452 65.6414 209.704 65.6414 210.052C65.6414 210.443 65.6414 210.742 65.6414 210.951C65.6414 211.159 65.6631 211.385 65.7065 211.629C65.7587 211.863 65.8021 212.028 65.8368 212.124C65.8803 212.219 65.9715 212.328 66.1105 212.45C66.2582 212.562 66.3928 212.636 66.5145 212.671C66.6448 212.697 66.8576 212.732 67.153 212.775C67.4484 212.81 67.722 212.827 67.974 212.827C68.2346 212.827 68.6125 212.827 69.1077 212.827C70.35 212.827 71.1753 212.81 71.5836 212.775C72.0006 212.741 72.3264 212.658 72.561 212.528C72.8042 212.397 72.9693 212.159 73.0562 211.811C73.143 211.464 73.1865 210.855 73.1865 209.987C73.1865 209.648 73.1865 209.4 73.1865 209.244C73.1865 209.079 73.1734 208.883 73.1474 208.657C73.1213 208.432 73.0996 208.275 73.0822 208.188C73.0735 208.101 73.0214 207.989 72.9258 207.85C72.839 207.711 72.7695 207.624 72.7173 207.589C72.6652 207.545 72.5436 207.489 72.3525 207.419C72.17 207.35 72.018 207.315 71.8964 207.315C71.7748 207.307 71.5576 207.294 71.2448 207.276C70.9408 207.25 70.6758 207.237 70.4499 207.237C70.2327 207.237 69.8983 207.237 69.4465 207.237ZM78.5701 211.642H78.961C79.4128 211.616 79.6821 211.815 79.769 212.241C79.8211 212.536 80.0079 212.736 80.3293 212.84C80.6594 212.936 81.2806 212.984 82.1928 212.984C83.2179 212.984 84.1649 212.932 85.0336 212.827C85.494 212.767 85.7938 212.654 85.9328 212.489C86.1065 212.289 86.1934 212.046 86.1934 211.759C86.1934 211.498 86.1282 211.298 85.9979 211.159C85.8763 211.02 85.6678 210.921 85.3724 210.86C85.1205 210.808 84.2039 210.777 82.6228 210.769H81.3718C80.4596 210.769 79.7864 210.729 79.352 210.651C78.9176 210.564 78.5788 210.408 78.3355 210.182C77.9272 209.809 77.7231 209.248 77.7231 208.501C77.7231 207.459 77.9403 206.746 78.3746 206.364C78.67 206.095 79.1826 205.904 79.9123 205.791C80.6421 205.669 81.728 205.608 83.1701 205.608C84.3082 205.608 85.1422 205.643 85.6721 205.712C86.2108 205.773 86.6625 205.899 87.0274 206.09C87.566 206.377 87.8353 206.863 87.8353 207.55C87.8353 207.776 87.7658 207.954 87.6268 208.084C87.4965 208.214 87.3097 208.28 87.0665 208.28H86.7016C86.467 208.271 86.2976 208.232 86.1934 208.162C86.0978 208.084 85.9632 207.902 85.7894 207.615C85.6678 207.398 85.3681 207.259 84.8903 207.198C84.3256 207.128 83.8174 207.094 83.3656 207.094C81.6455 207.094 80.5856 207.194 80.186 207.393C79.8732 207.55 79.7169 207.836 79.7169 208.253C79.7169 208.618 79.8385 208.87 80.0817 209.009C80.3424 209.157 81.0634 209.231 82.2449 209.231H83.7174C85.0206 209.231 85.9371 209.279 86.467 209.374C86.997 209.47 87.3966 209.665 87.6659 209.961C88.0221 210.325 88.2002 210.929 88.2002 211.772C88.2002 212.684 87.9917 213.336 87.5747 213.727C87.2967 214.005 86.8189 214.196 86.1413 214.3C85.4723 214.404 84.4168 214.456 82.9747 214.456C81.2893 214.456 80.1339 214.404 79.5084 214.3C78.8829 214.187 78.4311 213.966 78.1531 213.635C77.9099 213.34 77.7882 212.945 77.7882 212.45C77.7882 211.911 78.0489 211.642 78.5701 211.642ZM90.9154 213.531V206.533C90.898 205.969 91.163 205.686 91.7103 205.686H92.1273C92.6746 205.686 92.9396 205.969 92.9222 206.533V213.531C92.9396 214.096 92.6746 214.378 92.1273 214.378H91.7103C91.163 214.378 90.898 214.096 90.9154 213.531ZM105.55 212.919L105.51 206.533C105.484 205.969 105.745 205.686 106.292 205.686H106.644C107.192 205.686 107.452 205.969 107.426 206.533V213.531C107.435 213.827 107.37 214.044 107.231 214.183C107.092 214.322 106.874 214.387 106.579 214.378H105.133C104.794 214.387 104.529 214.352 104.338 214.274C104.155 214.187 103.955 214.013 103.738 213.753L97.809 207.185L97.8481 213.531C97.8742 214.096 97.6135 214.378 97.0662 214.378H96.6883C96.1497 214.378 95.8891 214.096 95.9065 213.531V206.533C95.8978 206.238 95.9629 206.021 96.1019 205.882C96.2409 205.743 96.4581 205.678 96.7535 205.686H98.1739C98.5127 205.678 98.7733 205.717 98.9558 205.804C99.1469 205.882 99.3554 206.051 99.5813 206.312L105.55 212.919ZM117.389 207.315H114.144C113.597 207.341 113.314 207.098 113.297 206.585V206.416C113.314 205.904 113.597 205.66 114.144 205.686H122.627C123.175 205.66 123.457 205.904 123.474 206.416V206.585C123.457 207.098 123.175 207.341 122.627 207.315H119.396V213.531C119.413 214.096 119.144 214.378 118.588 214.378H118.184C117.628 214.378 117.363 214.096 117.389 213.531V207.315ZM132.426 212.658H126.21L125.611 213.727C125.489 213.979 125.346 214.157 125.181 214.261C125.016 214.356 124.794 214.396 124.516 214.378H123.904C123.521 214.378 123.33 214.222 123.33 213.909C123.33 213.822 123.369 213.718 123.447 213.596L127.604 206.325C127.735 206.073 127.882 205.904 128.048 205.817C128.213 205.721 128.434 205.678 128.712 205.686H129.95C130.228 205.678 130.45 205.721 130.615 205.817C130.78 205.904 130.927 206.073 131.058 206.325L135.15 213.583C135.228 213.731 135.267 213.84 135.267 213.909C135.267 214.057 135.215 214.174 135.11 214.261C135.006 214.339 134.867 214.378 134.693 214.378H134.12C133.851 214.387 133.634 214.348 133.469 214.261C133.303 214.165 133.16 213.992 133.038 213.74L132.426 212.658ZM131.67 211.251L129.312 207.094L126.979 211.251H131.67ZM138.212 205.686H144.727C145.483 205.686 146.061 205.738 146.46 205.843C146.86 205.947 147.177 206.125 147.412 206.377C147.785 206.785 147.972 207.48 147.972 208.462C147.972 209.357 147.846 209.961 147.594 210.273C147.36 210.569 146.995 210.76 146.5 210.847C147.047 210.89 147.407 211.029 147.581 211.264C147.755 211.498 147.837 211.963 147.829 212.658V213.531C147.846 214.096 147.581 214.378 147.034 214.378H146.604C146.057 214.378 145.792 214.096 145.809 213.531V213.075C145.8 212.484 145.692 212.102 145.483 211.928C145.283 211.746 144.853 211.659 144.193 211.668H139.358V213.531C139.376 214.096 139.111 214.378 138.564 214.378H138.16C137.612 214.378 137.347 214.096 137.365 213.531V206.533C137.356 206.238 137.421 206.021 137.56 205.882C137.699 205.743 137.916 205.678 138.212 205.686ZM139.358 210.065H144.128C144.858 210.065 145.344 209.978 145.587 209.804C145.831 209.63 145.952 209.283 145.952 208.762C145.952 208.162 145.839 207.771 145.613 207.589C145.388 207.406 144.905 207.315 144.167 207.315H139.358V210.065ZM159.244 212.658H153.029L152.429 213.727C152.307 213.979 152.164 214.157 151.999 214.261C151.834 214.356 151.612 214.396 151.334 214.378H150.722C150.34 214.378 150.149 214.222 150.149 213.909C150.149 213.822 150.188 213.718 150.266 213.596L154.423 206.325C154.553 206.073 154.701 205.904 154.866 205.817C155.031 205.721 155.253 205.678 155.531 205.686H156.769C157.047 205.678 157.268 205.721 157.433 205.817C157.598 205.904 157.746 206.073 157.876 206.325L161.968 213.583C162.046 213.731 162.085 213.84 162.085 213.909C162.085 214.057 162.033 214.174 161.929 214.261C161.825 214.339 161.686 214.378 161.512 214.378H160.939C160.669 214.387 160.452 214.348 160.287 214.261C160.122 214.165 159.979 213.992 159.857 213.74L159.244 212.658ZM158.489 211.251L156.13 207.094L153.797 211.251H158.489ZM164.935 211.642H165.326C165.778 211.616 166.047 211.815 166.134 212.241C166.186 212.536 166.373 212.736 166.694 212.84C167.025 212.936 167.646 212.984 168.558 212.984C169.583 212.984 170.53 212.932 171.399 212.827C171.859 212.767 172.159 212.654 172.298 212.489C172.472 212.289 172.559 212.046 172.559 211.759C172.559 211.498 172.493 211.298 172.363 211.159C172.241 211.02 172.033 210.921 171.738 210.86C171.486 210.808 170.569 210.777 168.988 210.769H167.737C166.825 210.769 166.151 210.729 165.717 210.651C165.283 210.564 164.944 210.408 164.701 210.182C164.292 209.809 164.088 209.248 164.088 208.501C164.088 207.459 164.305 206.746 164.74 206.364C165.035 206.095 165.548 205.904 166.277 205.791C167.007 205.669 168.093 205.608 169.535 205.608C170.673 205.608 171.507 205.643 172.037 205.712C172.576 205.773 173.028 205.899 173.393 206.09C173.931 206.377 174.2 206.863 174.2 207.55C174.2 207.776 174.131 207.954 173.992 208.084C173.862 208.214 173.675 208.28 173.432 208.28H173.067C172.832 208.271 172.663 208.232 172.559 208.162C172.463 208.084 172.328 207.902 172.155 207.615C172.033 207.398 171.733 207.259 171.255 207.198C170.691 207.128 170.182 207.094 169.731 207.094C168.011 207.094 166.951 207.194 166.551 207.393C166.238 207.55 166.082 207.836 166.082 208.253C166.082 208.618 166.204 208.87 166.447 209.009C166.707 209.157 167.429 209.231 168.61 209.231H170.083C171.386 209.231 172.302 209.279 172.832 209.374C173.362 209.47 173.762 209.665 174.031 209.961C174.387 210.325 174.565 210.929 174.565 211.772C174.565 212.684 174.357 213.336 173.94 213.727C173.662 214.005 173.184 214.196 172.506 214.3C171.837 214.404 170.782 214.456 169.34 214.456C167.654 214.456 166.499 214.404 165.873 214.3C165.248 214.187 164.796 213.966 164.518 213.635C164.275 213.34 164.153 212.945 164.153 212.45C164.153 211.911 164.414 211.642 164.935 211.642ZM184.148 205.595C185.295 205.595 186.142 205.656 186.689 205.778C187.236 205.899 187.662 206.125 187.966 206.455C188.314 206.846 188.526 207.459 188.605 208.293C188.639 208.649 188.657 209.261 188.657 210.13C188.657 211.216 188.592 212.015 188.461 212.528C188.34 213.032 188.114 213.431 187.784 213.727C187.341 214.118 186.637 214.343 185.673 214.404C185.195 214.448 183.948 214.469 181.933 214.469C180.864 214.469 180.065 214.435 179.535 214.365C179.014 214.296 178.579 214.17 178.232 213.987C177.789 213.744 177.48 213.362 177.307 212.84C177.141 212.311 177.059 211.468 177.059 210.312C177.059 209.001 177.098 208.136 177.176 207.719C177.385 206.564 178.149 205.899 179.47 205.725C180.13 205.639 181.689 205.595 184.148 205.595ZM182.91 207.237C182.45 207.237 182.106 207.237 181.881 207.237C181.655 207.237 181.385 207.25 181.073 207.276C180.76 207.294 180.538 207.307 180.408 207.315C180.286 207.324 180.13 207.363 179.939 207.433C179.756 207.502 179.639 207.558 179.587 207.602C179.535 207.637 179.461 207.724 179.365 207.863C179.27 208.002 179.218 208.119 179.209 208.214C179.2 208.301 179.179 208.462 179.144 208.697C179.118 208.931 179.105 209.131 179.105 209.296C179.105 209.452 179.105 209.704 179.105 210.052C179.105 210.443 179.105 210.742 179.105 210.951C179.105 211.159 179.127 211.385 179.17 211.629C179.222 211.863 179.266 212.028 179.3 212.124C179.344 212.219 179.435 212.328 179.574 212.45C179.722 212.562 179.856 212.636 179.978 212.671C180.108 212.697 180.321 212.732 180.616 212.775C180.912 212.81 181.186 212.827 181.437 212.827C181.698 212.827 182.076 212.827 182.571 212.827C183.813 212.827 184.639 212.81 185.047 212.775C185.464 212.741 185.79 212.658 186.024 212.528C186.268 212.397 186.433 212.159 186.52 211.811C186.607 211.464 186.65 210.855 186.65 209.987C186.65 209.648 186.65 209.4 186.65 209.244C186.65 209.079 186.637 208.883 186.611 208.657C186.585 208.432 186.563 208.275 186.546 208.188C186.537 208.101 186.485 207.989 186.389 207.85C186.302 207.711 186.233 207.624 186.181 207.589C186.129 207.545 186.007 207.489 185.816 207.419C185.634 207.35 185.481 207.315 185.36 207.315C185.238 207.307 185.021 207.294 184.708 207.276C184.404 207.25 184.139 207.237 183.913 207.237C183.696 207.237 183.362 207.237 182.91 207.237ZM196.295 212.788L199.8 206.338C199.913 206.086 200.052 205.912 200.217 205.817C200.382 205.712 200.604 205.669 200.882 205.686H201.481C201.872 205.686 202.067 205.843 202.067 206.155C202.067 206.242 202.028 206.351 201.95 206.481L197.936 213.74C197.815 213.992 197.671 214.165 197.506 214.261C197.341 214.348 197.12 214.387 196.842 214.378H195.721C195.443 214.396 195.222 214.356 195.057 214.261C194.891 214.157 194.748 213.979 194.627 213.727L190.704 206.481C190.635 206.342 190.6 206.234 190.6 206.155C190.6 206.008 190.652 205.895 190.756 205.817C190.86 205.73 191.004 205.686 191.186 205.686H191.773C192.051 205.669 192.268 205.712 192.424 205.817C192.589 205.912 192.728 206.086 192.841 206.338L196.295 212.788Z" fill="white"/>
<path id="Premium" d="M268.391 39.3408V41.8767C268.416 42.6672 268.045 43.0625 267.279 43.0625H266.713C265.947 43.0625 265.576 42.6672 265.6 41.8767V32.0798C265.588 31.6662 265.679 31.3622 265.874 31.1676C266.068 30.973 266.372 30.8818 266.786 30.8939H275.105C276.479 30.8939 277.41 30.973 277.896 31.1311C278.65 31.3622 279.18 31.7696 279.484 32.3534C279.788 32.9251 279.94 33.8251 279.94 35.0535C279.94 35.99 279.861 36.7319 279.702 37.2792C279.544 37.8265 279.277 38.2583 278.9 38.5745C278.584 38.8543 278.164 39.055 277.641 39.1766C277.118 39.286 276.382 39.3408 275.433 39.3408H268.391ZM268.391 37.0785H274.649C275.622 37.0785 276.273 36.9508 276.601 36.6954C276.942 36.44 277.112 35.9414 277.112 35.1994C277.112 34.3724 276.954 33.8251 276.638 33.5575C276.333 33.2899 275.713 33.1561 274.777 33.1561H268.391V37.0785ZM284.641 30.8939H293.763C294.821 30.8939 295.63 30.9669 296.19 31.1128C296.749 31.2588 297.193 31.5081 297.521 31.8608C298.044 32.4325 298.306 33.4055 298.306 34.7798C298.306 36.0326 298.129 36.8779 297.777 37.3157C297.448 37.7292 296.938 37.9968 296.244 38.1184C297.011 38.1793 297.515 38.3739 297.759 38.7022C298.002 39.0306 298.117 39.6813 298.105 40.6543V41.8767C298.129 42.6672 297.759 43.0625 296.992 43.0625H296.39C295.624 43.0625 295.253 42.6672 295.277 41.8767V41.2381C295.265 40.4111 295.113 39.8759 294.821 39.6327C294.542 39.3773 293.94 39.2556 293.015 39.2678H286.247V41.8767C286.271 42.6672 285.9 43.0625 285.134 43.0625H284.568C283.802 43.0625 283.431 42.6672 283.455 41.8767V32.0798C283.443 31.6662 283.534 31.3622 283.729 31.1676C283.924 30.973 284.228 30.8818 284.641 30.8939ZM286.247 37.0238H292.924C293.946 37.0238 294.627 36.9022 294.967 36.6589C295.308 36.4157 295.478 35.9292 295.478 35.1994C295.478 34.3602 295.32 33.8129 295.004 33.5575C294.688 33.3021 294.012 33.1744 292.979 33.1744H286.247V37.0238ZM304.975 33.0284V35.9109H313.622C314.401 35.9109 314.79 36.2272 314.79 36.8596C314.79 37.5042 314.401 37.8265 313.622 37.8265H304.975V40.928H314.06C314.826 40.8915 315.222 41.226 315.246 41.9314V42.0591C315.222 42.7645 314.826 43.099 314.06 43.0625H303.387C302.974 43.0747 302.67 42.9834 302.475 42.7888C302.281 42.5942 302.189 42.2902 302.202 41.8767V32.0798C302.189 31.6662 302.281 31.3622 302.475 31.1676C302.67 30.973 302.974 30.8818 303.387 30.8939H313.951C314.717 30.8574 315.112 31.1919 315.136 31.8973V32.025C315.112 32.7305 314.717 33.0649 313.951 33.0284H304.975ZM328.969 40.0523L334.114 31.7879C334.309 31.4351 334.522 31.1919 334.753 31.0581C334.996 30.9243 335.318 30.8696 335.72 30.8939H337.781C338.195 30.8818 338.499 30.973 338.693 31.1676C338.888 31.3622 338.979 31.6662 338.967 32.0798V41.8767C338.991 42.6672 338.62 43.0625 337.854 43.0625H337.325C336.559 43.0625 336.194 42.6672 336.23 41.8767L336.322 33.0467L330.575 42.1686C330.247 42.7645 329.772 43.0625 329.152 43.0625H328.678C328.057 43.0625 327.583 42.7645 327.255 42.1686L321.562 33.0467L321.617 41.8767C321.654 42.6672 321.289 43.0625 320.523 43.0625H319.994C319.239 43.0625 318.875 42.6672 318.899 41.8767V32.0798C318.887 31.6662 318.978 31.3622 319.173 31.1676C319.367 30.973 319.671 30.8818 320.085 30.8939H322.201C322.602 30.8696 322.919 30.9243 323.15 31.0581C323.393 31.1919 323.612 31.4351 323.806 31.7879L328.969 40.0523ZM343.15 41.8767V32.0798C343.126 31.2892 343.497 30.8939 344.263 30.8939H344.847C345.613 30.8939 345.984 31.2892 345.96 32.0798V41.8767C345.984 42.6672 345.613 43.0625 344.847 43.0625H344.263C343.497 43.0625 343.126 42.6672 343.15 41.8767ZM363.474 30.8939H364.058C364.824 30.8939 365.195 31.2892 365.171 32.0798V38.5563C365.171 39.7117 365.061 40.5753 364.842 41.1469C364.623 41.7064 364.222 42.1503 363.638 42.4787C363.103 42.7828 362.44 42.9774 361.65 43.0625C360.859 43.1476 359.345 43.1902 357.107 43.1902C355.076 43.1902 353.641 43.1051 352.801 42.9348C351.962 42.7645 351.318 42.43 350.868 41.9314C350.551 41.5787 350.338 41.1408 350.229 40.6178C350.12 40.0827 350.065 39.2556 350.065 38.1367V32.0798C350.04 31.2892 350.411 30.8939 351.178 30.8939H351.761C352.528 30.8939 352.899 31.2892 352.874 32.0798V37.261C352.874 38.3799 352.905 39.1218 352.966 39.4867C353.087 40.0948 353.422 40.4901 353.969 40.6726C354.528 40.8428 355.684 40.928 357.435 40.928C359.418 40.928 360.64 40.8672 361.102 40.7455C361.796 40.5631 362.197 40.1009 362.306 39.359C362.343 39.1401 362.361 38.5016 362.361 37.4434V32.0798C362.337 31.2892 362.708 30.8939 363.474 30.8939ZM379.311 40.0523L384.456 31.7879C384.65 31.4351 384.863 31.1919 385.094 31.0581C385.337 30.9243 385.66 30.8696 386.061 30.8939H388.123C388.536 30.8818 388.84 30.973 389.035 31.1676C389.229 31.3622 389.321 31.6662 389.308 32.0798V41.8767C389.333 42.6672 388.962 43.0625 388.196 43.0625H387.666C386.9 43.0625 386.535 42.6672 386.572 41.8767L386.663 33.0467L380.916 42.1686C380.588 42.7645 380.114 43.0625 379.493 43.0625H379.019C378.399 43.0625 377.924 42.7645 377.596 42.1686L371.904 33.0467L371.959 41.8767C371.995 42.6672 371.63 43.0625 370.864 43.0625H370.335C369.581 43.0625 369.216 42.6672 369.24 41.8767V32.0798C369.228 31.6662 369.319 31.3622 369.514 31.1676C369.709 30.973 370.013 30.8818 370.426 30.8939H372.542C372.944 30.8696 373.26 30.9243 373.491 31.0581C373.734 31.1919 373.953 31.4351 374.148 31.7879L379.311 40.0523Z" fill="white"/>
</g>
<defs>
<filter id="filter0_d_3_114" x="-26.0625" y="-19.5469" width="469.125" height="290.597" filterUnits="userSpaceOnUse" color-interpolation-filters="sRGB">
<feFlood flood-opacity="0" result="BackgroundImageFix"/>
<feColorMatrix in="SourceAlpha" type="matrix" values="0 0 0 0 0 0 0 0 0 0 0 0 0 0 0 0 0 0 127 0" result="hardAlpha"/>
<feOffset dy="6.51562"/>
<feGaussianBlur stdDeviation="13.0312"/>
<feComposite in2="hardAlpha" operator="out"/>
<feColorMatrix type="matrix" values="0 0 0 0 0 0 0 0 0 0 0 0 0 0 0 0 0 0 0.3 0"/>
<feBlend mode="normal" in2="BackgroundImageFix" result="effect1_dropShadow_3_114"/>
<feBlend mode="normal" in="SourceGraphic" in2="effect1_dropShadow_3_114" result="shape"/>
</filter>
<filter id="filter1_d_3_114" x="140.722" y="-143.36" width="424.675" height="424.675" filterUnits="userSpaceOnUse" color-interpolation-filters="sRGB">
<feFlood flood-opacity="0" result="BackgroundImageFix"/>
<feColorMatrix in="SourceAlpha" type="matrix" values="0 0 0 0 0 0 0 0 0 0 0 0 0 0 0 0 0 0 127 0" result="hardAlpha"/>
<feOffset/>
<feGaussianBlur stdDeviation="16.2891"/>
<feComposite in2="hardAlpha" operator="out"/>
<feColorMatrix type="matrix" values="0 0 0 0 0 0 0 0 0 0 0 0 0 0 0 0 0 0 0.3 0"/>
<feBlend mode="normal" in2="BackgroundImageFix" result="effect1_dropShadow_3_114"/>
<feBlend mode="normal" in="SourceGraphic" in2="effect1_dropShadow_3_114" result="shape"/>
</filter>
<linearGradient id="paint0_linear_3_114" x1="439.805" y1="-117.933" x2="439.805" y2="155.723" gradientUnits="userSpaceOnUse">
<stop offset="0.455492" stop-color="#303030"/>
<stop offset="0.847159" stop-color="#151515"/>
</linearGradient>
</defs>
</svg>
