<svg width="640" height="366" viewBox="0 0 640 366" fill="none" xmlns="http://www.w3.org/2000/svg">
<rect width="640" height="366" fill="#222123"/>
<path d="M320 30C320 13.4315 333.431 0 350 0H640V366H350C333.431 366 320 352.569 320 336V30Z" fill="url(#paint0_linear_1_59)"/>
<path d="M37.936 38.504C39.1093 38.504 40.0373 38.7867 40.72 39.352C41.4027 39.9067 41.744 40.6587 41.744 41.608V41.8C41.744 42.7493 41.4027 43.5067 40.72 44.072C40.0373 44.6267 39.1093 44.904 37.936 44.904H33.072V49H31.472V38.504H37.936ZM37.904 43.48C38.608 43.48 39.152 43.336 39.536 43.048C39.9307 42.7493 40.128 42.3333 40.128 41.8V41.608C40.128 41.0747 39.9307 40.664 39.536 40.376C39.152 40.0773 38.608 39.928 37.904 39.928H33.072V43.48H37.904ZM53.6729 47.64V49H52.6169C52.0942 49 51.6569 48.8987 51.3049 48.696C50.9529 48.4933 50.7075 48.2053 50.5689 47.832C50.1422 48.2907 49.6302 48.632 49.0329 48.856C48.4355 49.08 47.7315 49.192 46.9209 49.192C45.7795 49.192 44.8995 48.9947 44.2809 48.6C43.6622 48.1947 43.3529 47.6187 43.3529 46.872C43.3529 46.232 43.5929 45.72 44.0729 45.336C44.5529 44.952 45.2569 44.712 46.1849 44.616L50.4569 44.168C50.4249 43.5707 50.1742 43.1173 49.7049 42.808C49.2355 42.4987 48.5635 42.344 47.6889 42.344C46.8462 42.344 46.1742 42.488 45.6729 42.776C45.1715 43.064 44.9209 43.448 44.9209 43.928V43.992H43.4009V43.928C43.4009 43.3307 43.5769 42.8027 43.9289 42.344C44.2915 41.8747 44.7982 41.5173 45.4489 41.272C46.0995 41.016 46.8515 40.888 47.7049 40.888C49.0595 40.888 50.1102 41.1867 50.8569 41.784C51.6035 42.3813 51.9769 43.2187 51.9769 44.296V46.76C51.9769 47.0373 52.0622 47.256 52.2329 47.416C52.4035 47.5653 52.6489 47.64 52.9689 47.64H53.6729ZM46.8889 47.832C47.7529 47.832 48.4942 47.6987 49.1129 47.432C49.7315 47.1547 50.1795 46.7653 50.4569 46.264V45.416L46.5209 45.832C45.9662 45.8853 45.5502 45.9973 45.2729 46.168C45.0062 46.3387 44.8729 46.5733 44.8729 46.872C44.8729 47.512 45.5449 47.832 46.8889 47.832ZM62.422 44.968C62.8593 45.1493 63.1953 45.3893 63.43 45.688C63.6753 45.976 63.798 46.3013 63.798 46.664V46.776C63.798 47.5653 63.4193 48.168 62.662 48.584C61.9047 48.9893 60.7953 49.192 59.334 49.192C56.1767 49.192 54.598 48.0933 54.598 45.896V45.784H56.118V45.896C56.118 46.5573 56.3793 47.048 56.902 47.368C57.4353 47.6773 58.2567 47.832 59.366 47.832C61.2647 47.832 62.214 47.4587 62.214 46.712V46.6C62.214 45.992 61.6433 45.688 60.502 45.688H57.846V44.344H60.326C61.446 44.344 62.006 44.0293 62.006 43.4V43.288C62.006 42.9467 61.766 42.6907 61.286 42.52C60.8167 42.3387 60.118 42.248 59.19 42.248C58.1233 42.248 57.3447 42.4027 56.854 42.712C56.3633 43.0213 56.118 43.5173 56.118 44.2V44.312H54.598V44.2C54.598 43.112 54.9927 42.2907 55.782 41.736C56.5713 41.1707 57.734 40.888 59.27 40.888C60.6567 40.888 61.718 41.096 62.454 41.512C63.2007 41.9173 63.574 42.4987 63.574 43.256V43.368C63.574 43.6987 63.4727 44.0027 63.27 44.28C63.0673 44.5467 62.7847 44.776 62.422 44.968ZM77.9355 41.08V49H76.4635V42.664L76.0955 43.32L72.6715 49H71.3115L67.8875 43.32L67.5195 42.664V49H66.0475V41.08H68.2235L71.9995 47.4L75.7595 41.08H77.9355ZM89.2809 45.544H81.6489C81.7022 46.2373 82.0009 46.7867 82.5449 47.192C83.0889 47.5867 83.8142 47.784 84.7209 47.784C85.5635 47.784 86.2462 47.6453 86.7689 47.368C87.3022 47.08 87.5902 46.7013 87.6329 46.232H89.2809C89.1955 47.16 88.7475 47.8853 87.9369 48.408C87.1369 48.9307 86.0649 49.192 84.7209 49.192C83.7715 49.192 82.9449 49.032 82.2409 48.712C81.5369 48.3813 80.9929 47.9173 80.6089 47.32C80.2355 46.7227 80.0489 46.024 80.0489 45.224V44.888C80.0489 44.0773 80.2355 43.3733 80.6089 42.776C80.9929 42.168 81.5369 41.704 82.2409 41.384C82.9449 41.0533 83.7715 40.888 84.7209 40.888C86.1395 40.888 87.2542 41.24 88.0649 41.944C88.8755 42.6373 89.2809 43.5973 89.2809 44.824V45.544ZM84.7209 42.296C83.8675 42.296 83.1742 42.472 82.6409 42.824C82.1182 43.1653 81.7982 43.6453 81.6809 44.264H87.6489C87.5529 43.6453 87.2489 43.1653 86.7369 42.824C86.2249 42.472 85.5529 42.296 84.7209 42.296ZM95.9193 40.888C96.8686 40.888 97.7006 41.0533 98.4153 41.384C99.1299 41.7147 99.6793 42.184 100.063 42.792C100.447 43.3893 100.639 44.0933 100.639 44.904V45.16C100.639 45.9707 100.447 46.68 100.063 47.288C99.6793 47.896 99.1299 48.3653 98.4153 48.696C97.7006 49.0267 96.8686 49.192 95.9193 49.192C95.3326 49.192 94.7833 49.1013 94.2713 48.92C93.7593 48.7387 93.3113 48.4773 92.9273 48.136V51.72H91.3913V41.08H92.8153L92.8793 41.992C93.2739 41.64 93.7326 41.368 94.2552 41.176C94.7779 40.984 95.3326 40.888 95.9193 40.888ZM99.0553 44.904C99.0553 44.0933 98.7726 43.4587 98.2073 43C97.6526 42.5307 96.8846 42.296 95.9033 42.296C95.2739 42.296 94.6926 42.408 94.1593 42.632C93.6366 42.856 93.2259 43.16 92.9273 43.544V46.52C93.2259 46.904 93.6366 47.2133 94.1593 47.448C94.6926 47.672 95.2739 47.784 95.9033 47.784C96.8846 47.784 97.6526 47.5493 98.2073 47.08C98.7726 46.6107 99.0553 45.9707 99.0553 45.16V44.904ZM121.029 47.576V51.128H119.429V49H109.765V51.128H108.181V47.576H109.541C110.17 46.6053 110.501 45.384 110.533 43.912L110.629 38.504H119.381V47.576H121.029ZM112.005 43.96C111.973 45.432 111.685 46.6373 111.141 47.576H117.797V39.928H112.101L112.005 43.96ZM131.359 45.544H123.727C123.78 46.2373 124.079 46.7867 124.623 47.192C125.167 47.5867 125.892 47.784 126.799 47.784C127.642 47.784 128.324 47.6453 128.847 47.368C129.38 47.08 129.668 46.7013 129.711 46.232H131.359C131.274 47.16 130.826 47.8853 130.015 48.408C129.215 48.9307 128.143 49.192 126.799 49.192C125.85 49.192 125.023 49.032 124.319 48.712C123.615 48.3813 123.071 47.9173 122.687 47.32C122.314 46.7227 122.127 46.024 122.127 45.224V44.888C122.127 44.0773 122.314 43.3733 122.687 42.776C123.071 42.168 123.615 41.704 124.319 41.384C125.023 41.0533 125.85 40.888 126.799 40.888C128.218 40.888 129.332 41.24 130.143 41.944C130.954 42.6373 131.359 43.5973 131.359 44.824V45.544ZM126.799 42.296C125.946 42.296 125.252 42.472 124.719 42.824C124.196 43.1653 123.876 43.6453 123.759 44.264H129.727C129.631 43.6453 129.327 43.1653 128.815 42.824C128.303 42.472 127.631 42.296 126.799 42.296ZM142.077 41.08V49H140.541V42.424H135.005V49H133.469V41.08H142.077ZM148.942 49.192C147.971 49.192 147.128 49.032 146.414 48.712C145.699 48.3813 145.15 47.9173 144.766 47.32C144.382 46.712 144.19 46.0027 144.19 45.192V44.92C144.19 44.0987 144.382 43.384 144.766 42.776C145.15 42.168 145.699 41.704 146.414 41.384C147.128 41.0533 147.971 40.888 148.942 40.888C149.902 40.888 150.734 41.0533 151.438 41.384C152.152 41.704 152.696 42.168 153.07 42.776C153.454 43.384 153.646 44.0987 153.646 44.92V45.192C153.646 46.0027 153.454 46.712 153.07 47.32C152.696 47.9173 152.152 48.3813 151.438 48.712C150.734 49.032 149.902 49.192 148.942 49.192ZM148.926 47.784C149.907 47.784 150.675 47.5547 151.23 47.096C151.784 46.6373 152.062 46.0027 152.062 45.192V44.92C152.062 44.0987 151.784 43.4587 151.23 43C150.675 42.5307 149.907 42.296 148.926 42.296C147.923 42.296 147.144 42.5253 146.59 42.984C146.046 43.4427 145.774 44.088 145.774 44.92V45.192C145.774 46.0027 146.051 46.6373 146.606 47.096C147.171 47.5547 147.944 47.784 148.926 47.784ZM163.063 44.968C163.5 45.1493 163.836 45.3893 164.071 45.688C164.316 45.976 164.439 46.3013 164.439 46.664V46.776C164.439 47.5653 164.06 48.168 163.303 48.584C162.545 48.9893 161.436 49.192 159.975 49.192C156.817 49.192 155.239 48.0933 155.239 45.896V45.784H156.759V45.896C156.759 46.5573 157.02 47.048 157.543 47.368C158.076 47.6773 158.897 47.832 160.007 47.832C161.905 47.832 162.855 47.4587 162.855 46.712V46.6C162.855 45.992 162.284 45.688 161.143 45.688H158.487V44.344H160.967C162.087 44.344 162.647 44.0293 162.647 43.4V43.288C162.647 42.9467 162.407 42.6907 161.927 42.52C161.457 42.3387 160.759 42.248 159.831 42.248C158.764 42.248 157.985 42.4027 157.495 42.712C157.004 43.0213 156.759 43.5173 156.759 44.2V44.312H155.239V44.2C155.239 43.112 155.633 42.2907 156.423 41.736C157.212 41.1707 158.375 40.888 159.911 40.888C161.297 40.888 162.359 41.096 163.095 41.512C163.841 41.9173 164.215 42.4987 164.215 43.256V43.368C164.215 43.6987 164.113 44.0027 163.911 44.28C163.708 44.5467 163.425 44.776 163.063 44.968ZM168.16 41.08V47.128L173.968 41.08H175.376V49H173.904V42.952L168.096 49H166.688V41.08H168.16ZM176.458 42.456V41.08H185.77V42.456H181.914V49H180.378V42.456H176.458ZM197.048 47.64V49H195.992C195.469 49 195.032 48.8987 194.68 48.696C194.328 48.4933 194.083 48.2053 193.944 47.832C193.517 48.2907 193.005 48.632 192.408 48.856C191.811 49.08 191.107 49.192 190.296 49.192C189.155 49.192 188.275 48.9947 187.656 48.6C187.037 48.1947 186.728 47.6187 186.728 46.872C186.728 46.232 186.968 45.72 187.448 45.336C187.928 44.952 188.632 44.712 189.56 44.616L193.832 44.168C193.8 43.5707 193.549 43.1173 193.08 42.808C192.611 42.4987 191.939 42.344 191.064 42.344C190.221 42.344 189.549 42.488 189.048 42.776C188.547 43.064 188.296 43.448 188.296 43.928V43.992H186.776V43.928C186.776 43.3307 186.952 42.8027 187.304 42.344C187.667 41.8747 188.173 41.5173 188.824 41.272C189.475 41.016 190.227 40.888 191.08 40.888C192.435 40.888 193.485 41.1867 194.232 41.784C194.979 42.3813 195.352 43.2187 195.352 44.296V46.76C195.352 47.0373 195.437 47.256 195.608 47.416C195.779 47.5653 196.024 47.64 196.344 47.64H197.048ZM190.264 47.832C191.128 47.832 191.869 47.6987 192.488 47.432C193.107 47.1547 193.555 46.7653 193.832 46.264V45.416L189.896 45.832C189.341 45.8853 188.925 45.9973 188.648 46.168C188.381 46.3387 188.248 46.5733 188.248 46.872C188.248 47.512 188.92 47.832 190.264 47.832Z" fill="white" fill-opacity="0.6"/>
<path d="M39.096 84H36.744V71.808C35.976 72.24 34.976 72.456 33.744 72.456H31.032V70.224H33.552C34.64 70.224 35.44 70.064 35.952 69.744C36.48 69.424 36.744 68.928 36.744 68.256H39.096V84ZM61.6547 73.8C64.0227 73.8 65.8787 74.24 67.2227 75.12C68.5827 76 69.2627 77.216 69.2627 78.768V79.152C69.2627 80.784 68.5987 82.048 67.2707 82.944C65.9427 83.84 64.0707 84.288 61.6547 84.288C59.2227 84.288 57.3427 83.912 56.0147 83.16C54.7027 82.408 54.0467 81.336 54.0467 79.944V79.752H56.4467V79.944C56.4467 80.6 56.9027 81.12 57.8147 81.504C58.7267 81.872 59.9827 82.056 61.5827 82.056C63.2307 82.056 64.5267 81.8 65.4707 81.288C66.4147 80.776 66.8867 80.072 66.8867 79.176V78.792C66.8867 77.928 66.4067 77.248 65.4467 76.752C64.5027 76.256 63.1907 76.008 61.5107 76.008C60.0387 76.008 58.8307 76.2 57.8867 76.584C56.9427 76.952 56.4467 77.44 56.3987 78.048H54.0467L54.5747 68.256H68.2547V70.392H56.6867L56.4467 75.024C57.6787 74.208 59.4147 73.8 61.6547 73.8ZM81.1134 84.288C79.5134 84.288 78.0974 84 76.8654 83.424C75.6494 82.848 74.6974 82.04 74.0094 81C73.3374 79.96 73.0014 78.768 73.0014 77.424V74.856C73.0014 73.496 73.3374 72.296 74.0094 71.256C74.6974 70.216 75.6494 69.408 76.8654 68.832C78.0974 68.256 79.5134 67.968 81.1134 67.968C82.6974 67.968 84.0974 68.256 85.3134 68.832C86.5294 69.408 87.4734 70.216 88.1454 71.256C88.8174 72.296 89.1534 73.496 89.1534 74.856V77.424C89.1534 78.784 88.8174 79.984 88.1454 81.024C87.4734 82.048 86.5294 82.848 85.3134 83.424C84.0974 84 82.6974 84.288 81.1134 84.288ZM81.1134 82.056C82.8734 82.056 84.2574 81.648 85.2654 80.832C86.2734 80.016 86.7774 78.888 86.7774 77.448V74.832C86.7774 73.408 86.2654 72.28 85.2414 71.448C84.2334 70.616 82.8494 70.2 81.0894 70.2C79.3134 70.2 77.9134 70.616 76.8894 71.448C75.8814 72.264 75.3774 73.392 75.3774 74.832V77.448C75.3774 78.888 75.8814 80.016 76.8894 80.832C77.9134 81.648 79.3214 82.056 81.1134 82.056ZM100.731 84.288C99.1306 84.288 97.7146 84 96.4826 83.424C95.2666 82.848 94.3146 82.04 93.6266 81C92.9546 79.96 92.6186 78.768 92.6186 77.424V74.856C92.6186 73.496 92.9546 72.296 93.6266 71.256C94.3146 70.216 95.2666 69.408 96.4826 68.832C97.7146 68.256 99.1306 67.968 100.731 67.968C102.315 67.968 103.715 68.256 104.931 68.832C106.147 69.408 107.091 70.216 107.763 71.256C108.435 72.296 108.771 73.496 108.771 74.856V77.424C108.771 78.784 108.435 79.984 107.763 81.024C107.091 82.048 106.147 82.848 104.931 83.424C103.715 84 102.315 84.288 100.731 84.288ZM100.731 82.056C102.491 82.056 103.875 81.648 104.883 80.832C105.891 80.016 106.395 78.888 106.395 77.448V74.832C106.395 73.408 105.883 72.28 104.859 71.448C103.851 70.616 102.467 70.2 100.707 70.2C98.9306 70.2 97.5306 70.616 96.5066 71.448C95.4986 72.264 94.9946 73.392 94.9946 74.832V77.448C94.9946 78.888 95.4986 80.016 96.5066 80.832C97.5306 81.648 98.9386 82.056 100.731 82.056ZM129.957 84.288C128.357 84.288 126.941 84 125.709 83.424C124.493 82.848 123.541 82.04 122.853 81C122.181 79.96 121.845 78.768 121.845 77.424V74.856C121.845 73.496 122.181 72.296 122.853 71.256C123.541 70.216 124.493 69.408 125.709 68.832C126.941 68.256 128.357 67.968 129.957 67.968C131.541 67.968 132.941 68.256 134.157 68.832C135.373 69.408 136.317 70.216 136.989 71.256C137.661 72.296 137.997 73.496 137.997 74.856V77.424C137.997 78.784 137.661 79.984 136.989 81.024C136.317 82.048 135.373 82.848 134.157 83.424C132.941 84 131.541 84.288 129.957 84.288ZM129.957 82.056C131.717 82.056 133.101 81.648 134.109 80.832C135.117 80.016 135.621 78.888 135.621 77.448V74.832C135.621 73.408 135.109 72.28 134.085 71.448C133.077 70.616 131.693 70.2 129.933 70.2C128.157 70.2 126.757 70.616 125.733 71.448C124.725 72.264 124.221 73.392 124.221 74.832V77.448C124.221 78.888 124.725 80.016 125.733 80.832C126.757 81.648 128.165 82.056 129.957 82.056ZM149.574 84.288C147.974 84.288 146.558 84 145.326 83.424C144.11 82.848 143.158 82.04 142.47 81C141.798 79.96 141.462 78.768 141.462 77.424V74.856C141.462 73.496 141.798 72.296 142.47 71.256C143.158 70.216 144.11 69.408 145.326 68.832C146.558 68.256 147.974 67.968 149.574 67.968C151.158 67.968 152.558 68.256 153.774 68.832C154.99 69.408 155.934 70.216 156.606 71.256C157.278 72.296 157.614 73.496 157.614 74.856V77.424C157.614 78.784 157.278 79.984 156.606 81.024C155.934 82.048 154.99 82.848 153.774 83.424C152.558 84 151.158 84.288 149.574 84.288ZM149.574 82.056C151.334 82.056 152.718 81.648 153.726 80.832C154.734 80.016 155.238 78.888 155.238 77.448V74.832C155.238 73.408 154.726 72.28 153.702 71.448C152.694 70.616 151.31 70.2 149.55 70.2C147.774 70.2 146.374 70.616 145.35 71.448C144.342 72.264 143.838 73.392 143.838 74.832V77.448C143.838 78.888 144.342 80.016 145.35 80.832C146.374 81.648 147.782 82.056 149.574 82.056ZM169.192 84.288C167.592 84.288 166.176 84 164.944 83.424C163.728 82.848 162.776 82.04 162.088 81C161.416 79.96 161.08 78.768 161.08 77.424V74.856C161.08 73.496 161.416 72.296 162.088 71.256C162.776 70.216 163.728 69.408 164.944 68.832C166.176 68.256 167.592 67.968 169.192 67.968C170.776 67.968 172.176 68.256 173.392 68.832C174.608 69.408 175.552 70.216 176.224 71.256C176.896 72.296 177.232 73.496 177.232 74.856V77.424C177.232 78.784 176.896 79.984 176.224 81.024C175.552 82.048 174.608 82.848 173.392 83.424C172.176 84 170.776 84.288 169.192 84.288ZM169.192 82.056C170.952 82.056 172.336 81.648 173.344 80.832C174.352 80.016 174.856 78.888 174.856 77.448V74.832C174.856 73.408 174.344 72.28 173.32 71.448C172.312 70.616 170.928 70.2 169.168 70.2C167.392 70.2 165.992 70.616 164.968 71.448C163.96 72.264 163.456 73.392 163.456 74.832V77.448C163.456 78.888 163.96 80.016 164.968 80.832C165.992 81.648 167.4 82.056 169.192 82.056ZM200.482 68.256C202.242 68.256 203.634 68.68 204.658 69.528C205.682 70.36 206.194 71.488 206.194 72.912V73.2C206.194 74.624 205.682 75.76 204.658 76.608C203.634 77.44 202.242 77.856 200.482 77.856H193.186V84H190.786V68.256H200.482ZM200.434 75.72C201.49 75.72 202.306 75.504 202.882 75.072C203.474 74.624 203.77 74 203.77 73.2V72.912C203.77 72.112 203.474 71.496 202.882 71.064C202.306 70.616 201.49 70.392 200.434 70.392H193.186V75.72H200.434ZM223.309 72.12V72.456L216.541 85.32C216.013 86.312 215.397 87.016 214.693 87.432C214.005 87.864 213.061 88.08 211.861 88.08H209.461V86.04H211.861C212.533 86.04 213.037 85.936 213.373 85.728C213.709 85.536 214.029 85.144 214.333 84.552L214.549 84.168L208.357 72.456V72.12H210.805L215.845 81.912L220.861 72.12H223.309ZM233.395 72.696C234.707 72.696 235.859 72.928 236.851 73.392C237.843 73.84 238.611 74.488 239.155 75.336C239.699 76.168 239.971 77.136 239.971 78.24V78.816C239.971 79.904 239.675 80.864 239.083 81.696C238.507 82.512 237.691 83.152 236.635 83.616C235.579 84.064 234.347 84.288 232.939 84.288C230.619 84.288 228.835 83.68 227.587 82.464C226.339 81.232 225.715 79.48 225.715 77.208V75.576C225.715 73.336 226.299 71.624 227.467 70.44C228.635 69.24 230.403 68.552 232.771 68.376L235.915 68.136C236.219 68.12 236.435 68.064 236.563 67.968C236.707 67.856 236.779 67.704 236.779 67.512V67.296H239.251V67.584C239.251 68.384 239.019 69.008 238.555 69.456C238.107 69.888 237.419 70.136 236.491 70.2L232.819 70.488C231.155 70.616 229.923 71.016 229.123 71.688C228.339 72.36 227.939 73.336 227.923 74.616C228.579 74.008 229.379 73.536 230.323 73.2C231.267 72.864 232.291 72.696 233.395 72.696ZM237.595 78.288C237.595 77.2 237.179 76.344 236.347 75.72C235.515 75.096 234.363 74.784 232.891 74.784C230.779 74.784 229.155 75.464 228.019 76.824V77.784C228.019 79.24 228.427 80.344 229.243 81.096C230.075 81.832 231.291 82.2 232.891 82.2C234.347 82.2 235.491 81.896 236.323 81.288C237.171 80.68 237.595 79.848 237.595 78.792V78.288ZM244.406 84.288C243.974 84.288 243.622 84.152 243.35 83.88C243.078 83.608 242.942 83.264 242.942 82.848C242.942 82.432 243.078 82.088 243.35 81.816C243.622 81.544 243.974 81.408 244.406 81.408C244.838 81.408 245.19 81.544 245.462 81.816C245.734 82.088 245.87 82.432 245.87 82.848C245.87 83.264 245.734 83.608 245.462 83.88C245.19 84.152 244.838 84.288 244.406 84.288Z" fill="white"/>
<path d="M37.104 139.192C35.8773 139.192 34.8053 138.979 33.888 138.552C32.9707 138.115 32.2613 137.496 31.76 136.696C31.2693 135.896 31.024 134.963 31.024 133.896V133.624C31.024 132.557 31.2693 131.624 31.76 130.824C32.2613 130.024 32.9707 129.405 33.888 128.968C34.8053 128.531 35.8773 128.312 37.104 128.312C38.2133 128.312 39.2107 128.499 40.096 128.872C40.992 129.245 41.6907 129.763 42.192 130.424C42.704 131.075 42.96 131.805 42.96 132.616V132.76H41.344V132.616C41.344 132.083 41.1627 131.603 40.8 131.176C40.4373 130.749 39.9307 130.413 39.28 130.168C38.64 129.923 37.9147 129.8 37.104 129.8C35.6747 129.8 34.5707 130.131 33.792 130.792C33.024 131.453 32.64 132.392 32.64 133.608V133.912C32.64 135.128 33.024 136.067 33.792 136.728C34.5707 137.379 35.6747 137.704 37.104 137.704C37.9253 137.704 38.656 137.587 39.296 137.352C39.9467 137.107 40.448 136.771 40.8 136.344C41.1627 135.917 41.344 135.437 41.344 134.904V134.744H42.96V134.904C42.96 135.715 42.704 136.445 42.192 137.096C41.6907 137.747 40.992 138.259 40.096 138.632C39.2107 139.005 38.2133 139.192 37.104 139.192ZM54.4484 138.776V139H52.7044L49.2164 135.672H46.8804V139H45.3444V131.08H46.8804V134.328H49.1684L52.4644 131.08H54.2404V131.304L50.5764 134.968L54.4484 138.776ZM57.8008 131.08V137.128L63.6088 131.08H65.0168V139H63.5448V132.952L57.7368 139H56.3288V131.08H57.8008ZM78.295 137.64V141.048H76.775V139H68.263V141.048H66.743L66.727 137.64H67.959C68.4923 136.84 68.7643 135.853 68.775 134.68L68.823 131.08H76.711V137.64H78.295ZM75.191 137.64V132.424H70.231L70.183 134.68C70.1723 135.32 70.1083 135.88 69.991 136.36C69.8737 136.829 69.703 137.256 69.479 137.64H75.191ZM89.0265 138.776V139H87.2825L83.7945 135.672H81.4585V139H79.9225V131.08H81.4585V134.328H83.7465L87.0425 131.08H88.8185V131.304L85.1545 134.968L89.0265 138.776ZM100.454 137.64V139H99.3981C98.8755 139 98.4381 138.899 98.0861 138.696C97.7341 138.493 97.4888 138.205 97.3501 137.832C96.9235 138.291 96.4115 138.632 95.8141 138.856C95.2168 139.08 94.5128 139.192 93.7021 139.192C92.5608 139.192 91.6808 138.995 91.0621 138.6C90.4435 138.195 90.1341 137.619 90.1341 136.872C90.1341 136.232 90.3741 135.72 90.8541 135.336C91.3341 134.952 92.0381 134.712 92.9661 134.616L97.2381 134.168C97.2061 133.571 96.9555 133.117 96.4861 132.808C96.0168 132.499 95.3448 132.344 94.4701 132.344C93.6275 132.344 92.9555 132.488 92.4541 132.776C91.9528 133.064 91.7021 133.448 91.7021 133.928V133.992H90.1821V133.928C90.1821 133.331 90.3581 132.803 90.7101 132.344C91.0728 131.875 91.5795 131.517 92.2301 131.272C92.8808 131.016 93.6328 130.888 94.4861 130.888C95.8408 130.888 96.8915 131.187 97.6381 131.784C98.3848 132.381 98.7581 133.219 98.7581 134.296V136.76C98.7581 137.037 98.8435 137.256 99.0141 137.416C99.1848 137.565 99.4301 137.64 99.7501 137.64H100.454ZM93.6701 137.832C94.5341 137.832 95.2755 137.699 95.8941 137.432C96.5128 137.155 96.9608 136.765 97.2381 136.264V135.416L93.3021 135.832C92.7475 135.885 92.3315 135.997 92.0541 136.168C91.7875 136.339 91.6541 136.573 91.6541 136.872C91.6541 137.512 92.3261 137.832 93.6701 137.832ZM110.01 128.504V133.032H116.97V128.504H118.57V139H116.97V134.472H110.01V139H108.41V128.504H110.01ZM131.423 137.64V139H130.367C129.844 139 129.407 138.899 129.055 138.696C128.703 138.493 128.458 138.205 128.319 137.832C127.892 138.291 127.38 138.632 126.783 138.856C126.186 139.08 125.482 139.192 124.671 139.192C123.53 139.192 122.65 138.995 122.031 138.6C121.412 138.195 121.103 137.619 121.103 136.872C121.103 136.232 121.343 135.72 121.823 135.336C122.303 134.952 123.007 134.712 123.935 134.616L128.207 134.168C128.175 133.571 127.924 133.117 127.455 132.808C126.986 132.499 126.314 132.344 125.439 132.344C124.596 132.344 123.924 132.488 123.423 132.776C122.922 133.064 122.671 133.448 122.671 133.928V133.992H121.151V133.928C121.151 133.331 121.327 132.803 121.679 132.344C122.042 131.875 122.548 131.517 123.199 131.272C123.85 131.016 124.602 130.888 125.455 130.888C126.81 130.888 127.86 131.187 128.607 131.784C129.354 132.381 129.727 133.219 129.727 134.296V136.76C129.727 137.037 129.812 137.256 129.983 137.416C130.154 137.565 130.399 137.64 130.719 137.64H131.423ZM124.639 137.832C125.503 137.832 126.244 137.699 126.863 137.432C127.482 137.155 127.93 136.765 128.207 136.264V135.416L124.271 135.832C123.716 135.885 123.3 135.997 123.023 136.168C122.756 136.339 122.623 136.573 122.623 136.872C122.623 137.512 123.295 137.832 124.639 137.832ZM148.969 138.76V139H147.337L146.089 136.344H140.169L138.921 139H137.289V138.76L142.249 128.504H144.009L148.969 138.76ZM145.401 134.904L143.129 130.088L140.857 134.904H145.401ZM155.169 130.888C156.119 130.888 156.951 131.053 157.665 131.384C158.38 131.715 158.929 132.184 159.313 132.792C159.697 133.389 159.889 134.093 159.889 134.904V135.16C159.889 135.971 159.697 136.68 159.313 137.288C158.929 137.896 158.38 138.365 157.665 138.696C156.951 139.027 156.119 139.192 155.169 139.192C154.583 139.192 154.033 139.101 153.521 138.92C153.009 138.739 152.561 138.477 152.177 138.136V141.72H150.641V131.08H152.065L152.129 131.992C152.524 131.64 152.983 131.368 153.505 131.176C154.028 130.984 154.583 130.888 155.169 130.888ZM158.305 134.904C158.305 134.093 158.023 133.459 157.457 133C156.903 132.531 156.135 132.296 155.153 132.296C154.524 132.296 153.943 132.408 153.409 132.632C152.887 132.856 152.476 133.16 152.177 133.544V136.52C152.476 136.904 152.887 137.213 153.409 137.448C153.943 137.672 154.524 137.784 155.153 137.784C156.135 137.784 156.903 137.549 157.457 137.08C158.023 136.611 158.305 135.971 158.305 135.16V134.904ZM170.625 135.544H162.993C163.046 136.237 163.345 136.787 163.889 137.192C164.433 137.587 165.158 137.784 166.065 137.784C166.907 137.784 167.59 137.645 168.113 137.368C168.646 137.08 168.934 136.701 168.977 136.232H170.625C170.539 137.16 170.091 137.885 169.281 138.408C168.481 138.931 167.409 139.192 166.065 139.192C165.115 139.192 164.289 139.032 163.585 138.712C162.881 138.381 162.337 137.917 161.953 137.32C161.579 136.723 161.393 136.024 161.393 135.224V134.888C161.393 134.077 161.579 133.373 161.953 132.776C162.337 132.168 162.881 131.704 163.585 131.384C164.289 131.053 165.115 130.888 166.065 130.888C167.483 130.888 168.598 131.24 169.409 131.944C170.219 132.637 170.625 133.597 170.625 134.824V135.544ZM166.065 132.296C165.211 132.296 164.518 132.472 163.985 132.824C163.462 133.165 163.142 133.645 163.025 134.264H168.993C168.897 133.645 168.593 133.165 168.081 132.824C167.569 132.472 166.897 132.296 166.065 132.296ZM174.271 131.08V134.344H179.967V131.08H181.503V139H179.967V135.704H174.271V139H172.735V131.08H174.271ZM194.779 137.64V141.048H193.259V139H184.747V141.048H183.227L183.211 137.64H184.443C184.977 136.84 185.249 135.853 185.259 134.68L185.307 131.08H193.195V137.64H194.779ZM191.675 137.64V132.424H186.715L186.667 134.68C186.657 135.32 186.593 135.88 186.475 136.36C186.358 136.829 186.187 137.256 185.963 137.64H191.675ZM205.232 131.08V131.304L200.72 139.88C200.368 140.541 199.957 141.011 199.488 141.288C199.029 141.576 198.4 141.72 197.6 141.72H196V140.36H197.6C198.048 140.36 198.384 140.291 198.608 140.152C198.832 140.024 199.045 139.763 199.248 139.368L199.392 139.112L195.264 131.304V131.08H196.896L200.256 137.608L203.6 131.08H205.232Z" fill="white" fill-opacity="0.6"/>
<path d="M40.368 164.496C42.496 164.56 44.12 164.984 45.24 165.768C46.376 166.536 46.944 167.608 46.944 168.984V169.296C46.944 170.912 46.296 172.152 45 173.016C43.704 173.864 41.816 174.288 39.336 174.288C36.92 174.272 35.048 173.848 33.72 173.016C32.408 172.184 31.752 171.008 31.752 169.488V169.32H34.128V169.488C34.128 170.288 34.592 170.92 35.52 171.384C36.448 171.832 37.728 172.056 39.36 172.056C41.072 172.056 42.368 171.832 43.248 171.384C44.128 170.92 44.568 170.24 44.568 169.344V169.056C44.568 167.376 42.856 166.536 39.432 166.536H36.84V164.424L42.768 160.392H32.04V158.256H46.56V160.392L40.368 164.496ZM58.8009 174.288C57.2009 174.288 55.7849 174 54.5529 173.424C53.3369 172.848 52.3849 172.04 51.6969 171C51.0249 169.96 50.6889 168.768 50.6889 167.424V164.856C50.6889 163.496 51.0249 162.296 51.6969 161.256C52.3849 160.216 53.3369 159.408 54.5529 158.832C55.7849 158.256 57.2009 157.968 58.8009 157.968C60.3849 157.968 61.7849 158.256 63.0009 158.832C64.2169 159.408 65.1609 160.216 65.8329 161.256C66.5049 162.296 66.8409 163.496 66.8409 164.856V167.424C66.8409 168.784 66.5049 169.984 65.8329 171.024C65.1609 172.048 64.2169 172.848 63.0009 173.424C61.7849 174 60.3849 174.288 58.8009 174.288ZM58.8009 172.056C60.5609 172.056 61.9449 171.648 62.9529 170.832C63.9609 170.016 64.4649 168.888 64.4649 167.448V164.832C64.4649 163.408 63.9529 162.28 62.9289 161.448C61.9209 160.616 60.5369 160.2 58.7769 160.2C57.0009 160.2 55.6009 160.616 54.5769 161.448C53.5689 162.264 53.0649 163.392 53.0649 164.832V167.448C53.0649 168.888 53.5689 170.016 54.5769 170.832C55.6009 171.648 57.0089 172.056 58.8009 172.056ZM73.9301 165.864C72.5061 165.864 71.3621 165.52 70.4981 164.832C69.6501 164.144 69.2261 163.232 69.2261 162.096V161.856C69.2261 160.704 69.6501 159.792 70.4981 159.12C71.3621 158.432 72.5061 158.088 73.9301 158.088C75.3541 158.088 76.4821 158.432 77.3141 159.12C78.1621 159.792 78.5861 160.704 78.5861 161.856V162.096C78.5861 163.232 78.1621 164.144 77.3141 164.832C76.4661 165.52 75.3381 165.864 73.9301 165.864ZM73.9061 164.16C74.7061 164.16 75.3381 163.976 75.8021 163.608C76.2661 163.24 76.4981 162.744 76.4981 162.12V161.832C76.4981 161.208 76.2661 160.712 75.8021 160.344C75.3381 159.976 74.7061 159.792 73.9061 159.792C73.1061 159.792 72.4741 159.976 72.0101 160.344C71.5621 160.696 71.3381 161.192 71.3381 161.832V162.12C71.3381 162.744 71.5701 163.24 72.0341 163.608C72.4981 163.976 73.1221 164.16 73.9061 164.16ZM86.5541 174.144C85.1301 174.144 83.9861 173.8 83.1221 173.112C82.2741 172.424 81.8501 171.512 81.8501 170.376V170.136C81.8501 168.984 82.2741 168.072 83.1221 167.4C83.9861 166.712 85.1301 166.368 86.5541 166.368C87.9781 166.368 89.1061 166.712 89.9381 167.4C90.7861 168.072 91.2101 168.984 91.2101 170.136V170.376C91.2101 171.512 90.7861 172.424 89.9381 173.112C89.0901 173.8 87.9621 174.144 86.5541 174.144ZM86.5301 172.44C87.3301 172.44 87.9621 172.256 88.4261 171.888C88.8901 171.52 89.1221 171.024 89.1221 170.4V170.112C89.1221 169.488 88.8901 168.992 88.4261 168.624C87.9621 168.256 87.3301 168.072 86.5301 168.072C85.7301 168.072 85.0981 168.256 84.6341 168.624C84.1861 168.976 83.9621 169.472 83.9621 170.112V170.4C83.9621 171.024 84.1941 171.52 84.6581 171.888C85.1221 172.256 85.7461 172.44 86.5301 172.44ZM86.3381 158.256H88.6421V158.616L74.0741 174H71.7701V173.664L86.3381 158.256Z" fill="white"/>
<path d="M37.104 229.192C35.8773 229.192 34.8053 228.979 33.888 228.552C32.9707 228.115 32.2613 227.496 31.76 226.696C31.2693 225.896 31.024 224.963 31.024 223.896V223.624C31.024 222.557 31.2693 221.624 31.76 220.824C32.2613 220.024 32.9707 219.405 33.888 218.968C34.8053 218.531 35.8773 218.312 37.104 218.312C38.2133 218.312 39.2107 218.499 40.096 218.872C40.992 219.245 41.6907 219.763 42.192 220.424C42.704 221.075 42.96 221.805 42.96 222.616V222.76H41.344V222.616C41.344 222.083 41.1627 221.603 40.8 221.176C40.4373 220.749 39.9307 220.413 39.28 220.168C38.64 219.923 37.9147 219.8 37.104 219.8C35.6747 219.8 34.5707 220.131 33.792 220.792C33.024 221.453 32.64 222.392 32.64 223.608V223.912C32.64 225.128 33.024 226.067 33.792 226.728C34.5707 227.379 35.6747 227.704 37.104 227.704C37.9253 227.704 38.656 227.587 39.296 227.352C39.9467 227.107 40.448 226.771 40.8 226.344C41.1627 225.917 41.344 225.437 41.344 224.904V224.744H42.96V224.904C42.96 225.715 42.704 226.445 42.192 227.096C41.6907 227.747 40.992 228.259 40.096 228.632C39.2107 229.005 38.2133 229.192 37.104 229.192ZM49.8724 220.888C50.8217 220.888 51.6537 221.053 52.3684 221.384C53.083 221.715 53.6324 222.184 54.0164 222.792C54.4004 223.389 54.5924 224.093 54.5924 224.904V225.16C54.5924 225.971 54.4004 226.68 54.0164 227.288C53.6324 227.896 53.083 228.365 52.3684 228.696C51.6537 229.027 50.8217 229.192 49.8724 229.192C49.2857 229.192 48.7364 229.101 48.2244 228.92C47.7124 228.739 47.2644 228.477 46.8804 228.136V231.72H45.3444V221.08H46.7684L46.8324 221.992C47.227 221.64 47.6857 221.368 48.2084 221.176C48.731 220.984 49.2857 220.888 49.8724 220.888ZM53.0084 224.904C53.0084 224.093 52.7257 223.459 52.1604 223C51.6057 222.531 50.8377 222.296 49.8564 222.296C49.227 222.296 48.6457 222.408 48.1124 222.632C47.5897 222.856 47.179 223.16 46.8804 223.544V226.52C47.179 226.904 47.5897 227.213 48.1124 227.448C48.6457 227.672 49.227 227.784 49.8564 227.784C50.8377 227.784 51.6057 227.549 52.1604 227.08C52.7257 226.611 53.0084 225.971 53.0084 225.16V224.904ZM60.8478 229.192C59.8771 229.192 59.0344 229.032 58.3198 228.712C57.6051 228.381 57.0558 227.917 56.6718 227.32C56.2878 226.712 56.0958 226.003 56.0958 225.192V224.92C56.0958 224.099 56.2878 223.384 56.6718 222.776C57.0558 222.168 57.6051 221.704 58.3198 221.384C59.0344 221.053 59.8771 220.888 60.8478 220.888C61.8078 220.888 62.6398 221.053 63.3438 221.384C64.0584 221.704 64.6024 222.168 64.9758 222.776C65.3598 223.384 65.5518 224.099 65.5518 224.92V225.192C65.5518 226.003 65.3598 226.712 64.9758 227.32C64.6024 227.917 64.0584 228.381 63.3438 228.712C62.6398 229.032 61.8078 229.192 60.8478 229.192ZM60.8318 227.784C61.8131 227.784 62.5811 227.555 63.1358 227.096C63.6904 226.637 63.9678 226.003 63.9678 225.192V224.92C63.9678 224.099 63.6904 223.459 63.1358 223C62.5811 222.531 61.8131 222.296 60.8318 222.296C59.8291 222.296 59.0504 222.525 58.4958 222.984C57.9518 223.443 57.6798 224.088 57.6798 224.92V225.192C57.6798 226.003 57.9571 226.637 58.5118 227.096C59.0771 227.555 59.8504 227.784 60.8318 227.784ZM76.7609 228.776V229H75.0169L71.5289 225.672H69.1929V229H67.6569V221.08H69.1929V224.328H71.4809L74.7769 221.08H76.5529V221.304L72.8889 224.968L76.7609 228.776ZM96.9195 227.576V231.128H95.3195V229H85.6555V231.128H84.0715V227.576H85.4315C86.0608 226.605 86.3915 225.384 86.4235 223.912L86.5195 218.504H95.2715V227.576H96.9195ZM87.8955 223.96C87.8635 225.432 87.5755 226.637 87.0315 227.576H93.6875V219.928H87.9915L87.8955 223.96ZM107.25 225.544H99.6176C99.671 226.237 99.9696 226.787 100.514 227.192C101.058 227.587 101.783 227.784 102.69 227.784C103.532 227.784 104.215 227.645 104.738 227.368C105.271 227.08 105.559 226.701 105.602 226.232H107.25C107.164 227.16 106.716 227.885 105.906 228.408C105.106 228.931 104.034 229.192 102.69 229.192C101.74 229.192 100.914 229.032 100.21 228.712C99.5056 228.381 98.9616 227.917 98.5776 227.32C98.2043 226.723 98.0176 226.024 98.0176 225.224V224.888C98.0176 224.077 98.2043 223.373 98.5776 222.776C98.9616 222.168 99.5056 221.704 100.21 221.384C100.914 221.053 101.74 220.888 102.69 220.888C104.108 220.888 105.223 221.24 106.034 221.944C106.844 222.637 107.25 223.597 107.25 224.824V225.544ZM102.69 222.296C101.836 222.296 101.143 222.472 100.61 222.824C100.087 223.165 99.767 223.645 99.6496 224.264H105.618C105.522 223.645 105.218 223.165 104.706 222.824C104.194 222.472 103.522 222.296 102.69 222.296ZM110.832 221.08V227.128L116.64 221.08H118.048V229H116.576V222.952L110.768 229H109.36V221.08H110.832ZM113.712 219.976C112.603 219.976 111.76 219.789 111.184 219.416C110.608 219.043 110.32 218.499 110.32 217.784V217.672H111.728V217.784C111.728 218.072 111.899 218.296 112.24 218.456C112.581 218.605 113.072 218.68 113.712 218.68C114.331 218.68 114.8 218.605 115.12 218.456C115.451 218.296 115.616 218.072 115.616 217.784V217.672H117.104V217.784C117.104 218.509 116.816 219.059 116.24 219.432C115.675 219.795 114.832 219.976 113.712 219.976ZM124.878 229.192C123.929 229.192 123.097 229.032 122.382 228.712C121.668 228.381 121.118 227.917 120.734 227.32C120.35 226.712 120.158 226.008 120.158 225.208V224.92C120.158 224.099 120.35 223.384 120.734 222.776C121.118 222.168 121.662 221.704 122.366 221.384C123.081 221.053 123.918 220.888 124.878 220.888C125.742 220.888 126.521 221.037 127.214 221.336C127.908 221.624 128.446 222.029 128.83 222.552C129.225 223.064 129.422 223.645 129.422 224.296V224.36H127.838V224.296C127.838 223.912 127.71 223.571 127.454 223.272C127.209 222.963 126.857 222.723 126.398 222.552C125.95 222.381 125.444 222.296 124.878 222.296C123.897 222.296 123.129 222.531 122.574 223C122.02 223.459 121.742 224.104 121.742 224.936V225.192C121.742 226.003 122.02 226.637 122.574 227.096C123.129 227.555 123.897 227.784 124.878 227.784C125.454 227.784 125.966 227.699 126.414 227.528C126.862 227.357 127.209 227.123 127.454 226.824C127.71 226.525 127.838 226.184 127.838 225.8V225.736H129.422V225.8C129.422 226.461 129.23 227.048 128.846 227.56C128.462 228.072 127.924 228.472 127.23 228.76C126.548 229.048 125.764 229.192 124.878 229.192ZM130.02 222.456V221.08H139.332V222.456H135.476V229H133.94V222.456H130.02ZM148.651 224.984C149.089 225.123 149.419 225.336 149.643 225.624C149.878 225.901 149.995 226.243 149.995 226.648V226.808C149.995 227.501 149.723 228.04 149.179 228.424C148.646 228.808 147.889 229 146.907 229H140.891V221.08H146.699C147.681 221.08 148.438 221.267 148.971 221.64C149.515 222.003 149.787 222.525 149.787 223.208V223.368C149.787 224.104 149.409 224.643 148.651 224.984ZM142.427 222.264V224.408H146.635C147.137 224.408 147.521 224.323 147.787 224.152C148.065 223.971 148.203 223.715 148.203 223.384V223.224C148.203 222.915 148.07 222.68 147.803 222.52C147.537 222.349 147.147 222.264 146.635 222.264H142.427ZM148.411 226.616C148.411 226.296 148.278 226.051 148.011 225.88C147.745 225.709 147.361 225.624 146.859 225.624H142.427V227.8H146.859C147.361 227.8 147.745 227.715 148.011 227.544C148.278 227.363 148.411 227.107 148.411 226.776V226.616ZM153.723 221.08V227.128L159.531 221.08H160.939V229H159.467V222.952L153.659 229H152.251V221.08H153.723ZM172.158 228.984H170.622V226.392H168.254L165.086 229H163.102V228.808L166.046 226.392C165.097 226.349 164.361 226.109 163.838 225.672C163.315 225.224 163.054 224.616 163.054 223.848V223.672C163.054 222.851 163.337 222.216 163.902 221.768C164.478 221.309 165.278 221.08 166.302 221.08H172.158V228.984ZM170.622 225.08V222.424H166.414C165.23 222.424 164.638 222.84 164.638 223.672V223.848C164.638 224.669 165.23 225.08 166.414 225.08H170.622Z" fill="white" fill-opacity="0.6"/>
<path d="M46.128 248.256V250.392H34.608V254.808H41.64C43.448 254.808 44.848 255.2 45.84 255.984C46.848 256.752 47.352 257.84 47.352 259.248V259.56C47.352 260.952 46.848 262.04 45.84 262.824C44.832 263.608 43.432 264 41.64 264H32.208V248.256H46.128ZM41.616 261.864C42.64 261.864 43.448 261.656 44.04 261.24C44.648 260.824 44.952 260.264 44.952 259.56V259.248C44.952 258.528 44.656 257.968 44.064 257.568C43.472 257.152 42.656 256.944 41.616 256.944H34.608V261.864H41.616ZM63.8198 258.816H52.3717C52.4518 259.856 52.8998 260.68 53.7158 261.288C54.5318 261.88 55.6198 262.176 56.9798 262.176C58.2438 262.176 59.2678 261.968 60.0518 261.552C60.8518 261.12 61.2838 260.552 61.3478 259.848H63.8198C63.6918 261.24 63.0198 262.328 61.8038 263.112C60.6038 263.896 58.9958 264.288 56.9798 264.288C55.5558 264.288 54.3158 264.048 53.2598 263.568C52.2038 263.072 51.3878 262.376 50.8118 261.48C50.2518 260.584 49.9718 259.536 49.9718 258.336V257.832C49.9718 256.616 50.2518 255.56 50.8118 254.664C51.3878 253.752 52.2038 253.056 53.2598 252.576C54.3158 252.08 55.5558 251.832 56.9798 251.832C59.1078 251.832 60.7798 252.36 61.9958 253.416C63.2118 254.456 63.8198 255.896 63.8198 257.736V258.816ZM56.9798 253.944C55.6998 253.944 54.6598 254.208 53.8598 254.736C53.0758 255.248 52.5958 255.968 52.4198 256.896H61.3718C61.2278 255.968 60.7718 255.248 60.0038 254.736C59.2358 254.208 58.2278 253.944 56.9798 253.944ZM77.9533 257.952C78.6093 258.224 79.1133 258.584 79.4653 259.032C79.8333 259.464 80.0173 259.952 80.0173 260.496V260.664C80.0173 261.848 79.4493 262.752 78.3133 263.376C77.1773 263.984 75.5133 264.288 73.3213 264.288C68.5853 264.288 66.2173 262.64 66.2173 259.344V259.176H68.4973V259.344C68.4973 260.336 68.8893 261.072 69.6733 261.552C70.4733 262.016 71.7053 262.248 73.3693 262.248C76.2173 262.248 77.6413 261.688 77.6413 260.568V260.4C77.6413 259.488 76.7853 259.032 75.0733 259.032H71.0893V257.016H74.8093C76.4893 257.016 77.3293 256.544 77.3293 255.6V255.432C77.3293 254.92 76.9693 254.536 76.2493 254.28C75.5453 254.008 74.4973 253.872 73.1053 253.872C71.5053 253.872 70.3373 254.104 69.6013 254.568C68.8653 255.032 68.4973 255.776 68.4973 256.8V256.968H66.2173V256.8C66.2173 255.168 66.8093 253.936 67.9933 253.104C69.1773 252.256 70.9213 251.832 73.2253 251.832C75.3053 251.832 76.8973 252.144 78.0013 252.768C79.1213 253.376 79.6813 254.248 79.6813 255.384V255.552C79.6813 256.048 79.5293 256.504 79.2253 256.92C78.9213 257.32 78.4973 257.664 77.9533 257.952ZM101.617 264.288C99.7769 264.288 98.1689 263.968 96.7929 263.328C95.4169 262.672 94.3529 261.744 93.6009 260.544C92.8649 259.344 92.4969 257.944 92.4969 256.344V255.936C92.4969 254.336 92.8649 252.936 93.6009 251.736C94.3529 250.536 95.4169 249.608 96.7929 248.952C98.1689 248.296 99.7769 247.968 101.617 247.968C103.281 247.968 104.777 248.248 106.105 248.808C107.449 249.368 108.497 250.144 109.249 251.136C110.017 252.112 110.401 253.208 110.401 254.424V254.64H107.977V254.424C107.977 253.624 107.705 252.904 107.161 252.264C106.617 251.624 105.857 251.12 104.881 250.752C103.921 250.384 102.833 250.2 101.617 250.2C99.4729 250.2 97.8169 250.696 96.6489 251.688C95.4969 252.68 94.9209 254.088 94.9209 255.912V256.368C94.9209 258.192 95.4969 259.6 96.6489 260.592C97.8169 261.568 99.4729 262.056 101.617 262.056C102.849 262.056 103.945 261.88 104.905 261.528C105.881 261.16 106.633 260.656 107.161 260.016C107.705 259.376 107.977 258.656 107.977 257.856V257.616H110.401V257.856C110.401 259.072 110.017 260.168 109.249 261.144C108.497 262.12 107.449 262.888 106.105 263.448C104.777 264.008 103.281 264.288 101.617 264.288ZM120.77 251.832C122.194 251.832 123.442 252.08 124.514 252.576C125.586 253.072 126.41 253.776 126.986 254.688C127.562 255.584 127.85 256.64 127.85 257.856V258.24C127.85 259.456 127.562 260.52 126.986 261.432C126.41 262.344 125.586 263.048 124.514 263.544C123.442 264.04 122.194 264.288 120.77 264.288C119.89 264.288 119.066 264.152 118.298 263.88C117.53 263.608 116.858 263.216 116.282 262.704V268.08H113.978V252.12H116.114L116.21 253.488C116.802 252.96 117.49 252.552 118.273 252.264C119.058 251.976 119.89 251.832 120.77 251.832ZM125.474 257.856C125.474 256.64 125.05 255.688 124.202 255C123.37 254.296 122.218 253.944 120.746 253.944C119.802 253.944 118.93 254.112 118.13 254.448C117.346 254.784 116.73 255.24 116.282 255.816V260.28C116.73 260.856 117.346 261.32 118.13 261.672C118.93 262.008 119.802 262.176 120.746 262.176C122.218 262.176 123.37 261.824 124.202 261.12C125.05 260.416 125.474 259.456 125.474 258.24V257.856ZM137.233 264.288C135.777 264.288 134.513 264.048 133.441 263.568C132.369 263.072 131.545 262.376 130.969 261.48C130.393 260.568 130.105 259.504 130.105 258.288V257.88C130.105 256.648 130.393 255.576 130.969 254.664C131.545 253.752 132.369 253.056 133.441 252.576C134.513 252.08 135.777 251.832 137.233 251.832C138.673 251.832 139.921 252.08 140.977 252.576C142.049 253.056 142.865 253.752 143.425 254.664C144.001 255.576 144.289 256.648 144.289 257.88V258.288C144.289 259.504 144.001 260.568 143.425 261.48C142.865 262.376 142.049 263.072 140.977 263.568C139.921 264.048 138.673 264.288 137.233 264.288ZM137.209 262.176C138.681 262.176 139.833 261.832 140.665 261.144C141.497 260.456 141.913 259.504 141.913 258.288V257.88C141.913 256.648 141.497 255.688 140.665 255C139.833 254.296 138.681 253.944 137.209 253.944C135.705 253.944 134.537 254.288 133.705 254.976C132.889 255.664 132.481 256.632 132.481 257.88V258.288C132.481 259.504 132.897 260.456 133.729 261.144C134.577 261.832 135.737 262.176 137.209 262.176ZM161.102 263.664V264H158.486L153.254 259.008H149.75V264H147.446V252.12H149.75V256.992H153.182L158.126 252.12H160.79V252.456L155.294 257.952L161.102 263.664ZM178.244 261.96V264H176.66C175.876 264 175.22 263.848 174.692 263.544C174.164 263.24 173.796 262.808 173.588 262.248C172.948 262.936 172.18 263.448 171.284 263.784C170.388 264.12 169.332 264.288 168.116 264.288C166.404 264.288 165.084 263.992 164.156 263.4C163.228 262.792 162.764 261.928 162.764 260.808C162.764 259.848 163.124 259.08 163.844 258.504C164.564 257.928 165.62 257.568 167.012 257.424L173.42 256.752C173.372 255.856 172.996 255.176 172.292 254.712C171.588 254.248 170.58 254.016 169.268 254.016C168.004 254.016 166.996 254.232 166.244 254.664C165.492 255.096 165.116 255.672 165.116 256.392V256.488H162.836V256.392C162.836 255.496 163.1 254.704 163.628 254.016C164.172 253.312 164.932 252.776 165.908 252.408C166.884 252.024 168.012 251.832 169.292 251.832C171.324 251.832 172.9 252.28 174.02 253.176C175.14 254.072 175.7 255.328 175.7 256.944V260.64C175.7 261.056 175.828 261.384 176.084 261.624C176.34 261.848 176.708 261.96 177.188 261.96H178.244ZM168.068 262.248C169.364 262.248 170.476 262.048 171.404 261.648C172.332 261.232 173.004 260.648 173.42 259.896V258.624L167.516 259.248C166.684 259.328 166.06 259.496 165.644 259.752C165.244 260.008 165.044 260.36 165.044 260.808C165.044 261.768 166.052 262.248 168.068 262.248Z" fill="white"/>
<defs>
<linearGradient id="paint0_linear_1_59" x1="320" y1="0" x2="640" y2="366" gradientUnits="userSpaceOnUse">
<stop offset="0.294343" stop-color="#FFC929"/>
<stop offset="0.932158" stop-color="#FFBF01"/>
</linearGradient>
</defs>
</svg>
