<svg width="640" height="366" viewBox="0 0 640 366" fill="none" xmlns="http://www.w3.org/2000/svg">
<rect width="640" height="366" fill="#222123"/>
<path d="M320 30C320 13.4315 333.431 0 350 0H640V366H350C333.431 366 320 352.569 320 336V30Z" fill="url(#paint0_linear_1_44)"/>
<path d="M37.936 38.504C39.1093 38.504 40.0373 38.7867 40.72 39.352C41.4027 39.9067 41.744 40.6587 41.744 41.608V41.8C41.744 42.7493 41.4027 43.5067 40.72 44.072C40.0373 44.6267 39.1093 44.904 37.936 44.904H33.072V49H31.472V38.504H37.936ZM37.904 43.48C38.608 43.48 39.152 43.336 39.536 43.048C39.9307 42.7493 40.128 42.3333 40.128 41.8V41.608C40.128 41.0747 39.9307 40.664 39.536 40.376C39.152 40.0773 38.608 39.928 37.904 39.928H33.072V43.48H37.904ZM53.6729 47.64V49H52.6169C52.0942 49 51.6569 48.8987 51.3049 48.696C50.9529 48.4933 50.7075 48.2053 50.5689 47.832C50.1422 48.2907 49.6302 48.632 49.0329 48.856C48.4355 49.08 47.7315 49.192 46.9209 49.192C45.7795 49.192 44.8995 48.9947 44.2809 48.6C43.6622 48.1947 43.3529 47.6187 43.3529 46.872C43.3529 46.232 43.5929 45.72 44.0729 45.336C44.5529 44.952 45.2569 44.712 46.1849 44.616L50.4569 44.168C50.4249 43.5707 50.1742 43.1173 49.7049 42.808C49.2355 42.4987 48.5635 42.344 47.6889 42.344C46.8462 42.344 46.1742 42.488 45.6729 42.776C45.1715 43.064 44.9209 43.448 44.9209 43.928V43.992H43.4009V43.928C43.4009 43.3307 43.5769 42.8027 43.9289 42.344C44.2915 41.8747 44.7982 41.5173 45.4489 41.272C46.0995 41.016 46.8515 40.888 47.7049 40.888C49.0595 40.888 50.1102 41.1867 50.8569 41.784C51.6035 42.3813 51.9769 43.2187 51.9769 44.296V46.76C51.9769 47.0373 52.0622 47.256 52.2329 47.416C52.4035 47.5653 52.6489 47.64 52.9689 47.64H53.6729ZM46.8889 47.832C47.7529 47.832 48.4942 47.6987 49.1129 47.432C49.7315 47.1547 50.1795 46.7653 50.4569 46.264V45.416L46.5209 45.832C45.9662 45.8853 45.5502 45.9973 45.2729 46.168C45.0062 46.3387 44.8729 46.5733 44.8729 46.872C44.8729 47.512 45.5449 47.832 46.8889 47.832ZM62.422 44.968C62.8593 45.1493 63.1953 45.3893 63.43 45.688C63.6753 45.976 63.798 46.3013 63.798 46.664V46.776C63.798 47.5653 63.4193 48.168 62.662 48.584C61.9047 48.9893 60.7953 49.192 59.334 49.192C56.1767 49.192 54.598 48.0933 54.598 45.896V45.784H56.118V45.896C56.118 46.5573 56.3793 47.048 56.902 47.368C57.4353 47.6773 58.2567 47.832 59.366 47.832C61.2647 47.832 62.214 47.4587 62.214 46.712V46.6C62.214 45.992 61.6433 45.688 60.502 45.688H57.846V44.344H60.326C61.446 44.344 62.006 44.0293 62.006 43.4V43.288C62.006 42.9467 61.766 42.6907 61.286 42.52C60.8167 42.3387 60.118 42.248 59.19 42.248C58.1233 42.248 57.3447 42.4027 56.854 42.712C56.3633 43.0213 56.118 43.5173 56.118 44.2V44.312H54.598V44.2C54.598 43.112 54.9927 42.2907 55.782 41.736C56.5713 41.1707 57.734 40.888 59.27 40.888C60.6567 40.888 61.718 41.096 62.454 41.512C63.2007 41.9173 63.574 42.4987 63.574 43.256V43.368C63.574 43.6987 63.4727 44.0027 63.27 44.28C63.0673 44.5467 62.7847 44.776 62.422 44.968ZM77.9355 41.08V49H76.4635V42.664L76.0955 43.32L72.6715 49H71.3115L67.8875 43.32L67.5195 42.664V49H66.0475V41.08H68.2235L71.9995 47.4L75.7595 41.08H77.9355ZM89.2809 45.544H81.6489C81.7022 46.2373 82.0009 46.7867 82.5449 47.192C83.0889 47.5867 83.8142 47.784 84.7209 47.784C85.5635 47.784 86.2462 47.6453 86.7689 47.368C87.3022 47.08 87.5902 46.7013 87.6329 46.232H89.2809C89.1955 47.16 88.7475 47.8853 87.9369 48.408C87.1369 48.9307 86.0649 49.192 84.7209 49.192C83.7715 49.192 82.9449 49.032 82.2409 48.712C81.5369 48.3813 80.9929 47.9173 80.6089 47.32C80.2355 46.7227 80.0489 46.024 80.0489 45.224V44.888C80.0489 44.0773 80.2355 43.3733 80.6089 42.776C80.9929 42.168 81.5369 41.704 82.2409 41.384C82.9449 41.0533 83.7715 40.888 84.7209 40.888C86.1395 40.888 87.2542 41.24 88.0649 41.944C88.8755 42.6373 89.2809 43.5973 89.2809 44.824V45.544ZM84.7209 42.296C83.8675 42.296 83.1742 42.472 82.6409 42.824C82.1182 43.1653 81.7982 43.6453 81.6809 44.264H87.6489C87.5529 43.6453 87.2489 43.1653 86.7369 42.824C86.2249 42.472 85.5529 42.296 84.7209 42.296ZM95.9193 40.888C96.8686 40.888 97.7006 41.0533 98.4153 41.384C99.1299 41.7147 99.6793 42.184 100.063 42.792C100.447 43.3893 100.639 44.0933 100.639 44.904V45.16C100.639 45.9707 100.447 46.68 100.063 47.288C99.6793 47.896 99.1299 48.3653 98.4153 48.696C97.7006 49.0267 96.8686 49.192 95.9193 49.192C95.3326 49.192 94.7833 49.1013 94.2713 48.92C93.7593 48.7387 93.3113 48.4773 92.9273 48.136V51.72H91.3913V41.08H92.8153L92.8793 41.992C93.2739 41.64 93.7326 41.368 94.2552 41.176C94.7779 40.984 95.3326 40.888 95.9193 40.888ZM99.0553 44.904C99.0553 44.0933 98.7726 43.4587 98.2073 43C97.6526 42.5307 96.8846 42.296 95.9033 42.296C95.2739 42.296 94.6926 42.408 94.1593 42.632C93.6366 42.856 93.2259 43.16 92.9273 43.544V46.52C93.2259 46.904 93.6366 47.2133 94.1593 47.448C94.6926 47.672 95.2739 47.784 95.9033 47.784C96.8846 47.784 97.6526 47.5493 98.2073 47.08C98.7726 46.6107 99.0553 45.9707 99.0553 45.16V44.904ZM121.029 47.576V51.128H119.429V49H109.765V51.128H108.181V47.576H109.541C110.17 46.6053 110.501 45.384 110.533 43.912L110.629 38.504H119.381V47.576H121.029ZM112.005 43.96C111.973 45.432 111.685 46.6373 111.141 47.576H117.797V39.928H112.101L112.005 43.96ZM131.359 45.544H123.727C123.78 46.2373 124.079 46.7867 124.623 47.192C125.167 47.5867 125.892 47.784 126.799 47.784C127.642 47.784 128.324 47.6453 128.847 47.368C129.38 47.08 129.668 46.7013 129.711 46.232H131.359C131.274 47.16 130.826 47.8853 130.015 48.408C129.215 48.9307 128.143 49.192 126.799 49.192C125.85 49.192 125.023 49.032 124.319 48.712C123.615 48.3813 123.071 47.9173 122.687 47.32C122.314 46.7227 122.127 46.024 122.127 45.224V44.888C122.127 44.0773 122.314 43.3733 122.687 42.776C123.071 42.168 123.615 41.704 124.319 41.384C125.023 41.0533 125.85 40.888 126.799 40.888C128.218 40.888 129.332 41.24 130.143 41.944C130.954 42.6373 131.359 43.5973 131.359 44.824V45.544ZM126.799 42.296C125.946 42.296 125.252 42.472 124.719 42.824C124.196 43.1653 123.876 43.6453 123.759 44.264H129.727C129.631 43.6453 129.327 43.1653 128.815 42.824C128.303 42.472 127.631 42.296 126.799 42.296ZM142.077 41.08V49H140.541V42.424H135.005V49H133.469V41.08H142.077ZM148.942 49.192C147.971 49.192 147.128 49.032 146.414 48.712C145.699 48.3813 145.15 47.9173 144.766 47.32C144.382 46.712 144.19 46.0027 144.19 45.192V44.92C144.19 44.0987 144.382 43.384 144.766 42.776C145.15 42.168 145.699 41.704 146.414 41.384C147.128 41.0533 147.971 40.888 148.942 40.888C149.902 40.888 150.734 41.0533 151.438 41.384C152.152 41.704 152.696 42.168 153.07 42.776C153.454 43.384 153.646 44.0987 153.646 44.92V45.192C153.646 46.0027 153.454 46.712 153.07 47.32C152.696 47.9173 152.152 48.3813 151.438 48.712C150.734 49.032 149.902 49.192 148.942 49.192ZM148.926 47.784C149.907 47.784 150.675 47.5547 151.23 47.096C151.784 46.6373 152.062 46.0027 152.062 45.192V44.92C152.062 44.0987 151.784 43.4587 151.23 43C150.675 42.5307 149.907 42.296 148.926 42.296C147.923 42.296 147.144 42.5253 146.59 42.984C146.046 43.4427 145.774 44.088 145.774 44.92V45.192C145.774 46.0027 146.051 46.6373 146.606 47.096C147.171 47.5547 147.944 47.784 148.926 47.784ZM163.063 44.968C163.5 45.1493 163.836 45.3893 164.071 45.688C164.316 45.976 164.439 46.3013 164.439 46.664V46.776C164.439 47.5653 164.06 48.168 163.303 48.584C162.545 48.9893 161.436 49.192 159.975 49.192C156.817 49.192 155.239 48.0933 155.239 45.896V45.784H156.759V45.896C156.759 46.5573 157.02 47.048 157.543 47.368C158.076 47.6773 158.897 47.832 160.007 47.832C161.905 47.832 162.855 47.4587 162.855 46.712V46.6C162.855 45.992 162.284 45.688 161.143 45.688H158.487V44.344H160.967C162.087 44.344 162.647 44.0293 162.647 43.4V43.288C162.647 42.9467 162.407 42.6907 161.927 42.52C161.457 42.3387 160.759 42.248 159.831 42.248C158.764 42.248 157.985 42.4027 157.495 42.712C157.004 43.0213 156.759 43.5173 156.759 44.2V44.312H155.239V44.2C155.239 43.112 155.633 42.2907 156.423 41.736C157.212 41.1707 158.375 40.888 159.911 40.888C161.297 40.888 162.359 41.096 163.095 41.512C163.841 41.9173 164.215 42.4987 164.215 43.256V43.368C164.215 43.6987 164.113 44.0027 163.911 44.28C163.708 44.5467 163.425 44.776 163.063 44.968ZM168.16 41.08V47.128L173.968 41.08H175.376V49H173.904V42.952L168.096 49H166.688V41.08H168.16ZM176.458 42.456V41.08H185.77V42.456H181.914V49H180.378V42.456H176.458ZM197.048 47.64V49H195.992C195.469 49 195.032 48.8987 194.68 48.696C194.328 48.4933 194.083 48.2053 193.944 47.832C193.517 48.2907 193.005 48.632 192.408 48.856C191.811 49.08 191.107 49.192 190.296 49.192C189.155 49.192 188.275 48.9947 187.656 48.6C187.037 48.1947 186.728 47.6187 186.728 46.872C186.728 46.232 186.968 45.72 187.448 45.336C187.928 44.952 188.632 44.712 189.56 44.616L193.832 44.168C193.8 43.5707 193.549 43.1173 193.08 42.808C192.611 42.4987 191.939 42.344 191.064 42.344C190.221 42.344 189.549 42.488 189.048 42.776C188.547 43.064 188.296 43.448 188.296 43.928V43.992H186.776V43.928C186.776 43.3307 186.952 42.8027 187.304 42.344C187.667 41.8747 188.173 41.5173 188.824 41.272C189.475 41.016 190.227 40.888 191.08 40.888C192.435 40.888 193.485 41.1867 194.232 41.784C194.979 42.3813 195.352 43.2187 195.352 44.296V46.76C195.352 47.0373 195.437 47.256 195.608 47.416C195.779 47.5653 196.024 47.64 196.344 47.64H197.048ZM190.264 47.832C191.128 47.832 191.869 47.6987 192.488 47.432C193.107 47.1547 193.555 46.7653 193.832 46.264V45.416L189.896 45.832C189.341 45.8853 188.925 45.9973 188.648 46.168C188.381 46.3387 188.248 46.5733 188.248 46.872C188.248 47.512 188.92 47.832 190.264 47.832Z" fill="white" fill-opacity="0.6"/>
<path d="M39.096 84H36.744V71.808C35.976 72.24 34.976 72.456 33.744 72.456H31.032V70.224H33.552C34.64 70.224 35.44 70.064 35.952 69.744C36.48 69.424 36.744 68.928 36.744 68.256H39.096V84ZM61.8947 84.288C60.2947 84.288 58.8787 84 57.6467 83.424C56.4307 82.848 55.4787 82.04 54.7907 81C54.1187 79.96 53.7827 78.768 53.7827 77.424V74.856C53.7827 73.496 54.1187 72.296 54.7907 71.256C55.4787 70.216 56.4307 69.408 57.6467 68.832C58.8787 68.256 60.2947 67.968 61.8947 67.968C63.4787 67.968 64.8787 68.256 66.0947 68.832C67.3107 69.408 68.2547 70.216 68.9267 71.256C69.5987 72.296 69.9347 73.496 69.9347 74.856V77.424C69.9347 78.784 69.5987 79.984 68.9267 81.024C68.2547 82.048 67.3107 82.848 66.0947 83.424C64.8787 84 63.4787 84.288 61.8947 84.288ZM61.8947 82.056C63.6547 82.056 65.0387 81.648 66.0467 80.832C67.0547 80.016 67.5587 78.888 67.5587 77.448V74.832C67.5587 73.408 67.0467 72.28 66.0227 71.448C65.0147 70.616 63.6307 70.2 61.8707 70.2C60.0947 70.2 58.6947 70.616 57.6707 71.448C56.6627 72.264 56.1587 73.392 56.1587 74.832V77.448C56.1587 78.888 56.6627 80.016 57.6707 80.832C58.6947 81.648 60.1027 82.056 61.8947 82.056ZM81.5119 84.288C79.9119 84.288 78.4959 84 77.2639 83.424C76.0479 82.848 75.0959 82.04 74.4079 81C73.7359 79.96 73.3999 78.768 73.3999 77.424V74.856C73.3999 73.496 73.7359 72.296 74.4079 71.256C75.0959 70.216 76.0479 69.408 77.2639 68.832C78.4959 68.256 79.9119 67.968 81.5119 67.968C83.0959 67.968 84.4959 68.256 85.7119 68.832C86.9279 69.408 87.8719 70.216 88.5439 71.256C89.2159 72.296 89.5519 73.496 89.5519 74.856V77.424C89.5519 78.784 89.2159 79.984 88.5439 81.024C87.8719 82.048 86.9279 82.848 85.7119 83.424C84.4959 84 83.0959 84.288 81.5119 84.288ZM81.5119 82.056C83.2719 82.056 84.6559 81.648 85.6639 80.832C86.6719 80.016 87.1759 78.888 87.1759 77.448V74.832C87.1759 73.408 86.6639 72.28 85.6399 71.448C84.6319 70.616 83.2479 70.2 81.4879 70.2C79.7119 70.2 78.3119 70.616 77.2879 71.448C76.2799 72.264 75.7759 73.392 75.7759 74.832V77.448C75.7759 78.888 76.2799 80.016 77.2879 80.832C78.3119 81.648 79.7199 82.056 81.5119 82.056ZM101.129 84.288C99.5291 84.288 98.1131 84 96.8811 83.424C95.6651 82.848 94.7131 82.04 94.0251 81C93.3531 79.96 93.0171 78.768 93.0171 77.424V74.856C93.0171 73.496 93.3531 72.296 94.0251 71.256C94.7131 70.216 95.6651 69.408 96.8811 68.832C98.1131 68.256 99.5291 67.968 101.129 67.968C102.713 67.968 104.113 68.256 105.329 68.832C106.545 69.408 107.489 70.216 108.161 71.256C108.833 72.296 109.169 73.496 109.169 74.856V77.424C109.169 78.784 108.833 79.984 108.161 81.024C107.489 82.048 106.545 82.848 105.329 83.424C104.113 84 102.713 84.288 101.129 84.288ZM101.129 82.056C102.889 82.056 104.273 81.648 105.281 80.832C106.289 80.016 106.793 78.888 106.793 77.448V74.832C106.793 73.408 106.281 72.28 105.257 71.448C104.249 70.616 102.865 70.2 101.105 70.2C99.3291 70.2 97.9291 70.616 96.9051 71.448C95.8971 72.264 95.3931 73.392 95.3931 74.832V77.448C95.3931 78.888 95.8971 80.016 96.9051 80.832C97.9291 81.648 99.3371 82.056 101.129 82.056ZM130.356 84.288C128.756 84.288 127.34 84 126.108 83.424C124.892 82.848 123.94 82.04 123.252 81C122.58 79.96 122.244 78.768 122.244 77.424V74.856C122.244 73.496 122.58 72.296 123.252 71.256C123.94 70.216 124.892 69.408 126.108 68.832C127.34 68.256 128.756 67.968 130.356 67.968C131.94 67.968 133.34 68.256 134.556 68.832C135.772 69.408 136.716 70.216 137.388 71.256C138.06 72.296 138.396 73.496 138.396 74.856V77.424C138.396 78.784 138.06 79.984 137.388 81.024C136.716 82.048 135.772 82.848 134.556 83.424C133.34 84 131.94 84.288 130.356 84.288ZM130.356 82.056C132.116 82.056 133.5 81.648 134.508 80.832C135.516 80.016 136.02 78.888 136.02 77.448V74.832C136.02 73.408 135.508 72.28 134.484 71.448C133.476 70.616 132.092 70.2 130.332 70.2C128.556 70.2 127.156 70.616 126.132 71.448C125.124 72.264 124.62 73.392 124.62 74.832V77.448C124.62 78.888 125.124 80.016 126.132 80.832C127.156 81.648 128.564 82.056 130.356 82.056ZM149.973 84.288C148.373 84.288 146.957 84 145.725 83.424C144.509 82.848 143.557 82.04 142.869 81C142.197 79.96 141.861 78.768 141.861 77.424V74.856C141.861 73.496 142.197 72.296 142.869 71.256C143.557 70.216 144.509 69.408 145.725 68.832C146.957 68.256 148.373 67.968 149.973 67.968C151.557 67.968 152.957 68.256 154.173 68.832C155.389 69.408 156.333 70.216 157.005 71.256C157.677 72.296 158.013 73.496 158.013 74.856V77.424C158.013 78.784 157.677 79.984 157.005 81.024C156.333 82.048 155.389 82.848 154.173 83.424C152.957 84 151.557 84.288 149.973 84.288ZM149.973 82.056C151.733 82.056 153.117 81.648 154.125 80.832C155.133 80.016 155.637 78.888 155.637 77.448V74.832C155.637 73.408 155.125 72.28 154.101 71.448C153.093 70.616 151.709 70.2 149.949 70.2C148.173 70.2 146.773 70.616 145.749 71.448C144.741 72.264 144.237 73.392 144.237 74.832V77.448C144.237 78.888 144.741 80.016 145.749 80.832C146.773 81.648 148.181 82.056 149.973 82.056ZM169.59 84.288C167.99 84.288 166.574 84 165.342 83.424C164.126 82.848 163.174 82.04 162.486 81C161.814 79.96 161.478 78.768 161.478 77.424V74.856C161.478 73.496 161.814 72.296 162.486 71.256C163.174 70.216 164.126 69.408 165.342 68.832C166.574 68.256 167.99 67.968 169.59 67.968C171.174 67.968 172.574 68.256 173.79 68.832C175.006 69.408 175.95 70.216 176.622 71.256C177.294 72.296 177.63 73.496 177.63 74.856V77.424C177.63 78.784 177.294 79.984 176.622 81.024C175.95 82.048 175.006 82.848 173.79 83.424C172.574 84 171.174 84.288 169.59 84.288ZM169.59 82.056C171.35 82.056 172.734 81.648 173.742 80.832C174.75 80.016 175.254 78.888 175.254 77.448V74.832C175.254 73.408 174.742 72.28 173.718 71.448C172.71 70.616 171.326 70.2 169.566 70.2C167.79 70.2 166.39 70.616 165.366 71.448C164.358 72.264 163.854 73.392 163.854 74.832V77.448C163.854 78.888 164.358 80.016 165.366 80.832C166.39 81.648 167.798 82.056 169.59 82.056ZM200.881 68.256C202.641 68.256 204.033 68.68 205.057 69.528C206.081 70.36 206.593 71.488 206.593 72.912V73.2C206.593 74.624 206.081 75.76 205.057 76.608C204.033 77.44 202.641 77.856 200.881 77.856H193.585V84H191.185V68.256H200.881ZM200.833 75.72C201.889 75.72 202.705 75.504 203.281 75.072C203.873 74.624 204.169 74 204.169 73.2V72.912C204.169 72.112 203.873 71.496 203.281 71.064C202.705 70.616 201.889 70.392 200.833 70.392H193.585V75.72H200.833ZM223.707 72.12V72.456L216.939 85.32C216.411 86.312 215.795 87.016 215.091 87.432C214.403 87.864 213.459 88.08 212.259 88.08H209.859V86.04H212.259C212.931 86.04 213.435 85.936 213.771 85.728C214.107 85.536 214.427 85.144 214.731 84.552L214.947 84.168L208.755 72.456V72.12H211.203L216.243 81.912L221.259 72.12H223.707ZM233.794 72.696C235.106 72.696 236.258 72.928 237.25 73.392C238.242 73.84 239.01 74.488 239.554 75.336C240.098 76.168 240.37 77.136 240.37 78.24V78.816C240.37 79.904 240.074 80.864 239.482 81.696C238.906 82.512 238.09 83.152 237.034 83.616C235.978 84.064 234.746 84.288 233.338 84.288C231.018 84.288 229.234 83.68 227.986 82.464C226.738 81.232 226.114 79.48 226.114 77.208V75.576C226.114 73.336 226.698 71.624 227.866 70.44C229.034 69.24 230.802 68.552 233.17 68.376L236.314 68.136C236.618 68.12 236.834 68.064 236.962 67.968C237.106 67.856 237.178 67.704 237.178 67.512V67.296H239.65V67.584C239.65 68.384 239.418 69.008 238.954 69.456C238.506 69.888 237.818 70.136 236.89 70.2L233.218 70.488C231.554 70.616 230.322 71.016 229.522 71.688C228.738 72.36 228.338 73.336 228.322 74.616C228.978 74.008 229.778 73.536 230.722 73.2C231.666 72.864 232.69 72.696 233.794 72.696ZM237.994 78.288C237.994 77.2 237.578 76.344 236.746 75.72C235.914 75.096 234.762 74.784 233.29 74.784C231.178 74.784 229.554 75.464 228.418 76.824V77.784C228.418 79.24 228.826 80.344 229.642 81.096C230.474 81.832 231.69 82.2 233.29 82.2C234.746 82.2 235.89 81.896 236.722 81.288C237.57 80.68 237.994 79.848 237.994 78.792V78.288ZM244.805 84.288C244.373 84.288 244.021 84.152 243.749 83.88C243.477 83.608 243.341 83.264 243.341 82.848C243.341 82.432 243.477 82.088 243.749 81.816C244.021 81.544 244.373 81.408 244.805 81.408C245.237 81.408 245.589 81.544 245.861 81.816C246.133 82.088 246.269 82.432 246.269 82.848C246.269 83.264 246.133 83.608 245.861 83.88C245.589 84.152 245.237 84.288 244.805 84.288Z" fill="white"/>
<path d="M37.104 139.192C35.8773 139.192 34.8053 138.979 33.888 138.552C32.9707 138.115 32.2613 137.496 31.76 136.696C31.2693 135.896 31.024 134.963 31.024 133.896V133.624C31.024 132.557 31.2693 131.624 31.76 130.824C32.2613 130.024 32.9707 129.405 33.888 128.968C34.8053 128.531 35.8773 128.312 37.104 128.312C38.2133 128.312 39.2107 128.499 40.096 128.872C40.992 129.245 41.6907 129.763 42.192 130.424C42.704 131.075 42.96 131.805 42.96 132.616V132.76H41.344V132.616C41.344 132.083 41.1627 131.603 40.8 131.176C40.4373 130.749 39.9307 130.413 39.28 130.168C38.64 129.923 37.9147 129.8 37.104 129.8C35.6747 129.8 34.5707 130.131 33.792 130.792C33.024 131.453 32.64 132.392 32.64 133.608V133.912C32.64 135.128 33.024 136.067 33.792 136.728C34.5707 137.379 35.6747 137.704 37.104 137.704C37.9253 137.704 38.656 137.587 39.296 137.352C39.9467 137.107 40.448 136.771 40.8 136.344C41.1627 135.917 41.344 135.437 41.344 134.904V134.744H42.96V134.904C42.96 135.715 42.704 136.445 42.192 137.096C41.6907 137.747 40.992 138.259 40.096 138.632C39.2107 139.005 38.2133 139.192 37.104 139.192ZM54.4484 138.776V139H52.7044L49.2164 135.672H46.8804V139H45.3444V131.08H46.8804V134.328H49.1684L52.4644 131.08H54.2404V131.304L50.5764 134.968L54.4484 138.776ZM57.8008 131.08V137.128L63.6088 131.08H65.0168V139H63.5448V132.952L57.7368 139H56.3288V131.08H57.8008ZM78.295 137.64V141.048H76.775V139H68.263V141.048H66.743L66.727 137.64H67.959C68.4923 136.84 68.7643 135.853 68.775 134.68L68.823 131.08H76.711V137.64H78.295ZM75.191 137.64V132.424H70.231L70.183 134.68C70.1723 135.32 70.1083 135.88 69.991 136.36C69.8737 136.829 69.703 137.256 69.479 137.64H75.191ZM89.0265 138.776V139H87.2825L83.7945 135.672H81.4585V139H79.9225V131.08H81.4585V134.328H83.7465L87.0425 131.08H88.8185V131.304L85.1545 134.968L89.0265 138.776ZM100.454 137.64V139H99.3981C98.8755 139 98.4381 138.899 98.0861 138.696C97.7341 138.493 97.4888 138.205 97.3501 137.832C96.9235 138.291 96.4115 138.632 95.8141 138.856C95.2168 139.08 94.5128 139.192 93.7021 139.192C92.5608 139.192 91.6808 138.995 91.0621 138.6C90.4435 138.195 90.1341 137.619 90.1341 136.872C90.1341 136.232 90.3741 135.72 90.8541 135.336C91.3341 134.952 92.0381 134.712 92.9661 134.616L97.2381 134.168C97.2061 133.571 96.9555 133.117 96.4861 132.808C96.0168 132.499 95.3448 132.344 94.4701 132.344C93.6275 132.344 92.9555 132.488 92.4541 132.776C91.9528 133.064 91.7021 133.448 91.7021 133.928V133.992H90.1821V133.928C90.1821 133.331 90.3581 132.803 90.7101 132.344C91.0728 131.875 91.5795 131.517 92.2301 131.272C92.8808 131.016 93.6328 130.888 94.4861 130.888C95.8408 130.888 96.8915 131.187 97.6381 131.784C98.3848 132.381 98.7581 133.219 98.7581 134.296V136.76C98.7581 137.037 98.8435 137.256 99.0141 137.416C99.1848 137.565 99.4301 137.64 99.7501 137.64H100.454ZM93.6701 137.832C94.5341 137.832 95.2755 137.699 95.8941 137.432C96.5128 137.155 96.9608 136.765 97.2381 136.264V135.416L93.3021 135.832C92.7475 135.885 92.3315 135.997 92.0541 136.168C91.7875 136.339 91.6541 136.573 91.6541 136.872C91.6541 137.512 92.3261 137.832 93.6701 137.832ZM110.01 128.504V133.032H116.97V128.504H118.57V139H116.97V134.472H110.01V139H108.41V128.504H110.01ZM131.423 137.64V139H130.367C129.844 139 129.407 138.899 129.055 138.696C128.703 138.493 128.458 138.205 128.319 137.832C127.892 138.291 127.38 138.632 126.783 138.856C126.186 139.08 125.482 139.192 124.671 139.192C123.53 139.192 122.65 138.995 122.031 138.6C121.412 138.195 121.103 137.619 121.103 136.872C121.103 136.232 121.343 135.72 121.823 135.336C122.303 134.952 123.007 134.712 123.935 134.616L128.207 134.168C128.175 133.571 127.924 133.117 127.455 132.808C126.986 132.499 126.314 132.344 125.439 132.344C124.596 132.344 123.924 132.488 123.423 132.776C122.922 133.064 122.671 133.448 122.671 133.928V133.992H121.151V133.928C121.151 133.331 121.327 132.803 121.679 132.344C122.042 131.875 122.548 131.517 123.199 131.272C123.85 131.016 124.602 130.888 125.455 130.888C126.81 130.888 127.86 131.187 128.607 131.784C129.354 132.381 129.727 133.219 129.727 134.296V136.76C129.727 137.037 129.812 137.256 129.983 137.416C130.154 137.565 130.399 137.64 130.719 137.64H131.423ZM124.639 137.832C125.503 137.832 126.244 137.699 126.863 137.432C127.482 137.155 127.93 136.765 128.207 136.264V135.416L124.271 135.832C123.716 135.885 123.3 135.997 123.023 136.168C122.756 136.339 122.623 136.573 122.623 136.872C122.623 137.512 123.295 137.832 124.639 137.832ZM148.969 138.76V139H147.337L146.089 136.344H140.169L138.921 139H137.289V138.76L142.249 128.504H144.009L148.969 138.76ZM145.401 134.904L143.129 130.088L140.857 134.904H145.401ZM155.169 130.888C156.119 130.888 156.951 131.053 157.665 131.384C158.38 131.715 158.929 132.184 159.313 132.792C159.697 133.389 159.889 134.093 159.889 134.904V135.16C159.889 135.971 159.697 136.68 159.313 137.288C158.929 137.896 158.38 138.365 157.665 138.696C156.951 139.027 156.119 139.192 155.169 139.192C154.583 139.192 154.033 139.101 153.521 138.92C153.009 138.739 152.561 138.477 152.177 138.136V141.72H150.641V131.08H152.065L152.129 131.992C152.524 131.64 152.983 131.368 153.505 131.176C154.028 130.984 154.583 130.888 155.169 130.888ZM158.305 134.904C158.305 134.093 158.023 133.459 157.457 133C156.903 132.531 156.135 132.296 155.153 132.296C154.524 132.296 153.943 132.408 153.409 132.632C152.887 132.856 152.476 133.16 152.177 133.544V136.52C152.476 136.904 152.887 137.213 153.409 137.448C153.943 137.672 154.524 137.784 155.153 137.784C156.135 137.784 156.903 137.549 157.457 137.08C158.023 136.611 158.305 135.971 158.305 135.16V134.904ZM170.625 135.544H162.993C163.046 136.237 163.345 136.787 163.889 137.192C164.433 137.587 165.158 137.784 166.065 137.784C166.907 137.784 167.59 137.645 168.113 137.368C168.646 137.08 168.934 136.701 168.977 136.232H170.625C170.539 137.16 170.091 137.885 169.281 138.408C168.481 138.931 167.409 139.192 166.065 139.192C165.115 139.192 164.289 139.032 163.585 138.712C162.881 138.381 162.337 137.917 161.953 137.32C161.579 136.723 161.393 136.024 161.393 135.224V134.888C161.393 134.077 161.579 133.373 161.953 132.776C162.337 132.168 162.881 131.704 163.585 131.384C164.289 131.053 165.115 130.888 166.065 130.888C167.483 130.888 168.598 131.24 169.409 131.944C170.219 132.637 170.625 133.597 170.625 134.824V135.544ZM166.065 132.296C165.211 132.296 164.518 132.472 163.985 132.824C163.462 133.165 163.142 133.645 163.025 134.264H168.993C168.897 133.645 168.593 133.165 168.081 132.824C167.569 132.472 166.897 132.296 166.065 132.296ZM174.271 131.08V134.344H179.967V131.08H181.503V139H179.967V135.704H174.271V139H172.735V131.08H174.271ZM194.779 137.64V141.048H193.259V139H184.747V141.048H183.227L183.211 137.64H184.443C184.977 136.84 185.249 135.853 185.259 134.68L185.307 131.08H193.195V137.64H194.779ZM191.675 137.64V132.424H186.715L186.667 134.68C186.657 135.32 186.593 135.88 186.475 136.36C186.358 136.829 186.187 137.256 185.963 137.64H191.675ZM205.232 131.08V131.304L200.72 139.88C200.368 140.541 199.957 141.011 199.488 141.288C199.029 141.576 198.4 141.72 197.6 141.72H196V140.36H197.6C198.048 140.36 198.384 140.291 198.608 140.152C198.832 140.024 199.045 139.763 199.248 139.368L199.392 139.112L195.264 131.304V131.08H196.896L200.256 137.608L203.6 131.08H205.232Z" fill="white" fill-opacity="0.6"/>
<path d="M46.536 171.864V174H31.92V172.08L38.856 168.072C40.216 167.288 41.224 166.656 41.88 166.176C42.536 165.68 42.976 165.224 43.2 164.808C43.44 164.392 43.56 163.896 43.56 163.32V163.08C43.56 162.152 43.168 161.44 42.384 160.944C41.616 160.448 40.504 160.2 39.048 160.2C37.544 160.2 36.4 160.464 35.616 160.992C34.848 161.52 34.464 162.288 34.464 163.296V163.776H32.064V163.272C32.064 161.56 32.664 160.248 33.864 159.336C35.064 158.424 36.776 157.968 39 157.968C41.176 157.968 42.88 158.416 44.112 159.312C45.344 160.208 45.96 161.44 45.96 163.008V163.248C45.96 164.096 45.792 164.84 45.456 165.48C45.12 166.12 44.536 166.768 43.704 167.424C42.888 168.08 41.688 168.864 40.104 169.776L36.456 171.864H46.536ZM57.9572 174.288C56.3572 174.288 54.9412 174 53.7092 173.424C52.4932 172.848 51.5412 172.04 50.8532 171C50.1812 169.96 49.8452 168.768 49.8452 167.424V164.856C49.8452 163.496 50.1812 162.296 50.8532 161.256C51.5412 160.216 52.4932 159.408 53.7092 158.832C54.9412 158.256 56.3572 157.968 57.9572 157.968C59.5412 157.968 60.9412 158.256 62.1572 158.832C63.3732 159.408 64.3172 160.216 64.9892 161.256C65.6612 162.296 65.9972 163.496 65.9972 164.856V167.424C65.9972 168.784 65.6612 169.984 64.9892 171.024C64.3172 172.048 63.3732 172.848 62.1572 173.424C60.9412 174 59.5412 174.288 57.9572 174.288ZM57.9572 172.056C59.7172 172.056 61.1012 171.648 62.1092 170.832C63.1172 170.016 63.6212 168.888 63.6212 167.448V164.832C63.6212 163.408 63.1092 162.28 62.0852 161.448C61.0772 160.616 59.6932 160.2 57.9332 160.2C56.1572 160.2 54.7572 160.616 53.7332 161.448C52.7252 162.264 52.2212 163.392 52.2212 164.832V167.448C52.2212 168.888 52.7252 170.016 53.7332 170.832C54.7572 171.648 56.1652 172.056 57.9572 172.056ZM73.0864 165.864C71.6624 165.864 70.5184 165.52 69.6544 164.832C68.8064 164.144 68.3824 163.232 68.3824 162.096V161.856C68.3824 160.704 68.8064 159.792 69.6544 159.12C70.5184 158.432 71.6624 158.088 73.0864 158.088C74.5104 158.088 75.6384 158.432 76.4704 159.12C77.3184 159.792 77.7424 160.704 77.7424 161.856V162.096C77.7424 163.232 77.3184 164.144 76.4704 164.832C75.6224 165.52 74.4944 165.864 73.0864 165.864ZM73.0624 164.16C73.8624 164.16 74.4944 163.976 74.9584 163.608C75.4224 163.24 75.6544 162.744 75.6544 162.12V161.832C75.6544 161.208 75.4224 160.712 74.9584 160.344C74.4944 159.976 73.8624 159.792 73.0624 159.792C72.2624 159.792 71.6304 159.976 71.1664 160.344C70.7184 160.696 70.4944 161.192 70.4944 161.832V162.12C70.4944 162.744 70.7264 163.24 71.1904 163.608C71.6544 163.976 72.2784 164.16 73.0624 164.16ZM85.7104 174.144C84.2864 174.144 83.1424 173.8 82.2784 173.112C81.4304 172.424 81.0064 171.512 81.0064 170.376V170.136C81.0064 168.984 81.4304 168.072 82.2784 167.4C83.1424 166.712 84.2864 166.368 85.7104 166.368C87.1344 166.368 88.2624 166.712 89.0944 167.4C89.9424 168.072 90.3664 168.984 90.3664 170.136V170.376C90.3664 171.512 89.9424 172.424 89.0944 173.112C88.2464 173.8 87.1184 174.144 85.7104 174.144ZM85.6864 172.44C86.4864 172.44 87.1184 172.256 87.5824 171.888C88.0464 171.52 88.2784 171.024 88.2784 170.4V170.112C88.2784 169.488 88.0464 168.992 87.5824 168.624C87.1184 168.256 86.4864 168.072 85.6864 168.072C84.8864 168.072 84.2544 168.256 83.7904 168.624C83.3424 168.976 83.1184 169.472 83.1184 170.112V170.4C83.1184 171.024 83.3504 171.52 83.8144 171.888C84.2784 172.256 84.9024 172.44 85.6864 172.44ZM85.4944 158.256H87.7984V158.616L73.2304 174H70.9264V173.664L85.4944 158.256Z" fill="white"/>
<path d="M37.104 229.192C35.8773 229.192 34.8053 228.979 33.888 228.552C32.9707 228.115 32.2613 227.496 31.76 226.696C31.2693 225.896 31.024 224.963 31.024 223.896V223.624C31.024 222.557 31.2693 221.624 31.76 220.824C32.2613 220.024 32.9707 219.405 33.888 218.968C34.8053 218.531 35.8773 218.312 37.104 218.312C38.2133 218.312 39.2107 218.499 40.096 218.872C40.992 219.245 41.6907 219.763 42.192 220.424C42.704 221.075 42.96 221.805 42.96 222.616V222.76H41.344V222.616C41.344 222.083 41.1627 221.603 40.8 221.176C40.4373 220.749 39.9307 220.413 39.28 220.168C38.64 219.923 37.9147 219.8 37.104 219.8C35.6747 219.8 34.5707 220.131 33.792 220.792C33.024 221.453 32.64 222.392 32.64 223.608V223.912C32.64 225.128 33.024 226.067 33.792 226.728C34.5707 227.379 35.6747 227.704 37.104 227.704C37.9253 227.704 38.656 227.587 39.296 227.352C39.9467 227.107 40.448 226.771 40.8 226.344C41.1627 225.917 41.344 225.437 41.344 224.904V224.744H42.96V224.904C42.96 225.715 42.704 226.445 42.192 227.096C41.6907 227.747 40.992 228.259 40.096 228.632C39.2107 229.005 38.2133 229.192 37.104 229.192ZM49.8724 220.888C50.8217 220.888 51.6537 221.053 52.3684 221.384C53.083 221.715 53.6324 222.184 54.0164 222.792C54.4004 223.389 54.5924 224.093 54.5924 224.904V225.16C54.5924 225.971 54.4004 226.68 54.0164 227.288C53.6324 227.896 53.083 228.365 52.3684 228.696C51.6537 229.027 50.8217 229.192 49.8724 229.192C49.2857 229.192 48.7364 229.101 48.2244 228.92C47.7124 228.739 47.2644 228.477 46.8804 228.136V231.72H45.3444V221.08H46.7684L46.8324 221.992C47.227 221.64 47.6857 221.368 48.2084 221.176C48.731 220.984 49.2857 220.888 49.8724 220.888ZM53.0084 224.904C53.0084 224.093 52.7257 223.459 52.1604 223C51.6057 222.531 50.8377 222.296 49.8564 222.296C49.227 222.296 48.6457 222.408 48.1124 222.632C47.5897 222.856 47.179 223.16 46.8804 223.544V226.52C47.179 226.904 47.5897 227.213 48.1124 227.448C48.6457 227.672 49.227 227.784 49.8564 227.784C50.8377 227.784 51.6057 227.549 52.1604 227.08C52.7257 226.611 53.0084 225.971 53.0084 225.16V224.904ZM60.8478 229.192C59.8771 229.192 59.0344 229.032 58.3198 228.712C57.6051 228.381 57.0558 227.917 56.6718 227.32C56.2878 226.712 56.0958 226.003 56.0958 225.192V224.92C56.0958 224.099 56.2878 223.384 56.6718 222.776C57.0558 222.168 57.6051 221.704 58.3198 221.384C59.0344 221.053 59.8771 220.888 60.8478 220.888C61.8078 220.888 62.6398 221.053 63.3438 221.384C64.0584 221.704 64.6024 222.168 64.9758 222.776C65.3598 223.384 65.5518 224.099 65.5518 224.92V225.192C65.5518 226.003 65.3598 226.712 64.9758 227.32C64.6024 227.917 64.0584 228.381 63.3438 228.712C62.6398 229.032 61.8078 229.192 60.8478 229.192ZM60.8318 227.784C61.8131 227.784 62.5811 227.555 63.1358 227.096C63.6904 226.637 63.9678 226.003 63.9678 225.192V224.92C63.9678 224.099 63.6904 223.459 63.1358 223C62.5811 222.531 61.8131 222.296 60.8318 222.296C59.8291 222.296 59.0504 222.525 58.4958 222.984C57.9518 223.443 57.6798 224.088 57.6798 224.92V225.192C57.6798 226.003 57.9571 226.637 58.5118 227.096C59.0771 227.555 59.8504 227.784 60.8318 227.784ZM76.7609 228.776V229H75.0169L71.5289 225.672H69.1929V229H67.6569V221.08H69.1929V224.328H71.4809L74.7769 221.08H76.5529V221.304L72.8889 224.968L76.7609 228.776ZM96.9195 227.576V231.128H95.3195V229H85.6555V231.128H84.0715V227.576H85.4315C86.0608 226.605 86.3915 225.384 86.4235 223.912L86.5195 218.504H95.2715V227.576H96.9195ZM87.8955 223.96C87.8635 225.432 87.5755 226.637 87.0315 227.576H93.6875V219.928H87.9915L87.8955 223.96ZM107.25 225.544H99.6176C99.671 226.237 99.9696 226.787 100.514 227.192C101.058 227.587 101.783 227.784 102.69 227.784C103.532 227.784 104.215 227.645 104.738 227.368C105.271 227.08 105.559 226.701 105.602 226.232H107.25C107.164 227.16 106.716 227.885 105.906 228.408C105.106 228.931 104.034 229.192 102.69 229.192C101.74 229.192 100.914 229.032 100.21 228.712C99.5056 228.381 98.9616 227.917 98.5776 227.32C98.2043 226.723 98.0176 226.024 98.0176 225.224V224.888C98.0176 224.077 98.2043 223.373 98.5776 222.776C98.9616 222.168 99.5056 221.704 100.21 221.384C100.914 221.053 101.74 220.888 102.69 220.888C104.108 220.888 105.223 221.24 106.034 221.944C106.844 222.637 107.25 223.597 107.25 224.824V225.544ZM102.69 222.296C101.836 222.296 101.143 222.472 100.61 222.824C100.087 223.165 99.767 223.645 99.6496 224.264H105.618C105.522 223.645 105.218 223.165 104.706 222.824C104.194 222.472 103.522 222.296 102.69 222.296ZM110.832 221.08V227.128L116.64 221.08H118.048V229H116.576V222.952L110.768 229H109.36V221.08H110.832ZM113.712 219.976C112.603 219.976 111.76 219.789 111.184 219.416C110.608 219.043 110.32 218.499 110.32 217.784V217.672H111.728V217.784C111.728 218.072 111.899 218.296 112.24 218.456C112.581 218.605 113.072 218.68 113.712 218.68C114.331 218.68 114.8 218.605 115.12 218.456C115.451 218.296 115.616 218.072 115.616 217.784V217.672H117.104V217.784C117.104 218.509 116.816 219.059 116.24 219.432C115.675 219.795 114.832 219.976 113.712 219.976ZM124.878 229.192C123.929 229.192 123.097 229.032 122.382 228.712C121.668 228.381 121.118 227.917 120.734 227.32C120.35 226.712 120.158 226.008 120.158 225.208V224.92C120.158 224.099 120.35 223.384 120.734 222.776C121.118 222.168 121.662 221.704 122.366 221.384C123.081 221.053 123.918 220.888 124.878 220.888C125.742 220.888 126.521 221.037 127.214 221.336C127.908 221.624 128.446 222.029 128.83 222.552C129.225 223.064 129.422 223.645 129.422 224.296V224.36H127.838V224.296C127.838 223.912 127.71 223.571 127.454 223.272C127.209 222.963 126.857 222.723 126.398 222.552C125.95 222.381 125.444 222.296 124.878 222.296C123.897 222.296 123.129 222.531 122.574 223C122.02 223.459 121.742 224.104 121.742 224.936V225.192C121.742 226.003 122.02 226.637 122.574 227.096C123.129 227.555 123.897 227.784 124.878 227.784C125.454 227.784 125.966 227.699 126.414 227.528C126.862 227.357 127.209 227.123 127.454 226.824C127.71 226.525 127.838 226.184 127.838 225.8V225.736H129.422V225.8C129.422 226.461 129.23 227.048 128.846 227.56C128.462 228.072 127.924 228.472 127.23 228.76C126.548 229.048 125.764 229.192 124.878 229.192ZM130.02 222.456V221.08H139.332V222.456H135.476V229H133.94V222.456H130.02ZM148.651 224.984C149.089 225.123 149.419 225.336 149.643 225.624C149.878 225.901 149.995 226.243 149.995 226.648V226.808C149.995 227.501 149.723 228.04 149.179 228.424C148.646 228.808 147.889 229 146.907 229H140.891V221.08H146.699C147.681 221.08 148.438 221.267 148.971 221.64C149.515 222.003 149.787 222.525 149.787 223.208V223.368C149.787 224.104 149.409 224.643 148.651 224.984ZM142.427 222.264V224.408H146.635C147.137 224.408 147.521 224.323 147.787 224.152C148.065 223.971 148.203 223.715 148.203 223.384V223.224C148.203 222.915 148.07 222.68 147.803 222.52C147.537 222.349 147.147 222.264 146.635 222.264H142.427ZM148.411 226.616C148.411 226.296 148.278 226.051 148.011 225.88C147.745 225.709 147.361 225.624 146.859 225.624H142.427V227.8H146.859C147.361 227.8 147.745 227.715 148.011 227.544C148.278 227.363 148.411 227.107 148.411 226.776V226.616ZM153.723 221.08V227.128L159.531 221.08H160.939V229H159.467V222.952L153.659 229H152.251V221.08H153.723ZM172.158 228.984H170.622V226.392H168.254L165.086 229H163.102V228.808L166.046 226.392C165.097 226.349 164.361 226.109 163.838 225.672C163.315 225.224 163.054 224.616 163.054 223.848V223.672C163.054 222.851 163.337 222.216 163.902 221.768C164.478 221.309 165.278 221.08 166.302 221.08H172.158V228.984ZM170.622 225.08V222.424H166.414C165.23 222.424 164.638 222.84 164.638 223.672V223.848C164.638 224.669 165.23 225.08 166.414 225.08H170.622Z" fill="white" fill-opacity="0.6"/>
<path d="M39.096 264H36.744V251.808C35.976 252.24 34.976 252.456 33.744 252.456H31.032V250.224H33.552C34.64 250.224 35.44 250.064 35.952 249.744C36.48 249.424 36.744 248.928 36.744 248.256H39.096V264ZM66.8147 248.256V250.392H56.6627V264H54.2627V248.256H66.8147ZM72.2873 264.288C70.8313 264.288 69.5673 264.048 68.4953 263.568C67.4233 263.072 66.5993 262.376 66.0233 261.48C65.4473 260.568 65.1593 259.504 65.1593 258.288V257.88C65.1593 256.648 65.4473 255.576 66.0233 254.664C66.5993 253.752 67.4233 253.056 68.4953 252.576C69.5673 252.08 70.8313 251.832 72.2873 251.832C73.7273 251.832 74.9753 252.08 76.0312 252.576C77.1033 253.056 77.9193 253.752 78.4793 254.664C79.0553 255.576 79.3433 256.648 79.3433 257.88V258.288C79.3433 259.504 79.0553 260.568 78.4793 261.48C77.9193 262.376 77.1033 263.072 76.0312 263.568C74.9753 264.048 73.7273 264.288 72.2873 264.288ZM72.2633 262.176C73.7353 262.176 74.8873 261.832 75.7193 261.144C76.5513 260.456 76.9673 259.504 76.9673 258.288V257.88C76.9673 256.648 76.5513 255.688 75.7193 255C74.8873 254.296 73.7353 253.944 72.2633 253.944C70.7593 253.944 69.5913 254.288 68.7593 254.976C67.9433 255.664 67.5353 256.632 67.5353 257.88V258.288C67.5353 259.504 67.9513 260.456 68.7833 261.144C69.6313 261.832 70.7913 262.176 72.2633 262.176ZM97.6378 261.96V267.072H95.3578V264H82.5898V267.072H80.3098L80.2858 261.96H82.1338C82.9338 260.76 83.3418 259.28 83.3578 257.52L83.4298 252.12H95.2618V261.96H97.6378ZM92.9818 261.96V254.136H85.5418L85.4698 257.52C85.4538 258.48 85.3578 259.32 85.1818 260.04C85.0058 260.744 84.7498 261.384 84.4138 261.96H92.9818Z" fill="white"/>
<defs>
<linearGradient id="paint0_linear_1_44" x1="320" y1="0" x2="640" y2="366" gradientUnits="userSpaceOnUse">
<stop offset="0.294343" stop-color="white"/>
<stop offset="0.932158" stop-color="#E0E0E0"/>
</linearGradient>
</defs>
</svg>
