<svg width="355" height="204" viewBox="0 0 355 204" fill="none" xmlns="http://www.w3.org/2000/svg">
<g id="Group 5">
<g id="Rectangle 12" filter="url(#filter0_d_3_137)">
<rect width="355" height="203.016" rx="11.0938" fill="#222123"/>
</g>
<g id="Mask group">
<mask id="mask0_3_137" style="mask-type:alpha" maskUnits="userSpaceOnUse" x="0" y="0" width="355" height="204">
<rect id="Rectangle 15" width="355" height="203.016" rx="11.0938" fill="#222123"/>
</mask>
<g mask="url(#mask0_3_137)">
<g id="Rectangle 16" filter="url(#filter1_d_3_137)">
<rect x="257.93" y="-100.398" width="232.969" height="232.969" rx="16.6406" transform="rotate(30 257.93 -100.398)" fill="url(#paint0_linear_3_137)"/>
</g>
</g>
</g>
<g id="Ricci_car 3" clip-path="url(#clip0_3_137)">
<g id="LOGO YO">
<path id="Vector" d="M125.666 26.625C127.281 26.625 128.474 26.7106 129.244 26.8819C130.015 27.0532 130.615 27.3713 131.043 27.8363C131.532 28.3869 131.832 29.2495 131.942 30.424C131.991 30.9257 132.016 31.7883 132.016 33.0118C132.016 34.5412 131.924 35.6668 131.74 36.3887C131.569 37.0983 131.251 37.6611 130.786 38.0771C130.162 38.6277 129.171 38.9458 127.813 39.0315C127.14 39.0927 125.384 39.1233 122.546 39.1233C121.041 39.1233 119.915 39.0743 119.169 38.9764C118.435 38.8786 117.823 38.7011 117.333 38.4442C116.709 38.1016 116.275 37.5633 116.03 36.8292C115.798 36.0828 115.682 34.896 115.682 33.2687C115.682 31.4212 115.737 30.2038 115.847 29.6165C116.14 27.9892 117.217 27.0532 119.077 26.8085C120.007 26.6862 122.203 26.625 125.666 26.625ZM123.922 28.9375C123.274 28.9375 122.79 28.9375 122.472 28.9375C122.154 28.9375 121.775 28.9558 121.334 28.9925C120.894 29.017 120.582 29.0353 120.398 29.0476C120.227 29.0598 120.007 29.1149 119.738 29.2127C119.481 29.3106 119.315 29.3902 119.242 29.4513C119.169 29.5003 119.065 29.6226 118.93 29.8184C118.795 30.0141 118.722 30.1793 118.71 30.3139C118.698 30.4363 118.667 30.6626 118.618 30.993C118.581 31.3233 118.563 31.6047 118.563 31.8372C118.563 32.0574 118.563 32.4122 118.563 32.9017C118.563 33.4522 118.563 33.8744 118.563 34.168C118.563 34.4616 118.594 34.7798 118.655 35.1223C118.728 35.4527 118.789 35.6852 118.838 35.8198C118.899 35.9543 119.028 36.1073 119.224 36.2786C119.432 36.4376 119.621 36.5416 119.793 36.5906C119.976 36.6273 120.276 36.6762 120.692 36.7374C121.108 36.7863 121.493 36.8108 121.848 36.8108C122.215 36.8108 122.747 36.8108 123.445 36.8108C125.194 36.8108 126.357 36.7863 126.932 36.7374C127.519 36.6885 127.978 36.5722 128.308 36.3887C128.651 36.2052 128.883 35.8687 129.006 35.3793C129.128 34.8899 129.189 34.0334 129.189 32.8099C129.189 32.3327 129.189 31.984 129.189 31.7638C129.189 31.5313 129.171 31.256 129.134 30.9379C129.098 30.6198 129.067 30.3996 129.042 30.2772C129.03 30.1549 128.957 29.9958 128.822 29.8C128.7 29.6043 128.602 29.4819 128.529 29.433C128.455 29.3718 128.284 29.2923 128.015 29.1944C127.758 29.0965 127.544 29.0476 127.372 29.0476C127.201 29.0353 126.895 29.017 126.455 28.9925C126.026 28.9558 125.653 28.9375 125.335 28.9375C125.029 28.9375 124.558 28.9375 123.922 28.9375Z" fill="white"/>
<path id="Vector_2" d="M105.822 32.1492L109.823 27.6344C110.116 27.2673 110.391 27.0226 110.648 26.9003C110.905 26.7779 111.266 26.729 111.731 26.7534H112.906C113.334 26.7534 113.548 26.9308 113.548 27.2857C113.548 27.3835 113.475 27.5242 113.328 27.7078L107.216 34.3882V37.8018C107.241 38.5971 106.868 38.9947 106.097 38.9947H105.51C104.739 38.9947 104.366 38.5971 104.39 37.8018V34.3882L98.2235 27.7078C98.0767 27.5487 98.0033 27.4019 98.0033 27.2673C98.0033 26.9247 98.2174 26.7534 98.6457 26.7534H99.8753C100.34 26.729 100.701 26.7779 100.958 26.9003C101.215 27.0226 101.49 27.2673 101.784 27.6344L105.822 32.1492Z" fill="white"/>
<path id="Vector_3" d="M84.328 26.625C85.9431 26.625 87.136 26.7106 87.9068 26.8819C88.6776 27.0532 89.2772 27.3713 89.7054 27.8363C90.1948 28.3869 90.4946 29.2495 90.6047 30.424C90.6536 30.9257 90.6781 31.7883 90.6781 33.0118C90.6781 34.5412 90.5863 35.6668 90.4028 36.3887C90.2315 37.0983 89.9134 37.6611 89.4485 38.0771C88.8245 38.6277 87.8334 38.9458 86.4753 39.0315C85.8024 39.0927 84.0466 39.1233 81.208 39.1233C79.7031 39.1233 78.5775 39.0743 77.8311 38.9764C77.097 38.8786 76.4853 38.7011 75.9959 38.4442C75.3719 38.1016 74.9375 37.5633 74.6928 36.8292C74.4603 36.0828 74.3441 34.896 74.3441 33.2687C74.3441 31.4212 74.3992 30.2038 74.5093 29.6165C74.8029 27.9892 75.8796 27.0532 77.7394 26.8085C78.6692 26.6862 80.8655 26.625 84.328 26.625ZM82.5845 28.9375C81.936 28.9375 81.4528 28.9375 81.1346 28.9375C80.8165 28.9375 80.4372 28.9558 79.9968 28.9925C79.5563 29.017 79.2443 29.0353 79.0608 29.0476C78.8895 29.0598 78.6692 29.1149 78.4001 29.2127C78.1431 29.3106 77.978 29.3902 77.9045 29.4513C77.8311 29.5003 77.7271 29.6226 77.5925 29.8184C77.458 30.0141 77.3845 30.1793 77.3723 30.3139C77.3601 30.4363 77.3295 30.6626 77.2806 30.993C77.2438 31.3233 77.2255 31.6047 77.2255 31.8372C77.2255 32.0574 77.2255 32.4122 77.2255 32.9017C77.2255 33.4522 77.2255 33.8744 77.2255 34.168C77.2255 34.4616 77.2561 34.7798 77.3173 35.1223C77.3907 35.4527 77.4518 35.6852 77.5008 35.8198C77.562 35.9543 77.6904 36.1073 77.8862 36.2786C78.0942 36.4376 78.2838 36.5416 78.4551 36.5906C78.6387 36.6273 78.9384 36.6762 79.3544 36.7374C79.7704 36.7863 80.1558 36.8108 80.5106 36.8108C80.8777 36.8108 81.4099 36.8108 82.1073 36.8108C83.857 36.8108 85.0193 36.7863 85.5944 36.7374C86.1817 36.6885 86.6405 36.5722 86.9708 36.3887C87.3134 36.2052 87.5459 35.8687 87.6682 35.3793C87.7906 34.8899 87.8518 34.0334 87.8518 32.8099C87.8518 32.3327 87.8518 31.984 87.8518 31.7638C87.8518 31.5313 87.8334 31.256 87.7967 30.9379C87.76 30.6198 87.7294 30.3996 87.7049 30.2772C87.6927 30.1549 87.6193 29.9958 87.4847 29.8C87.3624 29.6043 87.2645 29.4819 87.1911 29.433C87.1176 29.3718 86.9464 29.2923 86.6772 29.1944C86.4202 29.0965 86.2061 29.0476 86.0348 29.0476C85.8635 29.0353 85.5577 29.017 85.1172 28.9925C84.689 28.9558 84.3158 28.9375 83.9977 28.9375C83.6918 28.9375 83.2207 28.9375 82.5845 28.9375Z" fill="white"/>
<path id="Vector_4" d="M68.5634 34.2964H64.1037C63.7489 34.2964 63.4675 34.2169 63.2595 34.0578C63.0637 33.8865 62.9658 33.6541 62.9658 33.3604C62.9658 33.079 63.0637 32.8588 63.2595 32.6997C63.4675 32.5284 63.7489 32.4428 64.1037 32.4428H70.1234C70.5149 32.4183 70.8147 32.504 71.0227 32.6997C71.2307 32.8833 71.3286 33.1586 71.3163 33.5256V33.7458C71.3163 34.896 71.2796 35.7218 71.2062 36.2235C71.1328 36.7251 70.9799 37.1839 70.7474 37.5999C70.4048 38.2362 69.7686 38.6705 68.8387 38.903C68.3004 39.0376 66.5079 39.1049 63.4613 39.1049C60.4025 39.1049 58.5306 38.9703 57.8454 38.7011C57.2581 38.4809 56.7993 38.1811 56.4689 37.8018C56.1508 37.4103 55.9306 36.8903 55.8082 36.2418C55.6736 35.6056 55.6063 34.5228 55.6063 32.9934C55.6063 31.3783 55.6736 30.2282 55.8082 29.5431C55.9428 28.8579 56.2059 28.3012 56.5974 27.8729C57.1113 27.3224 57.8454 26.9859 58.7997 26.8635C59.7051 26.7167 61.7301 26.6433 64.8745 26.6433C66.6608 26.6433 67.9394 26.7228 68.7102 26.8819C69.4933 27.041 70.0806 27.3468 70.4721 27.7995C70.937 28.3257 71.1695 28.9435 71.1695 29.6532C71.1695 29.9713 71.0716 30.2221 70.8759 30.4056C70.6923 30.5892 70.4354 30.6809 70.105 30.6809H69.5545C68.9427 30.6932 68.5573 30.4179 68.3982 29.855C68.3004 29.5736 68.1168 29.3595 67.8477 29.2127C67.5785 29.0781 67.2359 28.9925 66.8199 28.9558C66.4161 28.9068 65.6698 28.8824 64.5809 28.8824C62.3418 28.8824 60.9042 28.9191 60.2679 28.9925C59.6317 29.0659 59.1974 29.2433 58.9649 29.5247C58.6223 29.904 58.451 30.9501 58.451 32.663C58.451 33.8743 58.4938 34.7369 58.5795 35.2508C58.6774 35.7524 58.8548 36.1134 59.1117 36.3336C59.3809 36.5783 59.7908 36.7373 60.3414 36.8108C60.9042 36.8719 62.0176 36.9025 63.6816 36.9025C65.3456 36.9025 66.4161 36.8719 66.8933 36.8108C67.3705 36.7496 67.7375 36.5966 67.9945 36.3519C68.386 35.9726 68.5818 35.367 68.5818 34.535C68.5818 34.4494 68.5756 34.3698 68.5634 34.2964Z" fill="white"/>
<path id="Vector_5" d="M46.2073 26.625C47.8223 26.625 49.0153 26.7106 49.7861 26.8819C50.5569 27.0532 51.1564 27.3713 51.5847 27.8363C52.0741 28.3869 52.3738 29.2495 52.4839 30.424C52.5329 30.9257 52.5574 31.7883 52.5574 33.0118C52.5574 34.5412 52.4656 35.6668 52.2821 36.3887C52.1108 37.0983 51.7927 37.6611 51.3277 38.0771C50.7037 38.6277 49.7127 38.9458 48.3546 39.0315C47.6816 39.0927 45.9259 39.1233 43.0873 39.1233C41.5824 39.1233 40.4567 39.0743 39.7104 38.9764C38.9763 38.8786 38.3645 38.7011 37.8751 38.4442C37.2511 38.1016 36.8168 37.5633 36.5721 36.8292C36.3396 36.0828 36.2234 34.896 36.2234 33.2687C36.2234 31.4212 36.2784 30.2038 36.3885 29.6165C36.6822 27.9892 37.7589 27.0532 39.6186 26.8085C40.5485 26.6862 42.7447 26.625 46.2073 26.625ZM44.4638 28.9375C43.8153 28.9375 43.332 28.9375 43.0139 28.9375C42.6958 28.9375 42.3165 28.9558 41.876 28.9925C41.4356 29.017 41.1236 29.0353 40.94 29.0476C40.7687 29.0598 40.5485 29.1149 40.2793 29.2127C40.0224 29.3106 39.8572 29.3902 39.7838 29.4513C39.7104 29.5003 39.6064 29.6226 39.4718 29.8184C39.3372 30.0141 39.2638 30.1793 39.2516 30.3139C39.2393 30.4363 39.2088 30.6626 39.1598 30.993C39.1231 31.3233 39.1048 31.6047 39.1048 31.8372C39.1048 32.0574 39.1048 32.4122 39.1048 32.9017C39.1048 33.4522 39.1048 33.8744 39.1048 34.168C39.1048 34.4616 39.1353 34.7798 39.1965 35.1223C39.2699 35.4527 39.3311 35.6852 39.38 35.8198C39.4412 35.9543 39.5697 36.1073 39.7655 36.2786C39.9735 36.4376 40.1631 36.5416 40.3344 36.5906C40.5179 36.6273 40.8177 36.6762 41.2337 36.7374C41.6497 36.7863 42.0351 36.8108 42.3899 36.8108C42.757 36.8108 43.2892 36.8108 43.9866 36.8108C45.7362 36.8108 46.8986 36.7863 47.4736 36.7374C48.0609 36.6885 48.5197 36.5722 48.8501 36.3887C49.1927 36.2052 49.4251 35.8687 49.5475 35.3793C49.6698 34.8899 49.731 34.0334 49.731 32.8099C49.731 32.3327 49.731 31.984 49.731 31.7638C49.731 31.5313 49.7127 31.256 49.676 30.9379C49.6393 30.6198 49.6087 30.3996 49.5842 30.2772C49.572 30.1549 49.4986 29.9958 49.364 29.8C49.2416 29.6043 49.1437 29.4819 49.0703 29.433C48.9969 29.3718 48.8256 29.2923 48.5564 29.1944C48.2995 29.0965 48.0854 29.0476 47.9141 29.0476C47.7428 29.0353 47.4369 29.017 46.9965 28.9925C46.5682 28.9558 46.1951 28.9375 45.8769 28.9375C45.5711 28.9375 45.1 28.9375 44.4638 28.9375Z" fill="white"/>
<path id="Vector_6" d="M25.015 36.7006H32.7598C33.5307 36.6639 33.9283 37.0065 33.9528 37.7284V37.967C33.9283 38.6889 33.5307 39.0314 32.7598 38.9947H23.3816C22.9656 39.007 22.6597 38.9152 22.4639 38.7194C22.2682 38.5237 22.1764 38.2178 22.1886 37.8018V27.9463C22.1642 27.1511 22.5373 26.7534 23.3081 26.7534H23.8954C24.6663 26.7534 25.0394 27.1511 25.015 27.9463V36.7006Z" fill="white"/>
</g>
</g>
<path id="Sveta Kovaleva" d="M23.6963 180.405H24.0291C24.4136 180.382 24.6429 180.553 24.7169 180.915C24.7613 181.166 24.9203 181.337 25.1939 181.425C25.4749 181.507 26.0038 181.547 26.7803 181.547C27.653 181.547 28.4592 181.503 29.1988 181.414C29.5907 181.362 29.8459 181.266 29.9642 181.126C30.1121 180.956 30.1861 180.749 30.1861 180.505C30.1861 180.283 30.1306 180.113 30.0197 179.994C29.9161 179.876 29.7386 179.791 29.4872 179.739C29.2727 179.695 28.4924 179.669 27.1464 179.661H26.0814C25.3048 179.661 24.7317 179.628 24.3619 179.562C23.9921 179.488 23.7036 179.354 23.4966 179.162C23.149 178.844 22.9752 178.367 22.9752 177.731C22.9752 176.844 23.1601 176.237 23.5298 175.912C23.7813 175.682 24.2177 175.52 24.8389 175.424C25.4602 175.32 26.3846 175.268 27.6123 175.268C28.5812 175.268 29.2912 175.298 29.7423 175.357C30.2009 175.409 30.5855 175.516 30.8961 175.679C31.3546 175.923 31.5839 176.337 31.5839 176.921C31.5839 177.114 31.5247 177.265 31.4064 177.376C31.2955 177.487 31.1365 177.542 30.9294 177.542H30.6188C30.4191 177.535 30.2748 177.502 30.1861 177.443C30.1047 177.376 29.9901 177.221 29.8422 176.977C29.7386 176.792 29.4835 176.673 29.0767 176.622C28.596 176.563 28.1633 176.533 27.7788 176.533C26.3144 176.533 25.4121 176.618 25.0719 176.788C24.8056 176.921 24.6725 177.165 24.6725 177.52C24.6725 177.831 24.776 178.045 24.9831 178.164C25.205 178.289 25.8189 178.352 26.8247 178.352H28.0783C29.1877 178.352 29.9679 178.393 30.4191 178.474C30.8702 178.556 31.2104 178.722 31.4397 178.974C31.7429 179.284 31.8945 179.798 31.8945 180.516C31.8945 181.292 31.717 181.847 31.362 182.18C31.1254 182.416 30.7186 182.579 30.1417 182.668C29.5722 182.757 28.6736 182.801 27.4459 182.801C26.0111 182.801 25.0275 182.757 24.495 182.668C23.9625 182.572 23.5779 182.383 23.3413 182.102C23.1342 181.851 23.0306 181.514 23.0306 181.092C23.0306 180.634 23.2525 180.405 23.6963 180.405ZM38.3221 181.381L41.3063 175.89C41.4024 175.675 41.5208 175.527 41.6613 175.446C41.8018 175.357 41.9904 175.32 42.2271 175.335H42.7374C43.0702 175.335 43.2366 175.468 43.2366 175.734C43.2366 175.808 43.2033 175.901 43.1367 176.012L39.7199 182.191C39.6163 182.405 39.4943 182.553 39.3538 182.635C39.2133 182.708 39.0247 182.742 38.788 182.734H37.8339C37.5973 182.749 37.4087 182.716 37.2682 182.635C37.1276 182.546 37.0056 182.394 36.9021 182.18L33.5628 176.012C33.5037 175.893 33.4741 175.801 33.4741 175.734C33.4741 175.608 33.5185 175.512 33.6072 175.446C33.696 175.372 33.818 175.335 33.9733 175.335H34.4725C34.7092 175.32 34.8941 175.357 35.0272 175.446C35.1677 175.527 35.2861 175.675 35.3822 175.89L38.3221 181.381ZM46.8907 176.633V178.386H52.1491C52.6225 178.386 52.8591 178.578 52.8591 178.962C52.8591 179.354 52.6225 179.55 52.1491 179.55H46.8907V181.436H52.4154C52.8813 181.414 53.1217 181.618 53.1365 182.047V182.124C53.1217 182.553 52.8813 182.757 52.4154 182.734H45.9255C45.6741 182.742 45.4892 182.686 45.3708 182.568C45.2525 182.45 45.197 182.265 45.2044 182.013V176.056C45.197 175.804 45.2525 175.62 45.3708 175.501C45.4892 175.383 45.6741 175.327 45.9255 175.335H52.3488C52.8147 175.313 53.0551 175.516 53.0699 175.945V176.023C53.0551 176.452 52.8147 176.655 52.3488 176.633H46.8907ZM58.3554 176.722H55.593C55.1271 176.744 54.8867 176.537 54.8719 176.1V175.956C54.8867 175.52 55.1271 175.313 55.593 175.335H62.8151C63.281 175.313 63.5214 175.52 63.5362 175.956V176.1C63.5214 176.537 63.281 176.744 62.8151 176.722H60.0638V182.013C60.0786 182.494 59.8493 182.734 59.376 182.734H59.0321C58.5588 182.734 58.3332 182.494 58.3554 182.013V176.722ZM71.1569 181.27H65.8652L65.3548 182.18C65.2513 182.394 65.1293 182.546 64.9887 182.635C64.8482 182.716 64.6596 182.749 64.423 182.734H63.9016C63.5761 182.734 63.4134 182.601 63.4134 182.335C63.4134 182.261 63.4467 182.172 63.5133 182.069L67.0522 175.878C67.1631 175.664 67.2889 175.52 67.4294 175.446C67.5699 175.364 67.7585 175.327 67.9952 175.335H69.0491C69.2857 175.327 69.4743 175.364 69.6148 175.446C69.7554 175.52 69.8811 175.664 69.992 175.878L73.4755 182.058C73.542 182.183 73.5753 182.276 73.5753 182.335C73.5753 182.461 73.5309 182.561 73.4422 182.635C73.3534 182.701 73.2351 182.734 73.0872 182.734H72.5991C72.3698 182.742 72.1849 182.708 72.0444 182.635C71.9039 182.553 71.7818 182.405 71.6783 182.191L71.1569 181.27ZM70.5134 180.072L68.5055 176.533L66.5197 180.072H70.5134ZM80.3978 178.286H81.6403L84.7133 175.878C84.9943 175.649 85.2273 175.501 85.4122 175.435C85.5971 175.361 85.8522 175.327 86.1776 175.335H87.0873C87.287 175.335 87.3869 175.416 87.3869 175.579C87.3869 175.668 87.3388 175.745 87.2426 175.812L83.1601 178.974L87.5976 182.268C87.6938 182.335 87.7419 182.413 87.7419 182.501C87.7419 182.657 87.642 182.734 87.4423 182.734H86.455C86.1148 182.742 85.8522 182.712 85.6673 182.646C85.4824 182.579 85.2421 182.427 84.9462 182.191L81.607 179.65H80.3978V182.013C80.4126 182.494 80.187 182.734 79.7211 182.734H79.3661C78.9001 182.734 78.6746 182.494 78.6894 182.013V176.056C78.6746 175.575 78.9001 175.335 79.3661 175.335H79.7211C80.187 175.335 80.4126 175.575 80.3978 176.056V178.286ZM95.4258 175.257C96.4021 175.257 97.1232 175.309 97.5891 175.412C98.0551 175.516 98.4175 175.708 98.6763 175.989C98.9721 176.322 99.1533 176.844 99.2199 177.554C99.2495 177.857 99.2643 178.378 99.2643 179.118C99.2643 180.042 99.2088 180.723 99.0979 181.159C98.9943 181.588 98.802 181.928 98.521 182.18C98.1438 182.512 97.5447 182.705 96.7238 182.757C96.317 182.794 95.2557 182.812 93.5399 182.812C92.6302 182.812 91.9498 182.782 91.4987 182.723C91.0549 182.664 90.6851 182.557 90.3893 182.402C90.0121 182.194 89.7495 181.869 89.6016 181.425C89.4611 180.974 89.3908 180.257 89.3908 179.273C89.3908 178.156 89.4241 177.42 89.4907 177.065C89.6682 176.082 90.319 175.516 91.4432 175.368C92.0053 175.294 93.3328 175.257 95.4258 175.257ZM94.3719 176.655C93.98 176.655 93.6878 176.655 93.4955 176.655C93.3032 176.655 93.074 176.666 92.8077 176.688C92.5415 176.703 92.3529 176.714 92.2419 176.722C92.1384 176.729 92.0053 176.762 91.8426 176.821C91.6872 176.881 91.5874 176.929 91.543 176.966C91.4987 176.995 91.4358 177.069 91.3544 177.188C91.2731 177.306 91.2287 177.406 91.2213 177.487C91.2139 177.561 91.1954 177.698 91.1658 177.897C91.1436 178.097 91.1326 178.267 91.1326 178.408C91.1326 178.541 91.1326 178.755 91.1326 179.051C91.1326 179.384 91.1326 179.639 91.1326 179.817C91.1326 179.994 91.151 180.187 91.188 180.394C91.2324 180.593 91.2694 180.734 91.299 180.815C91.3359 180.897 91.4136 180.989 91.5319 181.092C91.6577 181.189 91.7723 181.252 91.8758 181.281C91.9868 181.303 92.168 181.333 92.4194 181.37C92.6709 181.399 92.9039 181.414 93.1183 181.414C93.3402 181.414 93.6619 181.414 94.0835 181.414C95.1411 181.414 95.8437 181.399 96.1913 181.37C96.5463 181.34 96.8237 181.27 97.0233 181.159C97.2304 181.048 97.3709 180.845 97.4449 180.549C97.5189 180.253 97.5558 179.735 97.5558 178.996C97.5558 178.707 97.5558 178.497 97.5558 178.363C97.5558 178.223 97.5447 178.057 97.5226 177.864C97.5004 177.672 97.4819 177.539 97.4671 177.465C97.4597 177.391 97.4153 177.295 97.334 177.176C97.26 177.058 97.2008 176.984 97.1565 176.955C97.1121 176.918 97.0085 176.869 96.8458 176.81C96.6905 176.751 96.5611 176.722 96.4576 176.722C96.354 176.714 96.1691 176.703 95.9029 176.688C95.644 176.666 95.4184 176.655 95.2262 176.655C95.0413 176.655 94.7565 176.655 94.3719 176.655ZM105.766 181.381L108.751 175.89C108.847 175.675 108.965 175.527 109.106 175.446C109.246 175.357 109.435 175.32 109.671 175.335H110.182C110.515 175.335 110.681 175.468 110.681 175.734C110.681 175.808 110.648 175.901 110.581 176.012L107.164 182.191C107.061 182.405 106.939 182.553 106.798 182.635C106.658 182.708 106.469 182.742 106.232 182.734H105.278C105.042 182.749 104.853 182.716 104.713 182.635C104.572 182.546 104.45 182.394 104.346 182.18L101.007 176.012C100.948 175.893 100.918 175.801 100.918 175.734C100.918 175.608 100.963 175.512 101.052 175.446C101.14 175.372 101.262 175.335 101.418 175.335H101.917C102.154 175.32 102.338 175.357 102.472 175.446C102.612 175.527 102.73 175.675 102.827 175.89L105.766 181.381ZM118.392 181.27H113.1L112.59 182.18C112.486 182.394 112.364 182.546 112.224 182.635C112.083 182.716 111.895 182.749 111.658 182.734H111.137C110.811 182.734 110.649 182.601 110.649 182.335C110.649 182.261 110.682 182.172 110.748 182.069L114.287 175.878C114.398 175.664 114.524 175.52 114.664 175.446C114.805 175.364 114.994 175.327 115.23 175.335H116.284C116.521 175.327 116.709 175.364 116.85 175.446C116.99 175.52 117.116 175.664 117.227 175.878L120.711 182.058C120.777 182.183 120.81 182.276 120.81 182.335C120.81 182.461 120.766 182.561 120.677 182.635C120.589 182.701 120.47 182.734 120.322 182.734H119.834C119.605 182.742 119.42 182.708 119.279 182.635C119.139 182.553 119.017 182.405 118.913 182.191L118.392 181.27ZM117.749 180.072L115.741 176.533L113.755 180.072H117.749ZM124.305 181.348H128.986C129.452 181.325 129.693 181.533 129.707 181.969V182.113C129.693 182.549 129.452 182.757 128.986 182.734H123.317C123.066 182.742 122.881 182.686 122.763 182.568C122.644 182.45 122.589 182.265 122.596 182.013V176.056C122.582 175.575 122.807 175.335 123.273 175.335H123.628C124.094 175.335 124.32 175.575 124.305 176.056V181.348ZM133.158 176.633V178.386H138.416C138.889 178.386 139.126 178.578 139.126 178.962C139.126 179.354 138.889 179.55 138.416 179.55H133.158V181.436H138.682C139.148 181.414 139.389 181.618 139.403 182.047V182.124C139.389 182.553 139.148 182.757 138.682 182.734H132.192C131.941 182.742 131.756 182.686 131.638 182.568C131.519 182.45 131.464 182.265 131.471 182.013V176.056C131.464 175.804 131.519 175.62 131.638 175.501C131.756 175.383 131.941 175.327 132.192 175.335H138.616C139.082 175.313 139.322 175.516 139.337 175.945V176.023C139.322 176.452 139.082 176.655 138.616 176.633H133.158ZM146.044 181.381L149.028 175.89C149.124 175.675 149.243 175.527 149.383 175.446C149.524 175.357 149.712 175.32 149.949 175.335H150.459C150.792 175.335 150.959 175.468 150.959 175.734C150.959 175.808 150.925 175.901 150.859 176.012L147.442 182.191C147.338 182.405 147.216 182.553 147.076 182.635C146.935 182.708 146.747 182.742 146.51 182.734H145.556C145.319 182.749 145.131 182.716 144.99 182.635C144.85 182.546 144.728 182.394 144.624 182.18L141.285 176.012C141.226 175.893 141.196 175.801 141.196 175.734C141.196 175.608 141.241 175.512 141.329 175.446C141.418 175.372 141.54 175.335 141.695 175.335H142.195C142.431 175.32 142.616 175.357 142.749 175.446C142.89 175.527 143.008 175.675 143.104 175.89L146.044 181.381ZM158.67 181.27H153.378L152.868 182.18C152.764 182.394 152.642 182.546 152.502 182.635C152.361 182.716 152.172 182.749 151.936 182.734H151.414C151.089 182.734 150.926 182.601 150.926 182.335C150.926 182.261 150.96 182.172 151.026 182.069L154.565 175.878C154.676 175.664 154.802 175.52 154.942 175.446C155.083 175.364 155.271 175.327 155.508 175.335H156.562C156.799 175.327 156.987 175.364 157.128 175.446C157.268 175.52 157.394 175.664 157.505 175.878L160.988 182.058C161.055 182.183 161.088 182.276 161.088 182.335C161.088 182.461 161.044 182.561 160.955 182.635C160.866 182.701 160.748 182.734 160.6 182.734H160.112C159.883 182.742 159.698 182.708 159.557 182.635C159.417 182.553 159.295 182.405 159.191 182.191L158.67 181.27ZM158.026 180.072L156.018 176.533L154.032 180.072H158.026Z" fill="white"/>
<path id="Silver" d="M257.663 33.9259H258.129C258.667 33.8949 258.988 34.133 259.092 34.6404C259.154 34.9924 259.376 35.2306 259.76 35.3548C260.153 35.4687 260.893 35.5257 261.981 35.5257C263.202 35.5257 264.331 35.4635 265.366 35.3393C265.915 35.2668 266.272 35.1322 266.438 34.9355C266.645 34.6973 266.749 34.4074 266.749 34.0657C266.749 33.7551 266.671 33.5169 266.516 33.3513C266.371 33.1856 266.122 33.0665 265.77 32.9941C265.47 32.9319 264.378 32.8957 262.493 32.8853H261.002C259.915 32.8853 259.112 32.8387 258.595 32.7456C258.077 32.642 257.673 32.4556 257.383 32.1864C256.897 31.7412 256.653 31.0734 256.653 30.1829C256.653 28.9404 256.912 28.0914 257.43 27.6358C257.782 27.3148 258.393 27.087 259.263 26.9524C260.132 26.8074 261.427 26.735 263.145 26.735C264.502 26.735 265.496 26.7764 266.127 26.8592C266.769 26.9317 267.308 27.0818 267.743 27.3096C268.385 27.6513 268.706 28.2311 268.706 29.0491C268.706 29.3183 268.623 29.5306 268.457 29.6859C268.302 29.8412 268.079 29.9189 267.789 29.9189H267.354C267.075 29.9085 266.873 29.8619 266.749 29.7791C266.635 29.6859 266.474 29.4685 266.267 29.1268C266.122 28.8679 265.765 28.7023 265.195 28.6298C264.522 28.5469 263.917 28.5055 263.378 28.5055C261.328 28.5055 260.065 28.6246 259.589 28.8627C259.216 29.0491 259.03 29.3908 259.03 29.8878C259.03 30.3227 259.175 30.623 259.464 30.7886C259.775 30.9646 260.634 31.0527 262.043 31.0527H263.798C265.351 31.0527 266.443 31.1096 267.075 31.2235C267.706 31.3374 268.183 31.5704 268.504 31.9224C268.928 32.3573 269.14 33.0769 269.14 34.0812C269.14 35.1684 268.892 35.945 268.395 36.4109C268.064 36.7423 267.494 36.9701 266.686 37.0943C265.889 37.2186 264.631 37.2807 262.912 37.2807C260.904 37.2807 259.527 37.2186 258.781 37.0943C258.036 36.9597 257.497 36.6957 257.166 36.3022C256.876 35.9502 256.731 35.4791 256.731 34.8889C256.731 34.2469 257.042 33.9259 257.663 33.9259ZM272.377 36.178V27.8377C272.356 27.1647 272.672 26.8282 273.324 26.8282H273.821C274.473 26.8282 274.789 27.1647 274.768 27.8377V36.178C274.789 36.851 274.473 37.1875 273.821 37.1875H273.324C272.672 37.1875 272.356 36.851 272.377 36.178ZM280.717 35.2461H287.271C287.923 35.215 288.26 35.5049 288.281 36.1158V36.3177C288.26 36.9286 287.923 37.2186 287.271 37.1875H279.335C278.983 37.1979 278.724 37.1202 278.558 36.9545C278.392 36.7889 278.315 36.53 278.325 36.178V27.8377C278.304 27.1647 278.62 26.8282 279.273 26.8282H279.77C280.422 26.8282 280.738 27.1647 280.717 27.8377V35.2461ZM295.087 35.2927L299.265 27.6047C299.399 27.3044 299.565 27.0974 299.762 26.9835C299.958 26.8592 300.223 26.8074 300.554 26.8282H301.268C301.734 26.8282 301.967 27.0145 301.967 27.3873C301.967 27.4908 301.921 27.6202 301.827 27.7756L297.044 36.4265C296.899 36.7267 296.728 36.9338 296.531 37.0477C296.335 37.1513 296.07 37.1979 295.739 37.1875H294.403C294.072 37.2082 293.808 37.1616 293.611 37.0477C293.415 36.9235 293.244 36.7112 293.099 36.4109L288.424 27.7756C288.341 27.6099 288.3 27.4805 288.3 27.3873C288.3 27.2113 288.362 27.0767 288.486 26.9835C288.61 26.8799 288.781 26.8282 288.999 26.8282H289.697C290.029 26.8074 290.288 26.8592 290.474 26.9835C290.671 27.0974 290.836 27.3044 290.971 27.6047L295.087 35.2927ZM307.083 28.6453V31.0992H314.445C315.107 31.0992 315.439 31.3685 315.439 31.9069C315.439 32.4556 315.107 32.73 314.445 32.73H307.083V35.3703H314.817C315.47 35.3393 315.806 35.624 315.827 36.2246V36.3333C315.806 36.9338 315.47 37.2186 314.817 37.1875H305.732C305.38 37.1979 305.121 37.1202 304.955 36.9545C304.789 36.7889 304.712 36.53 304.722 36.178V27.8377C304.712 27.4856 304.789 27.2268 304.955 27.0611C305.121 26.8955 305.38 26.8178 305.732 26.8282H314.724C315.377 26.7971 315.713 27.0818 315.734 27.6824V27.7911C315.713 28.3916 315.377 28.6764 314.724 28.6453H307.083ZM319.946 26.8282H327.712C328.613 26.8282 329.301 26.8903 329.778 27.0145C330.254 27.1388 330.632 27.351 330.911 27.6513C331.357 28.138 331.579 28.9663 331.579 30.1363C331.579 31.2028 331.429 31.9224 331.129 32.2952C330.849 32.6472 330.414 32.875 329.824 32.9785C330.477 33.0303 330.906 33.196 331.113 33.4755C331.32 33.7551 331.419 34.309 331.408 35.1374V36.178C331.429 36.851 331.113 37.1875 330.461 37.1875H329.949C329.296 37.1875 328.98 36.851 329.001 36.178V35.6344C328.991 34.9303 328.861 34.4747 328.613 34.2676C328.375 34.0502 327.862 33.9466 327.075 33.957H321.313V36.178C321.334 36.851 321.018 37.1875 320.366 37.1875H319.884C319.232 37.1875 318.916 36.851 318.937 36.178V27.8377C318.927 27.4856 319.004 27.2268 319.17 27.0611C319.336 26.8955 319.594 26.8178 319.946 26.8282ZM321.313 32.0467H326.998C327.867 32.0467 328.447 31.9431 328.737 31.736C329.027 31.5289 329.172 31.1148 329.172 30.4935C329.172 29.7791 329.037 29.3132 328.768 29.0957C328.499 28.8783 327.924 28.7696 327.044 28.7696H321.313V32.0467Z" fill="#222123"/>
</g>
<defs>
<filter id="filter0_d_3_137" x="-22.1875" y="-16.6406" width="399.375" height="247.391" filterUnits="userSpaceOnUse" color-interpolation-filters="sRGB">
<feFlood flood-opacity="0" result="BackgroundImageFix"/>
<feColorMatrix in="SourceAlpha" type="matrix" values="0 0 0 0 0 0 0 0 0 0 0 0 0 0 0 0 0 0 127 0" result="hardAlpha"/>
<feOffset dy="5.54688"/>
<feGaussianBlur stdDeviation="11.0938"/>
<feComposite in2="hardAlpha" operator="out"/>
<feColorMatrix type="matrix" values="0 0 0 0 0 0 0 0 0 0 0 0 0 0 0 0 0 0 0.3 0"/>
<feBlend mode="normal" in2="BackgroundImageFix" result="effect1_dropShadow_3_137"/>
<feBlend mode="normal" in="SourceGraphic" in2="effect1_dropShadow_3_137" result="shape"/>
</filter>
<filter id="filter1_d_3_137" x="119.799" y="-122.045" width="361.534" height="361.534" filterUnits="userSpaceOnUse" color-interpolation-filters="sRGB">
<feFlood flood-opacity="0" result="BackgroundImageFix"/>
<feColorMatrix in="SourceAlpha" type="matrix" values="0 0 0 0 0 0 0 0 0 0 0 0 0 0 0 0 0 0 127 0" result="hardAlpha"/>
<feOffset/>
<feGaussianBlur stdDeviation="13.8672"/>
<feComposite in2="hardAlpha" operator="out"/>
<feColorMatrix type="matrix" values="0 0 0 0 0 0 0 0 0 0 0 0 0 0 0 0 0 0 0.3 0"/>
<feBlend mode="normal" in2="BackgroundImageFix" result="effect1_dropShadow_3_137"/>
<feBlend mode="normal" in="SourceGraphic" in2="effect1_dropShadow_3_137" result="shape"/>
</filter>
<linearGradient id="paint0_linear_3_137" x1="374.414" y1="-100.398" x2="374.414" y2="132.57" gradientUnits="userSpaceOnUse">
<stop offset="0.49361" stop-color="white"/>
<stop offset="0.923606" stop-color="#DEDEDE"/>
</linearGradient>
<clipPath id="clip0_3_137">
<rect width="116.484" height="17.1953" fill="white" transform="translate(22.1875 22.1875)"/>
</clipPath>
</defs>
</svg>
