<svg width="640" height="366" viewBox="0 0 640 366" fill="none" xmlns="http://www.w3.org/2000/svg">
<rect width="640" height="366" fill="#222123"/>
<path d="M320 30C320 13.4315 333.431 0 350 0H640V366H350C333.431 366 320 352.569 320 336V30Z" fill="url(#paint0_linear_1_74)"/>
<path d="M37.936 38.504C39.1093 38.504 40.0373 38.7867 40.72 39.352C41.4027 39.9067 41.744 40.6587 41.744 41.608V41.8C41.744 42.7493 41.4027 43.5067 40.72 44.072C40.0373 44.6267 39.1093 44.904 37.936 44.904H33.072V49H31.472V38.504H37.936ZM37.904 43.48C38.608 43.48 39.152 43.336 39.536 43.048C39.9307 42.7493 40.128 42.3333 40.128 41.8V41.608C40.128 41.0747 39.9307 40.664 39.536 40.376C39.152 40.0773 38.608 39.928 37.904 39.928H33.072V43.48H37.904ZM53.6729 47.64V49H52.6169C52.0942 49 51.6569 48.8987 51.3049 48.696C50.9529 48.4933 50.7075 48.2053 50.5689 47.832C50.1422 48.2907 49.6302 48.632 49.0329 48.856C48.4355 49.08 47.7315 49.192 46.9209 49.192C45.7795 49.192 44.8995 48.9947 44.2809 48.6C43.6622 48.1947 43.3529 47.6187 43.3529 46.872C43.3529 46.232 43.5929 45.72 44.0729 45.336C44.5529 44.952 45.2569 44.712 46.1849 44.616L50.4569 44.168C50.4249 43.5707 50.1742 43.1173 49.7049 42.808C49.2355 42.4987 48.5635 42.344 47.6889 42.344C46.8462 42.344 46.1742 42.488 45.6729 42.776C45.1715 43.064 44.9209 43.448 44.9209 43.928V43.992H43.4009V43.928C43.4009 43.3307 43.5769 42.8027 43.9289 42.344C44.2915 41.8747 44.7982 41.5173 45.4489 41.272C46.0995 41.016 46.8515 40.888 47.7049 40.888C49.0595 40.888 50.1102 41.1867 50.8569 41.784C51.6035 42.3813 51.9769 43.2187 51.9769 44.296V46.76C51.9769 47.0373 52.0622 47.256 52.2329 47.416C52.4035 47.5653 52.6489 47.64 52.9689 47.64H53.6729ZM46.8889 47.832C47.7529 47.832 48.4942 47.6987 49.1129 47.432C49.7315 47.1547 50.1795 46.7653 50.4569 46.264V45.416L46.5209 45.832C45.9662 45.8853 45.5502 45.9973 45.2729 46.168C45.0062 46.3387 44.8729 46.5733 44.8729 46.872C44.8729 47.512 45.5449 47.832 46.8889 47.832ZM62.422 44.968C62.8593 45.1493 63.1953 45.3893 63.43 45.688C63.6753 45.976 63.798 46.3013 63.798 46.664V46.776C63.798 47.5653 63.4193 48.168 62.662 48.584C61.9047 48.9893 60.7953 49.192 59.334 49.192C56.1767 49.192 54.598 48.0933 54.598 45.896V45.784H56.118V45.896C56.118 46.5573 56.3793 47.048 56.902 47.368C57.4353 47.6773 58.2567 47.832 59.366 47.832C61.2647 47.832 62.214 47.4587 62.214 46.712V46.6C62.214 45.992 61.6433 45.688 60.502 45.688H57.846V44.344H60.326C61.446 44.344 62.006 44.0293 62.006 43.4V43.288C62.006 42.9467 61.766 42.6907 61.286 42.52C60.8167 42.3387 60.118 42.248 59.19 42.248C58.1233 42.248 57.3447 42.4027 56.854 42.712C56.3633 43.0213 56.118 43.5173 56.118 44.2V44.312H54.598V44.2C54.598 43.112 54.9927 42.2907 55.782 41.736C56.5713 41.1707 57.734 40.888 59.27 40.888C60.6567 40.888 61.718 41.096 62.454 41.512C63.2007 41.9173 63.574 42.4987 63.574 43.256V43.368C63.574 43.6987 63.4727 44.0027 63.27 44.28C63.0673 44.5467 62.7847 44.776 62.422 44.968ZM77.9355 41.08V49H76.4635V42.664L76.0955 43.32L72.6715 49H71.3115L67.8875 43.32L67.5195 42.664V49H66.0475V41.08H68.2235L71.9995 47.4L75.7595 41.08H77.9355ZM89.2809 45.544H81.6489C81.7022 46.2373 82.0009 46.7867 82.5449 47.192C83.0889 47.5867 83.8142 47.784 84.7209 47.784C85.5635 47.784 86.2462 47.6453 86.7689 47.368C87.3022 47.08 87.5902 46.7013 87.6329 46.232H89.2809C89.1955 47.16 88.7475 47.8853 87.9369 48.408C87.1369 48.9307 86.0649 49.192 84.7209 49.192C83.7715 49.192 82.9449 49.032 82.2409 48.712C81.5369 48.3813 80.9929 47.9173 80.6089 47.32C80.2355 46.7227 80.0489 46.024 80.0489 45.224V44.888C80.0489 44.0773 80.2355 43.3733 80.6089 42.776C80.9929 42.168 81.5369 41.704 82.2409 41.384C82.9449 41.0533 83.7715 40.888 84.7209 40.888C86.1395 40.888 87.2542 41.24 88.0649 41.944C88.8755 42.6373 89.2809 43.5973 89.2809 44.824V45.544ZM84.7209 42.296C83.8675 42.296 83.1742 42.472 82.6409 42.824C82.1182 43.1653 81.7982 43.6453 81.6809 44.264H87.6489C87.5529 43.6453 87.2489 43.1653 86.7369 42.824C86.2249 42.472 85.5529 42.296 84.7209 42.296ZM95.9193 40.888C96.8686 40.888 97.7006 41.0533 98.4153 41.384C99.1299 41.7147 99.6793 42.184 100.063 42.792C100.447 43.3893 100.639 44.0933 100.639 44.904V45.16C100.639 45.9707 100.447 46.68 100.063 47.288C99.6793 47.896 99.1299 48.3653 98.4153 48.696C97.7006 49.0267 96.8686 49.192 95.9193 49.192C95.3326 49.192 94.7833 49.1013 94.2713 48.92C93.7593 48.7387 93.3113 48.4773 92.9273 48.136V51.72H91.3913V41.08H92.8153L92.8793 41.992C93.2739 41.64 93.7326 41.368 94.2552 41.176C94.7779 40.984 95.3326 40.888 95.9193 40.888ZM99.0553 44.904C99.0553 44.0933 98.7726 43.4587 98.2073 43C97.6526 42.5307 96.8846 42.296 95.9033 42.296C95.2739 42.296 94.6926 42.408 94.1593 42.632C93.6366 42.856 93.2259 43.16 92.9273 43.544V46.52C93.2259 46.904 93.6366 47.2133 94.1593 47.448C94.6926 47.672 95.2739 47.784 95.9033 47.784C96.8846 47.784 97.6526 47.5493 98.2073 47.08C98.7726 46.6107 99.0553 45.9707 99.0553 45.16V44.904ZM121.029 47.576V51.128H119.429V49H109.765V51.128H108.181V47.576H109.541C110.17 46.6053 110.501 45.384 110.533 43.912L110.629 38.504H119.381V47.576H121.029ZM112.005 43.96C111.973 45.432 111.685 46.6373 111.141 47.576H117.797V39.928H112.101L112.005 43.96ZM131.359 45.544H123.727C123.78 46.2373 124.079 46.7867 124.623 47.192C125.167 47.5867 125.892 47.784 126.799 47.784C127.642 47.784 128.324 47.6453 128.847 47.368C129.38 47.08 129.668 46.7013 129.711 46.232H131.359C131.274 47.16 130.826 47.8853 130.015 48.408C129.215 48.9307 128.143 49.192 126.799 49.192C125.85 49.192 125.023 49.032 124.319 48.712C123.615 48.3813 123.071 47.9173 122.687 47.32C122.314 46.7227 122.127 46.024 122.127 45.224V44.888C122.127 44.0773 122.314 43.3733 122.687 42.776C123.071 42.168 123.615 41.704 124.319 41.384C125.023 41.0533 125.85 40.888 126.799 40.888C128.218 40.888 129.332 41.24 130.143 41.944C130.954 42.6373 131.359 43.5973 131.359 44.824V45.544ZM126.799 42.296C125.946 42.296 125.252 42.472 124.719 42.824C124.196 43.1653 123.876 43.6453 123.759 44.264H129.727C129.631 43.6453 129.327 43.1653 128.815 42.824C128.303 42.472 127.631 42.296 126.799 42.296ZM142.077 41.08V49H140.541V42.424H135.005V49H133.469V41.08H142.077ZM148.942 49.192C147.971 49.192 147.128 49.032 146.414 48.712C145.699 48.3813 145.15 47.9173 144.766 47.32C144.382 46.712 144.19 46.0027 144.19 45.192V44.92C144.19 44.0987 144.382 43.384 144.766 42.776C145.15 42.168 145.699 41.704 146.414 41.384C147.128 41.0533 147.971 40.888 148.942 40.888C149.902 40.888 150.734 41.0533 151.438 41.384C152.152 41.704 152.696 42.168 153.07 42.776C153.454 43.384 153.646 44.0987 153.646 44.92V45.192C153.646 46.0027 153.454 46.712 153.07 47.32C152.696 47.9173 152.152 48.3813 151.438 48.712C150.734 49.032 149.902 49.192 148.942 49.192ZM148.926 47.784C149.907 47.784 150.675 47.5547 151.23 47.096C151.784 46.6373 152.062 46.0027 152.062 45.192V44.92C152.062 44.0987 151.784 43.4587 151.23 43C150.675 42.5307 149.907 42.296 148.926 42.296C147.923 42.296 147.144 42.5253 146.59 42.984C146.046 43.4427 145.774 44.088 145.774 44.92V45.192C145.774 46.0027 146.051 46.6373 146.606 47.096C147.171 47.5547 147.944 47.784 148.926 47.784ZM163.063 44.968C163.5 45.1493 163.836 45.3893 164.071 45.688C164.316 45.976 164.439 46.3013 164.439 46.664V46.776C164.439 47.5653 164.06 48.168 163.303 48.584C162.545 48.9893 161.436 49.192 159.975 49.192C156.817 49.192 155.239 48.0933 155.239 45.896V45.784H156.759V45.896C156.759 46.5573 157.02 47.048 157.543 47.368C158.076 47.6773 158.897 47.832 160.007 47.832C161.905 47.832 162.855 47.4587 162.855 46.712V46.6C162.855 45.992 162.284 45.688 161.143 45.688H158.487V44.344H160.967C162.087 44.344 162.647 44.0293 162.647 43.4V43.288C162.647 42.9467 162.407 42.6907 161.927 42.52C161.457 42.3387 160.759 42.248 159.831 42.248C158.764 42.248 157.985 42.4027 157.495 42.712C157.004 43.0213 156.759 43.5173 156.759 44.2V44.312H155.239V44.2C155.239 43.112 155.633 42.2907 156.423 41.736C157.212 41.1707 158.375 40.888 159.911 40.888C161.297 40.888 162.359 41.096 163.095 41.512C163.841 41.9173 164.215 42.4987 164.215 43.256V43.368C164.215 43.6987 164.113 44.0027 163.911 44.28C163.708 44.5467 163.425 44.776 163.063 44.968ZM168.16 41.08V47.128L173.968 41.08H175.376V49H173.904V42.952L168.096 49H166.688V41.08H168.16ZM176.458 42.456V41.08H185.77V42.456H181.914V49H180.378V42.456H176.458ZM197.048 47.64V49H195.992C195.469 49 195.032 48.8987 194.68 48.696C194.328 48.4933 194.083 48.2053 193.944 47.832C193.517 48.2907 193.005 48.632 192.408 48.856C191.811 49.08 191.107 49.192 190.296 49.192C189.155 49.192 188.275 48.9947 187.656 48.6C187.037 48.1947 186.728 47.6187 186.728 46.872C186.728 46.232 186.968 45.72 187.448 45.336C187.928 44.952 188.632 44.712 189.56 44.616L193.832 44.168C193.8 43.5707 193.549 43.1173 193.08 42.808C192.611 42.4987 191.939 42.344 191.064 42.344C190.221 42.344 189.549 42.488 189.048 42.776C188.547 43.064 188.296 43.448 188.296 43.928V43.992H186.776V43.928C186.776 43.3307 186.952 42.8027 187.304 42.344C187.667 41.8747 188.173 41.5173 188.824 41.272C189.475 41.016 190.227 40.888 191.08 40.888C192.435 40.888 193.485 41.1867 194.232 41.784C194.979 42.3813 195.352 43.2187 195.352 44.296V46.76C195.352 47.0373 195.437 47.256 195.608 47.416C195.779 47.5653 196.024 47.64 196.344 47.64H197.048ZM190.264 47.832C191.128 47.832 191.869 47.6987 192.488 47.432C193.107 47.1547 193.555 46.7653 193.832 46.264V45.416L189.896 45.832C189.341 45.8853 188.925 45.9973 188.648 46.168C188.381 46.3387 188.248 46.5733 188.248 46.872C188.248 47.512 188.92 47.832 190.264 47.832Z" fill="white" fill-opacity="0.6"/>
<path d="M46.536 81.864V84H31.92V82.08L38.856 78.072C40.216 77.288 41.224 76.656 41.88 76.176C42.536 75.68 42.976 75.224 43.2 74.808C43.44 74.392 43.56 73.896 43.56 73.32V73.08C43.56 72.152 43.168 71.44 42.384 70.944C41.616 70.448 40.504 70.2 39.048 70.2C37.544 70.2 36.4 70.464 35.616 70.992C34.848 71.52 34.464 72.288 34.464 73.296V73.776H32.064V73.272C32.064 71.56 32.664 70.248 33.864 69.336C35.064 68.424 36.776 67.968 39 67.968C41.176 67.968 42.88 68.416 44.112 69.312C45.344 70.208 45.96 71.44 45.96 73.008V73.248C45.96 74.096 45.792 74.84 45.456 75.48C45.12 76.12 44.536 76.768 43.704 77.424C42.888 78.08 41.688 78.864 40.104 79.776L36.456 81.864H46.536ZM67.5666 84.288C65.9666 84.288 64.5506 84 63.3186 83.424C62.1026 82.848 61.1506 82.04 60.4626 81C59.7906 79.96 59.4546 78.768 59.4546 77.424V74.856C59.4546 73.496 59.7906 72.296 60.4626 71.256C61.1506 70.216 62.1026 69.408 63.3186 68.832C64.5506 68.256 65.9666 67.968 67.5666 67.968C69.1506 67.968 70.5506 68.256 71.7666 68.832C72.9826 69.408 73.9266 70.216 74.5986 71.256C75.2706 72.296 75.6066 73.496 75.6066 74.856V77.424C75.6066 78.784 75.2706 79.984 74.5986 81.024C73.9266 82.048 72.9826 82.848 71.7666 83.424C70.5506 84 69.1506 84.288 67.5666 84.288ZM67.5666 82.056C69.3266 82.056 70.7106 81.648 71.7186 80.832C72.7266 80.016 73.2306 78.888 73.2306 77.448V74.832C73.2306 73.408 72.7186 72.28 71.6946 71.448C70.6866 70.616 69.3026 70.2 67.5426 70.2C65.7666 70.2 64.3666 70.616 63.3426 71.448C62.3346 72.264 61.8306 73.392 61.8306 74.832V77.448C61.8306 78.888 62.3346 80.016 63.3426 80.832C64.3666 81.648 65.7746 82.056 67.5666 82.056ZM87.1838 84.288C85.5838 84.288 84.1678 84 82.9358 83.424C81.7198 82.848 80.7678 82.04 80.0798 81C79.4078 79.96 79.0718 78.768 79.0718 77.424V74.856C79.0718 73.496 79.4078 72.296 80.0798 71.256C80.7678 70.216 81.7198 69.408 82.9358 68.832C84.1678 68.256 85.5838 67.968 87.1838 67.968C88.7678 67.968 90.1678 68.256 91.3838 68.832C92.5998 69.408 93.5438 70.216 94.2158 71.256C94.8878 72.296 95.2238 73.496 95.2238 74.856V77.424C95.2238 78.784 94.8878 79.984 94.2158 81.024C93.5438 82.048 92.5998 82.848 91.3838 83.424C90.1678 84 88.7678 84.288 87.1838 84.288ZM87.1838 82.056C88.9438 82.056 90.3278 81.648 91.3358 80.832C92.3438 80.016 92.8478 78.888 92.8478 77.448V74.832C92.8478 73.408 92.3358 72.28 91.3118 71.448C90.3038 70.616 88.9198 70.2 87.1598 70.2C85.3838 70.2 83.9838 70.616 82.9598 71.448C81.9518 72.264 81.4478 73.392 81.4478 74.832V77.448C81.4478 78.888 81.9518 80.016 82.9598 80.832C83.9838 81.648 85.3918 82.056 87.1838 82.056ZM106.801 84.288C105.201 84.288 103.785 84 102.553 83.424C101.337 82.848 100.385 82.04 99.6969 81C99.0249 79.96 98.6889 78.768 98.6889 77.424V74.856C98.6889 73.496 99.0249 72.296 99.6969 71.256C100.385 70.216 101.337 69.408 102.553 68.832C103.785 68.256 105.201 67.968 106.801 67.968C108.385 67.968 109.785 68.256 111.001 68.832C112.217 69.408 113.161 70.216 113.833 71.256C114.505 72.296 114.841 73.496 114.841 74.856V77.424C114.841 78.784 114.505 79.984 113.833 81.024C113.161 82.048 112.217 82.848 111.001 83.424C109.785 84 108.385 84.288 106.801 84.288ZM106.801 82.056C108.561 82.056 109.945 81.648 110.953 80.832C111.961 80.016 112.465 78.888 112.465 77.448V74.832C112.465 73.408 111.953 72.28 110.929 71.448C109.921 70.616 108.537 70.2 106.777 70.2C105.001 70.2 103.601 70.616 102.577 71.448C101.569 72.264 101.065 73.392 101.065 74.832V77.448C101.065 78.888 101.569 80.016 102.577 80.832C103.601 81.648 105.009 82.056 106.801 82.056ZM136.028 84.288C134.428 84.288 133.012 84 131.78 83.424C130.564 82.848 129.612 82.04 128.924 81C128.252 79.96 127.916 78.768 127.916 77.424V74.856C127.916 73.496 128.252 72.296 128.924 71.256C129.612 70.216 130.564 69.408 131.78 68.832C133.012 68.256 134.428 67.968 136.028 67.968C137.612 67.968 139.012 68.256 140.228 68.832C141.444 69.408 142.388 70.216 143.06 71.256C143.732 72.296 144.068 73.496 144.068 74.856V77.424C144.068 78.784 143.732 79.984 143.06 81.024C142.388 82.048 141.444 82.848 140.228 83.424C139.012 84 137.612 84.288 136.028 84.288ZM136.028 82.056C137.788 82.056 139.172 81.648 140.18 80.832C141.188 80.016 141.692 78.888 141.692 77.448V74.832C141.692 73.408 141.18 72.28 140.156 71.448C139.148 70.616 137.764 70.2 136.004 70.2C134.228 70.2 132.828 70.616 131.804 71.448C130.796 72.264 130.292 73.392 130.292 74.832V77.448C130.292 78.888 130.796 80.016 131.804 80.832C132.828 81.648 134.236 82.056 136.028 82.056ZM155.645 84.288C154.045 84.288 152.629 84 151.397 83.424C150.181 82.848 149.229 82.04 148.541 81C147.869 79.96 147.533 78.768 147.533 77.424V74.856C147.533 73.496 147.869 72.296 148.541 71.256C149.229 70.216 150.181 69.408 151.397 68.832C152.629 68.256 154.045 67.968 155.645 67.968C157.229 67.968 158.629 68.256 159.845 68.832C161.061 69.408 162.005 70.216 162.677 71.256C163.349 72.296 163.685 73.496 163.685 74.856V77.424C163.685 78.784 163.349 79.984 162.677 81.024C162.005 82.048 161.061 82.848 159.845 83.424C158.629 84 157.229 84.288 155.645 84.288ZM155.645 82.056C157.405 82.056 158.789 81.648 159.797 80.832C160.805 80.016 161.309 78.888 161.309 77.448V74.832C161.309 73.408 160.797 72.28 159.773 71.448C158.765 70.616 157.381 70.2 155.621 70.2C153.845 70.2 152.445 70.616 151.421 71.448C150.413 72.264 149.909 73.392 149.909 74.832V77.448C149.909 78.888 150.413 80.016 151.421 80.832C152.445 81.648 153.853 82.056 155.645 82.056ZM175.262 84.288C173.662 84.288 172.246 84 171.014 83.424C169.798 82.848 168.846 82.04 168.158 81C167.486 79.96 167.15 78.768 167.15 77.424V74.856C167.15 73.496 167.486 72.296 168.158 71.256C168.846 70.216 169.798 69.408 171.014 68.832C172.246 68.256 173.662 67.968 175.262 67.968C176.846 67.968 178.246 68.256 179.462 68.832C180.678 69.408 181.622 70.216 182.294 71.256C182.966 72.296 183.302 73.496 183.302 74.856V77.424C183.302 78.784 182.966 79.984 182.294 81.024C181.622 82.048 180.678 82.848 179.462 83.424C178.246 84 176.846 84.288 175.262 84.288ZM175.262 82.056C177.022 82.056 178.406 81.648 179.414 80.832C180.422 80.016 180.926 78.888 180.926 77.448V74.832C180.926 73.408 180.414 72.28 179.39 71.448C178.382 70.616 176.998 70.2 175.238 70.2C173.462 70.2 172.062 70.616 171.038 71.448C170.03 72.264 169.526 73.392 169.526 74.832V77.448C169.526 78.888 170.03 80.016 171.038 80.832C172.062 81.648 173.47 82.056 175.262 82.056ZM206.552 68.256C208.312 68.256 209.704 68.68 210.728 69.528C211.752 70.36 212.264 71.488 212.264 72.912V73.2C212.264 74.624 211.752 75.76 210.728 76.608C209.704 77.44 208.312 77.856 206.552 77.856H199.256V84H196.856V68.256H206.552ZM206.504 75.72C207.56 75.72 208.376 75.504 208.952 75.072C209.544 74.624 209.84 74 209.84 73.2V72.912C209.84 72.112 209.544 71.496 208.952 71.064C208.376 70.616 207.56 70.392 206.504 70.392H199.256V75.72H206.504ZM229.379 72.12V72.456L222.611 85.32C222.083 86.312 221.467 87.016 220.763 87.432C220.075 87.864 219.131 88.08 217.931 88.08H215.531V86.04H217.931C218.603 86.04 219.107 85.936 219.443 85.728C219.779 85.536 220.099 85.144 220.403 84.552L220.619 84.168L214.427 72.456V72.12H216.875L221.915 81.912L226.931 72.12H229.379ZM239.465 72.696C240.777 72.696 241.929 72.928 242.921 73.392C243.913 73.84 244.681 74.488 245.225 75.336C245.769 76.168 246.041 77.136 246.041 78.24V78.816C246.041 79.904 245.745 80.864 245.153 81.696C244.577 82.512 243.761 83.152 242.705 83.616C241.649 84.064 240.417 84.288 239.009 84.288C236.689 84.288 234.905 83.68 233.657 82.464C232.409 81.232 231.785 79.48 231.785 77.208V75.576C231.785 73.336 232.369 71.624 233.537 70.44C234.705 69.24 236.473 68.552 238.841 68.376L241.985 68.136C242.289 68.12 242.505 68.064 242.633 67.968C242.777 67.856 242.849 67.704 242.849 67.512V67.296H245.321V67.584C245.321 68.384 245.089 69.008 244.625 69.456C244.177 69.888 243.489 70.136 242.561 70.2L238.889 70.488C237.225 70.616 235.993 71.016 235.193 71.688C234.409 72.36 234.009 73.336 233.993 74.616C234.649 74.008 235.449 73.536 236.393 73.2C237.337 72.864 238.361 72.696 239.465 72.696ZM243.665 78.288C243.665 77.2 243.249 76.344 242.417 75.72C241.585 75.096 240.433 74.784 238.961 74.784C236.849 74.784 235.225 75.464 234.089 76.824V77.784C234.089 79.24 234.497 80.344 235.313 81.096C236.145 81.832 237.361 82.2 238.961 82.2C240.417 82.2 241.561 81.896 242.393 81.288C243.241 80.68 243.665 79.848 243.665 78.792V78.288ZM250.477 84.288C250.045 84.288 249.693 84.152 249.421 83.88C249.149 83.608 249.013 83.264 249.013 82.848C249.013 82.432 249.149 82.088 249.421 81.816C249.693 81.544 250.045 81.408 250.477 81.408C250.909 81.408 251.261 81.544 251.533 81.816C251.805 82.088 251.941 82.432 251.941 82.848C251.941 83.264 251.805 83.608 251.533 83.88C251.261 84.152 250.909 84.288 250.477 84.288Z" fill="white"/>
<path d="M37.104 139.192C35.8773 139.192 34.8053 138.979 33.888 138.552C32.9707 138.115 32.2613 137.496 31.76 136.696C31.2693 135.896 31.024 134.963 31.024 133.896V133.624C31.024 132.557 31.2693 131.624 31.76 130.824C32.2613 130.024 32.9707 129.405 33.888 128.968C34.8053 128.531 35.8773 128.312 37.104 128.312C38.2133 128.312 39.2107 128.499 40.096 128.872C40.992 129.245 41.6907 129.763 42.192 130.424C42.704 131.075 42.96 131.805 42.96 132.616V132.76H41.344V132.616C41.344 132.083 41.1627 131.603 40.8 131.176C40.4373 130.749 39.9307 130.413 39.28 130.168C38.64 129.923 37.9147 129.8 37.104 129.8C35.6747 129.8 34.5707 130.131 33.792 130.792C33.024 131.453 32.64 132.392 32.64 133.608V133.912C32.64 135.128 33.024 136.067 33.792 136.728C34.5707 137.379 35.6747 137.704 37.104 137.704C37.9253 137.704 38.656 137.587 39.296 137.352C39.9467 137.107 40.448 136.771 40.8 136.344C41.1627 135.917 41.344 135.437 41.344 134.904V134.744H42.96V134.904C42.96 135.715 42.704 136.445 42.192 137.096C41.6907 137.747 40.992 138.259 40.096 138.632C39.2107 139.005 38.2133 139.192 37.104 139.192ZM54.4484 138.776V139H52.7044L49.2164 135.672H46.8804V139H45.3444V131.08H46.8804V134.328H49.1684L52.4644 131.08H54.2404V131.304L50.5764 134.968L54.4484 138.776ZM57.8008 131.08V137.128L63.6088 131.08H65.0168V139H63.5448V132.952L57.7368 139H56.3288V131.08H57.8008ZM78.295 137.64V141.048H76.775V139H68.263V141.048H66.743L66.727 137.64H67.959C68.4923 136.84 68.7643 135.853 68.775 134.68L68.823 131.08H76.711V137.64H78.295ZM75.191 137.64V132.424H70.231L70.183 134.68C70.1723 135.32 70.1083 135.88 69.991 136.36C69.8737 136.829 69.703 137.256 69.479 137.64H75.191ZM89.0265 138.776V139H87.2825L83.7945 135.672H81.4585V139H79.9225V131.08H81.4585V134.328H83.7465L87.0425 131.08H88.8185V131.304L85.1545 134.968L89.0265 138.776ZM100.454 137.64V139H99.3981C98.8755 139 98.4381 138.899 98.0861 138.696C97.7341 138.493 97.4888 138.205 97.3501 137.832C96.9235 138.291 96.4115 138.632 95.8141 138.856C95.2168 139.08 94.5128 139.192 93.7021 139.192C92.5608 139.192 91.6808 138.995 91.0621 138.6C90.4435 138.195 90.1341 137.619 90.1341 136.872C90.1341 136.232 90.3741 135.72 90.8541 135.336C91.3341 134.952 92.0381 134.712 92.9661 134.616L97.2381 134.168C97.2061 133.571 96.9555 133.117 96.4861 132.808C96.0168 132.499 95.3448 132.344 94.4701 132.344C93.6275 132.344 92.9555 132.488 92.4541 132.776C91.9528 133.064 91.7021 133.448 91.7021 133.928V133.992H90.1821V133.928C90.1821 133.331 90.3581 132.803 90.7101 132.344C91.0728 131.875 91.5795 131.517 92.2301 131.272C92.8808 131.016 93.6328 130.888 94.4861 130.888C95.8408 130.888 96.8915 131.187 97.6381 131.784C98.3848 132.381 98.7581 133.219 98.7581 134.296V136.76C98.7581 137.037 98.8435 137.256 99.0141 137.416C99.1848 137.565 99.4301 137.64 99.7501 137.64H100.454ZM93.6701 137.832C94.5341 137.832 95.2755 137.699 95.8941 137.432C96.5128 137.155 96.9608 136.765 97.2381 136.264V135.416L93.3021 135.832C92.7475 135.885 92.3315 135.997 92.0541 136.168C91.7875 136.339 91.6541 136.573 91.6541 136.872C91.6541 137.512 92.3261 137.832 93.6701 137.832ZM110.01 128.504V133.032H116.97V128.504H118.57V139H116.97V134.472H110.01V139H108.41V128.504H110.01ZM131.423 137.64V139H130.367C129.844 139 129.407 138.899 129.055 138.696C128.703 138.493 128.458 138.205 128.319 137.832C127.892 138.291 127.38 138.632 126.783 138.856C126.186 139.08 125.482 139.192 124.671 139.192C123.53 139.192 122.65 138.995 122.031 138.6C121.412 138.195 121.103 137.619 121.103 136.872C121.103 136.232 121.343 135.72 121.823 135.336C122.303 134.952 123.007 134.712 123.935 134.616L128.207 134.168C128.175 133.571 127.924 133.117 127.455 132.808C126.986 132.499 126.314 132.344 125.439 132.344C124.596 132.344 123.924 132.488 123.423 132.776C122.922 133.064 122.671 133.448 122.671 133.928V133.992H121.151V133.928C121.151 133.331 121.327 132.803 121.679 132.344C122.042 131.875 122.548 131.517 123.199 131.272C123.85 131.016 124.602 130.888 125.455 130.888C126.81 130.888 127.86 131.187 128.607 131.784C129.354 132.381 129.727 133.219 129.727 134.296V136.76C129.727 137.037 129.812 137.256 129.983 137.416C130.154 137.565 130.399 137.64 130.719 137.64H131.423ZM124.639 137.832C125.503 137.832 126.244 137.699 126.863 137.432C127.482 137.155 127.93 136.765 128.207 136.264V135.416L124.271 135.832C123.716 135.885 123.3 135.997 123.023 136.168C122.756 136.339 122.623 136.573 122.623 136.872C122.623 137.512 123.295 137.832 124.639 137.832ZM148.969 138.76V139H147.337L146.089 136.344H140.169L138.921 139H137.289V138.76L142.249 128.504H144.009L148.969 138.76ZM145.401 134.904L143.129 130.088L140.857 134.904H145.401ZM155.169 130.888C156.119 130.888 156.951 131.053 157.665 131.384C158.38 131.715 158.929 132.184 159.313 132.792C159.697 133.389 159.889 134.093 159.889 134.904V135.16C159.889 135.971 159.697 136.68 159.313 137.288C158.929 137.896 158.38 138.365 157.665 138.696C156.951 139.027 156.119 139.192 155.169 139.192C154.583 139.192 154.033 139.101 153.521 138.92C153.009 138.739 152.561 138.477 152.177 138.136V141.72H150.641V131.08H152.065L152.129 131.992C152.524 131.64 152.983 131.368 153.505 131.176C154.028 130.984 154.583 130.888 155.169 130.888ZM158.305 134.904C158.305 134.093 158.023 133.459 157.457 133C156.903 132.531 156.135 132.296 155.153 132.296C154.524 132.296 153.943 132.408 153.409 132.632C152.887 132.856 152.476 133.16 152.177 133.544V136.52C152.476 136.904 152.887 137.213 153.409 137.448C153.943 137.672 154.524 137.784 155.153 137.784C156.135 137.784 156.903 137.549 157.457 137.08C158.023 136.611 158.305 135.971 158.305 135.16V134.904ZM170.625 135.544H162.993C163.046 136.237 163.345 136.787 163.889 137.192C164.433 137.587 165.158 137.784 166.065 137.784C166.907 137.784 167.59 137.645 168.113 137.368C168.646 137.08 168.934 136.701 168.977 136.232H170.625C170.539 137.16 170.091 137.885 169.281 138.408C168.481 138.931 167.409 139.192 166.065 139.192C165.115 139.192 164.289 139.032 163.585 138.712C162.881 138.381 162.337 137.917 161.953 137.32C161.579 136.723 161.393 136.024 161.393 135.224V134.888C161.393 134.077 161.579 133.373 161.953 132.776C162.337 132.168 162.881 131.704 163.585 131.384C164.289 131.053 165.115 130.888 166.065 130.888C167.483 130.888 168.598 131.24 169.409 131.944C170.219 132.637 170.625 133.597 170.625 134.824V135.544ZM166.065 132.296C165.211 132.296 164.518 132.472 163.985 132.824C163.462 133.165 163.142 133.645 163.025 134.264H168.993C168.897 133.645 168.593 133.165 168.081 132.824C167.569 132.472 166.897 132.296 166.065 132.296ZM174.271 131.08V134.344H179.967V131.08H181.503V139H179.967V135.704H174.271V139H172.735V131.08H174.271ZM194.779 137.64V141.048H193.259V139H184.747V141.048H183.227L183.211 137.64H184.443C184.977 136.84 185.249 135.853 185.259 134.68L185.307 131.08H193.195V137.64H194.779ZM191.675 137.64V132.424H186.715L186.667 134.68C186.657 135.32 186.593 135.88 186.475 136.36C186.358 136.829 186.187 137.256 185.963 137.64H191.675ZM205.232 131.08V131.304L200.72 139.88C200.368 140.541 199.957 141.011 199.488 141.288C199.029 141.576 198.4 141.72 197.6 141.72H196V140.36H197.6C198.048 140.36 198.384 140.291 198.608 140.152C198.832 140.024 199.045 139.763 199.248 139.368L199.392 139.112L195.264 131.304V131.08H196.896L200.256 137.608L203.6 131.08H205.232Z" fill="white" fill-opacity="0.6"/>
<path d="M49.944 170.424H45.72V174H43.344V170.424H31.872V168.264C33.088 166.376 34.08 164.648 34.848 163.08C35.616 161.496 36.256 159.888 36.768 158.256H39.288V158.616C38.264 161.72 36.712 164.936 34.632 168.264H43.344V161.04H45.72V168.264H49.944V170.424ZM60.6759 174.288C59.0759 174.288 57.6599 174 56.4279 173.424C55.2119 172.848 54.2599 172.04 53.5719 171C52.8999 169.96 52.5639 168.768 52.5639 167.424V164.856C52.5639 163.496 52.8999 162.296 53.5719 161.256C54.2599 160.216 55.2119 159.408 56.4279 158.832C57.6599 158.256 59.0759 157.968 60.6759 157.968C62.2599 157.968 63.6599 158.256 64.8759 158.832C66.0919 159.408 67.0359 160.216 67.7079 161.256C68.3799 162.296 68.7159 163.496 68.7159 164.856V167.424C68.7159 168.784 68.3799 169.984 67.7079 171.024C67.0359 172.048 66.0919 172.848 64.8759 173.424C63.6599 174 62.2599 174.288 60.6759 174.288ZM60.6759 172.056C62.4359 172.056 63.8199 171.648 64.8279 170.832C65.8359 170.016 66.3399 168.888 66.3399 167.448V164.832C66.3399 163.408 65.8279 162.28 64.8039 161.448C63.7959 160.616 62.4119 160.2 60.6519 160.2C58.8759 160.2 57.4759 160.616 56.4519 161.448C55.4439 162.264 54.9399 163.392 54.9399 164.832V167.448C54.9399 168.888 55.4439 170.016 56.4519 170.832C57.4759 171.648 58.8839 172.056 60.6759 172.056ZM75.8051 165.864C74.3811 165.864 73.2371 165.52 72.3731 164.832C71.5251 164.144 71.1011 163.232 71.1011 162.096V161.856C71.1011 160.704 71.5251 159.792 72.3731 159.12C73.2371 158.432 74.3811 158.088 75.8051 158.088C77.2291 158.088 78.3571 158.432 79.1891 159.12C80.0371 159.792 80.4611 160.704 80.4611 161.856V162.096C80.4611 163.232 80.0371 164.144 79.1891 164.832C78.3411 165.52 77.2131 165.864 75.8051 165.864ZM75.7811 164.16C76.5811 164.16 77.2131 163.976 77.6771 163.608C78.1411 163.24 78.3731 162.744 78.3731 162.12V161.832C78.3731 161.208 78.1411 160.712 77.6771 160.344C77.2131 159.976 76.5811 159.792 75.7811 159.792C74.9811 159.792 74.3491 159.976 73.8851 160.344C73.4371 160.696 73.2131 161.192 73.2131 161.832V162.12C73.2131 162.744 73.4451 163.24 73.9091 163.608C74.3731 163.976 74.9971 164.16 75.7811 164.16ZM88.4291 174.144C87.0051 174.144 85.8611 173.8 84.9971 173.112C84.1491 172.424 83.7251 171.512 83.7251 170.376V170.136C83.7251 168.984 84.1491 168.072 84.9971 167.4C85.8611 166.712 87.0051 166.368 88.4291 166.368C89.8531 166.368 90.9811 166.712 91.8131 167.4C92.6611 168.072 93.0851 168.984 93.0851 170.136V170.376C93.0851 171.512 92.6611 172.424 91.8131 173.112C90.9651 173.8 89.8371 174.144 88.4291 174.144ZM88.4051 172.44C89.2051 172.44 89.8371 172.256 90.3011 171.888C90.7651 171.52 90.9971 171.024 90.9971 170.4V170.112C90.9971 169.488 90.7651 168.992 90.3011 168.624C89.8371 168.256 89.2051 168.072 88.4051 168.072C87.6051 168.072 86.9731 168.256 86.5091 168.624C86.0611 168.976 85.8371 169.472 85.8371 170.112V170.4C85.8371 171.024 86.0691 171.52 86.5331 171.888C86.9971 172.256 87.6211 172.44 88.4051 172.44ZM88.2131 158.256H90.5171V158.616L75.9491 174H73.6451V173.664L88.2131 158.256Z" fill="white"/>
<path d="M37.104 229.192C35.8773 229.192 34.8053 228.979 33.888 228.552C32.9707 228.115 32.2613 227.496 31.76 226.696C31.2693 225.896 31.024 224.963 31.024 223.896V223.624C31.024 222.557 31.2693 221.624 31.76 220.824C32.2613 220.024 32.9707 219.405 33.888 218.968C34.8053 218.531 35.8773 218.312 37.104 218.312C38.2133 218.312 39.2107 218.499 40.096 218.872C40.992 219.245 41.6907 219.763 42.192 220.424C42.704 221.075 42.96 221.805 42.96 222.616V222.76H41.344V222.616C41.344 222.083 41.1627 221.603 40.8 221.176C40.4373 220.749 39.9307 220.413 39.28 220.168C38.64 219.923 37.9147 219.8 37.104 219.8C35.6747 219.8 34.5707 220.131 33.792 220.792C33.024 221.453 32.64 222.392 32.64 223.608V223.912C32.64 225.128 33.024 226.067 33.792 226.728C34.5707 227.379 35.6747 227.704 37.104 227.704C37.9253 227.704 38.656 227.587 39.296 227.352C39.9467 227.107 40.448 226.771 40.8 226.344C41.1627 225.917 41.344 225.437 41.344 224.904V224.744H42.96V224.904C42.96 225.715 42.704 226.445 42.192 227.096C41.6907 227.747 40.992 228.259 40.096 228.632C39.2107 229.005 38.2133 229.192 37.104 229.192ZM49.8724 220.888C50.8217 220.888 51.6537 221.053 52.3684 221.384C53.083 221.715 53.6324 222.184 54.0164 222.792C54.4004 223.389 54.5924 224.093 54.5924 224.904V225.16C54.5924 225.971 54.4004 226.68 54.0164 227.288C53.6324 227.896 53.083 228.365 52.3684 228.696C51.6537 229.027 50.8217 229.192 49.8724 229.192C49.2857 229.192 48.7364 229.101 48.2244 228.92C47.7124 228.739 47.2644 228.477 46.8804 228.136V231.72H45.3444V221.08H46.7684L46.8324 221.992C47.227 221.64 47.6857 221.368 48.2084 221.176C48.731 220.984 49.2857 220.888 49.8724 220.888ZM53.0084 224.904C53.0084 224.093 52.7257 223.459 52.1604 223C51.6057 222.531 50.8377 222.296 49.8564 222.296C49.227 222.296 48.6457 222.408 48.1124 222.632C47.5897 222.856 47.179 223.16 46.8804 223.544V226.52C47.179 226.904 47.5897 227.213 48.1124 227.448C48.6457 227.672 49.227 227.784 49.8564 227.784C50.8377 227.784 51.6057 227.549 52.1604 227.08C52.7257 226.611 53.0084 225.971 53.0084 225.16V224.904ZM60.8478 229.192C59.8771 229.192 59.0344 229.032 58.3198 228.712C57.6051 228.381 57.0558 227.917 56.6718 227.32C56.2878 226.712 56.0958 226.003 56.0958 225.192V224.92C56.0958 224.099 56.2878 223.384 56.6718 222.776C57.0558 222.168 57.6051 221.704 58.3198 221.384C59.0344 221.053 59.8771 220.888 60.8478 220.888C61.8078 220.888 62.6398 221.053 63.3438 221.384C64.0584 221.704 64.6024 222.168 64.9758 222.776C65.3598 223.384 65.5518 224.099 65.5518 224.92V225.192C65.5518 226.003 65.3598 226.712 64.9758 227.32C64.6024 227.917 64.0584 228.381 63.3438 228.712C62.6398 229.032 61.8078 229.192 60.8478 229.192ZM60.8318 227.784C61.8131 227.784 62.5811 227.555 63.1358 227.096C63.6904 226.637 63.9678 226.003 63.9678 225.192V224.92C63.9678 224.099 63.6904 223.459 63.1358 223C62.5811 222.531 61.8131 222.296 60.8318 222.296C59.8291 222.296 59.0504 222.525 58.4958 222.984C57.9518 223.443 57.6798 224.088 57.6798 224.92V225.192C57.6798 226.003 57.9571 226.637 58.5118 227.096C59.0771 227.555 59.8504 227.784 60.8318 227.784ZM76.7609 228.776V229H75.0169L71.5289 225.672H69.1929V229H67.6569V221.08H69.1929V224.328H71.4809L74.7769 221.08H76.5529V221.304L72.8889 224.968L76.7609 228.776ZM96.9195 227.576V231.128H95.3195V229H85.6555V231.128H84.0715V227.576H85.4315C86.0608 226.605 86.3915 225.384 86.4235 223.912L86.5195 218.504H95.2715V227.576H96.9195ZM87.8955 223.96C87.8635 225.432 87.5755 226.637 87.0315 227.576H93.6875V219.928H87.9915L87.8955 223.96ZM107.25 225.544H99.6176C99.671 226.237 99.9696 226.787 100.514 227.192C101.058 227.587 101.783 227.784 102.69 227.784C103.532 227.784 104.215 227.645 104.738 227.368C105.271 227.08 105.559 226.701 105.602 226.232H107.25C107.164 227.16 106.716 227.885 105.906 228.408C105.106 228.931 104.034 229.192 102.69 229.192C101.74 229.192 100.914 229.032 100.21 228.712C99.5056 228.381 98.9616 227.917 98.5776 227.32C98.2043 226.723 98.0176 226.024 98.0176 225.224V224.888C98.0176 224.077 98.2043 223.373 98.5776 222.776C98.9616 222.168 99.5056 221.704 100.21 221.384C100.914 221.053 101.74 220.888 102.69 220.888C104.108 220.888 105.223 221.24 106.034 221.944C106.844 222.637 107.25 223.597 107.25 224.824V225.544ZM102.69 222.296C101.836 222.296 101.143 222.472 100.61 222.824C100.087 223.165 99.767 223.645 99.6496 224.264H105.618C105.522 223.645 105.218 223.165 104.706 222.824C104.194 222.472 103.522 222.296 102.69 222.296ZM110.832 221.08V227.128L116.64 221.08H118.048V229H116.576V222.952L110.768 229H109.36V221.08H110.832ZM113.712 219.976C112.603 219.976 111.76 219.789 111.184 219.416C110.608 219.043 110.32 218.499 110.32 217.784V217.672H111.728V217.784C111.728 218.072 111.899 218.296 112.24 218.456C112.581 218.605 113.072 218.68 113.712 218.68C114.331 218.68 114.8 218.605 115.12 218.456C115.451 218.296 115.616 218.072 115.616 217.784V217.672H117.104V217.784C117.104 218.509 116.816 219.059 116.24 219.432C115.675 219.795 114.832 219.976 113.712 219.976ZM124.878 229.192C123.929 229.192 123.097 229.032 122.382 228.712C121.668 228.381 121.118 227.917 120.734 227.32C120.35 226.712 120.158 226.008 120.158 225.208V224.92C120.158 224.099 120.35 223.384 120.734 222.776C121.118 222.168 121.662 221.704 122.366 221.384C123.081 221.053 123.918 220.888 124.878 220.888C125.742 220.888 126.521 221.037 127.214 221.336C127.908 221.624 128.446 222.029 128.83 222.552C129.225 223.064 129.422 223.645 129.422 224.296V224.36H127.838V224.296C127.838 223.912 127.71 223.571 127.454 223.272C127.209 222.963 126.857 222.723 126.398 222.552C125.95 222.381 125.444 222.296 124.878 222.296C123.897 222.296 123.129 222.531 122.574 223C122.02 223.459 121.742 224.104 121.742 224.936V225.192C121.742 226.003 122.02 226.637 122.574 227.096C123.129 227.555 123.897 227.784 124.878 227.784C125.454 227.784 125.966 227.699 126.414 227.528C126.862 227.357 127.209 227.123 127.454 226.824C127.71 226.525 127.838 226.184 127.838 225.8V225.736H129.422V225.8C129.422 226.461 129.23 227.048 128.846 227.56C128.462 228.072 127.924 228.472 127.23 228.76C126.548 229.048 125.764 229.192 124.878 229.192ZM130.02 222.456V221.08H139.332V222.456H135.476V229H133.94V222.456H130.02ZM148.651 224.984C149.089 225.123 149.419 225.336 149.643 225.624C149.878 225.901 149.995 226.243 149.995 226.648V226.808C149.995 227.501 149.723 228.04 149.179 228.424C148.646 228.808 147.889 229 146.907 229H140.891V221.08H146.699C147.681 221.08 148.438 221.267 148.971 221.64C149.515 222.003 149.787 222.525 149.787 223.208V223.368C149.787 224.104 149.409 224.643 148.651 224.984ZM142.427 222.264V224.408H146.635C147.137 224.408 147.521 224.323 147.787 224.152C148.065 223.971 148.203 223.715 148.203 223.384V223.224C148.203 222.915 148.07 222.68 147.803 222.52C147.537 222.349 147.147 222.264 146.635 222.264H142.427ZM148.411 226.616C148.411 226.296 148.278 226.051 148.011 225.88C147.745 225.709 147.361 225.624 146.859 225.624H142.427V227.8H146.859C147.361 227.8 147.745 227.715 148.011 227.544C148.278 227.363 148.411 227.107 148.411 226.776V226.616ZM153.723 221.08V227.128L159.531 221.08H160.939V229H159.467V222.952L153.659 229H152.251V221.08H153.723ZM172.158 228.984H170.622V226.392H168.254L165.086 229H163.102V228.808L166.046 226.392C165.097 226.349 164.361 226.109 163.838 225.672C163.315 225.224 163.054 224.616 163.054 223.848V223.672C163.054 222.851 163.337 222.216 163.902 221.768C164.478 221.309 165.278 221.08 166.302 221.08H172.158V228.984ZM170.622 225.08V222.424H166.414C165.23 222.424 164.638 222.84 164.638 223.672V223.848C164.638 224.669 165.23 225.08 166.414 225.08H170.622Z" fill="white" fill-opacity="0.6"/>
<path d="M46.128 248.256V250.392H34.608V254.808H41.64C43.448 254.808 44.848 255.2 45.84 255.984C46.848 256.752 47.352 257.84 47.352 259.248V259.56C47.352 260.952 46.848 262.04 45.84 262.824C44.832 263.608 43.432 264 41.64 264H32.208V248.256H46.128ZM41.616 261.864C42.64 261.864 43.448 261.656 44.04 261.24C44.648 260.824 44.952 260.264 44.952 259.56V259.248C44.952 258.528 44.656 257.968 44.064 257.568C43.472 257.152 42.656 256.944 41.616 256.944H34.608V261.864H41.616ZM63.8198 258.816H52.3717C52.4518 259.856 52.8998 260.68 53.7158 261.288C54.5318 261.88 55.6198 262.176 56.9798 262.176C58.2438 262.176 59.2678 261.968 60.0518 261.552C60.8518 261.12 61.2838 260.552 61.3478 259.848H63.8198C63.6918 261.24 63.0198 262.328 61.8038 263.112C60.6038 263.896 58.9958 264.288 56.9798 264.288C55.5558 264.288 54.3158 264.048 53.2598 263.568C52.2038 263.072 51.3878 262.376 50.8118 261.48C50.2518 260.584 49.9718 259.536 49.9718 258.336V257.832C49.9718 256.616 50.2518 255.56 50.8118 254.664C51.3878 253.752 52.2038 253.056 53.2598 252.576C54.3158 252.08 55.5558 251.832 56.9798 251.832C59.1078 251.832 60.7798 252.36 61.9958 253.416C63.2118 254.456 63.8198 255.896 63.8198 257.736V258.816ZM56.9798 253.944C55.6998 253.944 54.6598 254.208 53.8598 254.736C53.0758 255.248 52.5958 255.968 52.4198 256.896H61.3718C61.2278 255.968 60.7718 255.248 60.0038 254.736C59.2358 254.208 58.2278 253.944 56.9798 253.944ZM77.9533 257.952C78.6093 258.224 79.1133 258.584 79.4653 259.032C79.8333 259.464 80.0173 259.952 80.0173 260.496V260.664C80.0173 261.848 79.4493 262.752 78.3133 263.376C77.1773 263.984 75.5133 264.288 73.3213 264.288C68.5853 264.288 66.2173 262.64 66.2173 259.344V259.176H68.4973V259.344C68.4973 260.336 68.8893 261.072 69.6733 261.552C70.4733 262.016 71.7053 262.248 73.3693 262.248C76.2173 262.248 77.6413 261.688 77.6413 260.568V260.4C77.6413 259.488 76.7853 259.032 75.0733 259.032H71.0893V257.016H74.8093C76.4893 257.016 77.3293 256.544 77.3293 255.6V255.432C77.3293 254.92 76.9693 254.536 76.2493 254.28C75.5453 254.008 74.4973 253.872 73.1053 253.872C71.5053 253.872 70.3373 254.104 69.6013 254.568C68.8653 255.032 68.4973 255.776 68.4973 256.8V256.968H66.2173V256.8C66.2173 255.168 66.8093 253.936 67.9933 253.104C69.1773 252.256 70.9213 251.832 73.2253 251.832C75.3053 251.832 76.8973 252.144 78.0013 252.768C79.1213 253.376 79.6813 254.248 79.6813 255.384V255.552C79.6813 256.048 79.5293 256.504 79.2253 256.92C78.9213 257.32 78.4973 257.664 77.9533 257.952ZM101.617 264.288C99.7769 264.288 98.1689 263.968 96.7929 263.328C95.4169 262.672 94.3529 261.744 93.6009 260.544C92.8649 259.344 92.4969 257.944 92.4969 256.344V255.936C92.4969 254.336 92.8649 252.936 93.6009 251.736C94.3529 250.536 95.4169 249.608 96.7929 248.952C98.1689 248.296 99.7769 247.968 101.617 247.968C103.281 247.968 104.777 248.248 106.105 248.808C107.449 249.368 108.497 250.144 109.249 251.136C110.017 252.112 110.401 253.208 110.401 254.424V254.64H107.977V254.424C107.977 253.624 107.705 252.904 107.161 252.264C106.617 251.624 105.857 251.12 104.881 250.752C103.921 250.384 102.833 250.2 101.617 250.2C99.4729 250.2 97.8169 250.696 96.6489 251.688C95.4969 252.68 94.9209 254.088 94.9209 255.912V256.368C94.9209 258.192 95.4969 259.6 96.6489 260.592C97.8169 261.568 99.4729 262.056 101.617 262.056C102.849 262.056 103.945 261.88 104.905 261.528C105.881 261.16 106.633 260.656 107.161 260.016C107.705 259.376 107.977 258.656 107.977 257.856V257.616H110.401V257.856C110.401 259.072 110.017 260.168 109.249 261.144C108.497 262.12 107.449 262.888 106.105 263.448C104.777 264.008 103.281 264.288 101.617 264.288ZM120.77 251.832C122.194 251.832 123.442 252.08 124.514 252.576C125.586 253.072 126.41 253.776 126.986 254.688C127.562 255.584 127.85 256.64 127.85 257.856V258.24C127.85 259.456 127.562 260.52 126.986 261.432C126.41 262.344 125.586 263.048 124.514 263.544C123.442 264.04 122.194 264.288 120.77 264.288C119.89 264.288 119.066 264.152 118.298 263.88C117.53 263.608 116.858 263.216 116.282 262.704V268.08H113.978V252.12H116.114L116.21 253.488C116.802 252.96 117.49 252.552 118.273 252.264C119.058 251.976 119.89 251.832 120.77 251.832ZM125.474 257.856C125.474 256.64 125.05 255.688 124.202 255C123.37 254.296 122.218 253.944 120.746 253.944C119.802 253.944 118.93 254.112 118.13 254.448C117.346 254.784 116.73 255.24 116.282 255.816V260.28C116.73 260.856 117.346 261.32 118.13 261.672C118.93 262.008 119.802 262.176 120.746 262.176C122.218 262.176 123.37 261.824 124.202 261.12C125.05 260.416 125.474 259.456 125.474 258.24V257.856ZM137.233 264.288C135.777 264.288 134.513 264.048 133.441 263.568C132.369 263.072 131.545 262.376 130.969 261.48C130.393 260.568 130.105 259.504 130.105 258.288V257.88C130.105 256.648 130.393 255.576 130.969 254.664C131.545 253.752 132.369 253.056 133.441 252.576C134.513 252.08 135.777 251.832 137.233 251.832C138.673 251.832 139.921 252.08 140.977 252.576C142.049 253.056 142.865 253.752 143.425 254.664C144.001 255.576 144.289 256.648 144.289 257.88V258.288C144.289 259.504 144.001 260.568 143.425 261.48C142.865 262.376 142.049 263.072 140.977 263.568C139.921 264.048 138.673 264.288 137.233 264.288ZM137.209 262.176C138.681 262.176 139.833 261.832 140.665 261.144C141.497 260.456 141.913 259.504 141.913 258.288V257.88C141.913 256.648 141.497 255.688 140.665 255C139.833 254.296 138.681 253.944 137.209 253.944C135.705 253.944 134.537 254.288 133.705 254.976C132.889 255.664 132.481 256.632 132.481 257.88V258.288C132.481 259.504 132.897 260.456 133.729 261.144C134.577 261.832 135.737 262.176 137.209 262.176ZM161.102 263.664V264H158.486L153.254 259.008H149.75V264H147.446V252.12H149.75V256.992H153.182L158.126 252.12H160.79V252.456L155.294 257.952L161.102 263.664ZM178.244 261.96V264H176.66C175.876 264 175.22 263.848 174.692 263.544C174.164 263.24 173.796 262.808 173.588 262.248C172.948 262.936 172.18 263.448 171.284 263.784C170.388 264.12 169.332 264.288 168.116 264.288C166.404 264.288 165.084 263.992 164.156 263.4C163.228 262.792 162.764 261.928 162.764 260.808C162.764 259.848 163.124 259.08 163.844 258.504C164.564 257.928 165.62 257.568 167.012 257.424L173.42 256.752C173.372 255.856 172.996 255.176 172.292 254.712C171.588 254.248 170.58 254.016 169.268 254.016C168.004 254.016 166.996 254.232 166.244 254.664C165.492 255.096 165.116 255.672 165.116 256.392V256.488H162.836V256.392C162.836 255.496 163.1 254.704 163.628 254.016C164.172 253.312 164.932 252.776 165.908 252.408C166.884 252.024 168.012 251.832 169.292 251.832C171.324 251.832 172.9 252.28 174.02 253.176C175.14 254.072 175.7 255.328 175.7 256.944V260.64C175.7 261.056 175.828 261.384 176.084 261.624C176.34 261.848 176.708 261.96 177.188 261.96H178.244ZM168.068 262.248C169.364 262.248 170.476 262.048 171.404 261.648C172.332 261.232 173.004 260.648 173.42 259.896V258.624L167.516 259.248C166.684 259.328 166.06 259.496 165.644 259.752C165.244 260.008 165.044 260.36 165.044 260.808C165.044 261.768 166.052 262.248 168.068 262.248Z" fill="white"/>
<defs>
<linearGradient id="paint0_linear_1_74" x1="320" y1="0" x2="640" y2="366" gradientUnits="userSpaceOnUse">
<stop offset="0.294343" stop-color="#303030"/>
<stop offset="0.932158" stop-color="#161616"/>
</linearGradient>
</defs>
</svg>
