<svg width="340" height="195" viewBox="0 0 340 195" fill="none" xmlns="http://www.w3.org/2000/svg">
<g id="Group 8">
<g id="Rectangle 13" filter="url(#filter0_d_0_83)">
<rect width="340" height="194.438" rx="10.625" fill="#222123"/>
</g>
<g id="Mask group">
<mask id="mask0_0_83" style="mask-type:alpha" maskUnits="userSpaceOnUse" x="0" y="0" width="340" height="195">
<rect id="Rectangle 15" width="340" height="194.438" rx="10.625" fill="#222123"/>
</mask>
<g mask="url(#mask0_0_83)">
<g id="Rectangle 16" filter="url(#filter1_d_0_83)">
<rect x="247.031" y="-96.1562" width="223.125" height="223.125" rx="15.9375" transform="rotate(30 247.031 -96.1562)" fill="url(#paint0_linear_0_83)"/>
</g>
</g>
</g>
<path id="Pyotr Kuznetsov" d="M23.8319 172.395V173.872C23.846 174.332 23.63 174.562 23.1838 174.562H22.8544C22.4081 174.562 22.1921 174.332 22.2063 173.872V168.166C22.1992 167.925 22.2523 167.748 22.3656 167.635C22.479 167.522 22.656 167.469 22.8969 167.476H27.7419C28.5423 167.476 29.0842 167.522 29.3675 167.614C29.8067 167.748 30.1148 167.986 30.2919 168.326C30.469 168.659 30.5575 169.183 30.5575 169.898C30.5575 170.444 30.5115 170.876 30.4194 171.194C30.3273 171.513 30.1715 171.765 29.9519 171.949C29.7677 172.112 29.5233 172.229 29.2188 172.299C28.9142 172.363 28.4856 172.395 27.9331 172.395H23.8319ZM23.8319 171.077H27.4763C28.0429 171.077 28.4219 171.003 28.6131 170.854C28.8115 170.706 28.9106 170.415 28.9106 169.983C28.9106 169.501 28.8185 169.183 28.6344 169.027C28.4573 168.871 28.096 168.793 27.5506 168.793H23.8319V171.077ZM36.6094 170.599L38.9257 167.986C39.0957 167.773 39.2551 167.631 39.4038 167.561C39.5526 167.49 39.7615 167.461 40.0307 167.476H40.7107C40.9586 167.476 41.0826 167.578 41.0826 167.784C41.0826 167.84 41.0401 167.922 40.9551 168.028L37.4169 171.896V173.872C37.4311 174.332 37.2151 174.562 36.7688 174.562H36.4288C35.9826 174.562 35.7665 174.332 35.7807 173.872V171.896L32.2107 168.028C32.1257 167.936 32.0832 167.851 32.0832 167.773C32.0832 167.575 32.2071 167.476 32.4551 167.476H33.1669C33.4361 167.461 33.6451 167.49 33.7938 167.561C33.9426 167.631 34.1019 167.773 34.2719 167.986L36.6094 170.599ZM48.4165 167.401C49.3515 167.401 50.0421 167.451 50.4883 167.55C50.9346 167.649 51.2817 167.833 51.5296 168.102C51.8129 168.421 51.9865 168.921 52.0502 169.601C52.0785 169.891 52.0927 170.39 52.0927 171.099C52.0927 171.984 52.0396 172.636 51.9333 173.054C51.8342 173.465 51.65 173.79 51.3808 174.031C51.0196 174.35 50.4458 174.534 49.6596 174.584C49.27 174.619 48.2535 174.637 46.6102 174.637C45.739 174.637 45.0873 174.609 44.6552 174.552C44.2302 174.495 43.876 174.392 43.5927 174.244C43.2315 174.045 42.98 173.734 42.8383 173.309C42.7038 172.877 42.6365 172.19 42.6365 171.247C42.6365 170.178 42.6683 169.473 42.7321 169.133C42.9021 168.191 43.5254 167.649 44.6021 167.507C45.1404 167.437 46.4119 167.401 48.4165 167.401ZM47.4071 168.74C47.0317 168.74 46.7519 168.74 46.5677 168.74C46.3835 168.74 46.164 168.751 45.909 168.772C45.654 168.786 45.4733 168.797 45.3671 168.804C45.2679 168.811 45.1404 168.843 44.9846 168.899C44.8358 168.956 44.7402 169.002 44.6977 169.037C44.6552 169.066 44.595 169.137 44.5171 169.25C44.4392 169.363 44.3967 169.459 44.3896 169.537C44.3825 169.608 44.3648 169.739 44.3365 169.93C44.3152 170.121 44.3046 170.284 44.3046 170.419C44.3046 170.546 44.3046 170.752 44.3046 171.035C44.3046 171.354 44.3046 171.598 44.3046 171.768C44.3046 171.938 44.3223 172.122 44.3577 172.321C44.4002 172.512 44.4356 172.646 44.464 172.724C44.4994 172.802 44.5738 172.891 44.6871 172.99C44.8075 173.082 44.9173 173.142 45.0165 173.171C45.1227 173.192 45.2963 173.22 45.5371 173.256C45.7779 173.284 46.001 173.298 46.2065 173.298C46.419 173.298 46.7271 173.298 47.1308 173.298C48.1438 173.298 48.8167 173.284 49.1496 173.256C49.4896 173.227 49.7552 173.16 49.9465 173.054C50.1448 172.947 50.2794 172.753 50.3502 172.469C50.421 172.186 50.4565 171.69 50.4565 170.982C50.4565 170.706 50.4565 170.504 50.4565 170.376C50.4565 170.242 50.4458 170.082 50.4246 169.898C50.4033 169.714 50.3856 169.586 50.3715 169.516C50.3644 169.445 50.3219 169.353 50.244 169.239C50.1731 169.126 50.1165 169.055 50.074 169.027C50.0315 168.991 49.9323 168.945 49.7765 168.889C49.6277 168.832 49.5038 168.804 49.4046 168.804C49.3054 168.797 49.1283 168.786 48.8733 168.772C48.6254 168.751 48.4094 168.74 48.2252 168.74C48.0481 168.74 47.7754 168.74 47.4071 168.74ZM57.031 168.804H54.3854C53.9391 168.825 53.7089 168.627 53.6948 168.209V168.071C53.7089 167.653 53.9391 167.454 54.3854 167.476H61.3023C61.7485 167.454 61.9787 167.653 61.9929 168.071V168.209C61.9787 168.627 61.7485 168.825 61.3023 168.804H58.6673V173.872C58.6814 174.332 58.4618 174.562 58.0085 174.562H57.6791C57.2258 174.562 57.0098 174.332 57.031 173.872V168.804ZM64.5232 167.476H69.8357C70.452 167.476 70.923 167.518 71.2488 167.603C71.5747 167.688 71.8332 167.833 72.0245 168.039C72.3291 168.372 72.4813 168.938 72.4813 169.739C72.4813 170.468 72.3786 170.961 72.1732 171.216C71.982 171.456 71.6845 171.612 71.2807 171.683C71.727 171.719 72.0209 171.832 72.1626 172.023C72.3043 172.214 72.3716 172.593 72.3645 173.16V173.872C72.3786 174.332 72.1626 174.562 71.7163 174.562H71.3657C70.9195 174.562 70.7034 174.332 70.7176 173.872V173.5C70.7105 173.018 70.622 172.707 70.452 172.565C70.2891 172.416 69.9384 172.345 69.4001 172.352H65.4582V173.872C65.4724 174.332 65.2563 174.562 64.8101 174.562H64.4807C64.0345 174.562 63.8184 174.332 63.8326 173.872V168.166C63.8255 167.925 63.8786 167.748 63.992 167.635C64.1053 167.522 64.2824 167.469 64.5232 167.476ZM65.4582 171.046H69.347C69.942 171.046 70.3386 170.975 70.537 170.833C70.7353 170.691 70.8345 170.408 70.8345 169.983C70.8345 169.494 70.7424 169.176 70.5582 169.027C70.3741 168.878 69.9809 168.804 69.3788 168.804H65.4582V171.046ZM79.6362 170.302H80.8262L83.7693 167.996C84.0385 167.777 84.2616 167.635 84.4387 167.571C84.6158 167.5 84.8602 167.469 85.1718 167.476H86.0431C86.2343 167.476 86.33 167.554 86.33 167.709C86.33 167.794 86.2839 167.869 86.1918 167.932L82.2818 170.961L86.5318 174.116C86.6239 174.18 86.67 174.254 86.67 174.339C86.67 174.488 86.5743 174.562 86.3831 174.562H85.4375C85.1116 174.57 84.8602 174.541 84.6831 174.477C84.506 174.414 84.2758 174.269 83.9925 174.042L80.7943 171.609H79.6362V173.872C79.6504 174.332 79.4343 174.562 78.9881 174.562H78.6481C78.2018 174.562 77.9858 174.332 78 173.872V168.166C77.9858 167.706 78.2018 167.476 78.6481 167.476H78.9881C79.4343 167.476 79.6504 167.706 79.6362 168.166V170.302ZM96.2798 167.476H96.6198C97.066 167.476 97.2821 167.706 97.2679 168.166V171.938C97.2679 172.611 97.2041 173.114 97.0766 173.447C96.9491 173.773 96.7154 174.031 96.3754 174.222C96.0637 174.4 95.6777 174.513 95.2173 174.562C94.7568 174.612 93.875 174.637 92.5716 174.637C91.3887 174.637 90.5529 174.587 90.0641 174.488C89.5754 174.389 89.2 174.194 88.9379 173.904C88.7537 173.698 88.6298 173.443 88.566 173.139C88.5023 172.827 88.4704 172.345 88.4704 171.694V168.166C88.4562 167.706 88.6723 167.476 89.1185 167.476H89.4585C89.9048 167.476 90.1208 167.706 90.1066 168.166V171.184C90.1066 171.835 90.1243 172.267 90.1598 172.48C90.2306 172.834 90.4254 173.064 90.7441 173.171C91.07 173.27 91.7429 173.319 92.7629 173.319C93.9175 173.319 94.6293 173.284 94.8985 173.213C95.3023 173.107 95.536 172.838 95.5998 172.406C95.621 172.278 95.6316 171.906 95.6316 171.29V168.166C95.6175 167.706 95.8335 167.476 96.2798 167.476ZM105.174 168.719H100.052C99.6061 168.74 99.3759 168.545 99.3618 168.134V168.06C99.3759 167.649 99.6061 167.454 100.052 167.476H106.81C107.256 167.454 107.486 167.649 107.501 168.06V168.23C107.501 168.428 107.462 168.595 107.384 168.729C107.313 168.857 107.182 168.984 106.991 169.112L101.444 173.319H106.906C107.352 173.298 107.582 173.493 107.596 173.904V173.978C107.582 174.389 107.352 174.584 106.906 174.562H99.8505C99.4043 174.584 99.1741 174.389 99.1599 173.978V173.808C99.1599 173.61 99.1953 173.447 99.2661 173.319C99.3441 173.185 99.4786 173.05 99.6699 172.916L105.174 168.719ZM117.443 173.372L117.411 168.166C117.39 167.706 117.602 167.476 118.048 167.476H118.335C118.782 167.476 118.994 167.706 118.973 168.166V173.872C118.98 174.113 118.927 174.29 118.813 174.403C118.7 174.516 118.523 174.57 118.282 174.562H117.103C116.827 174.57 116.61 174.541 116.455 174.477C116.306 174.407 116.143 174.265 115.966 174.052L111.132 168.697L111.163 173.872C111.185 174.332 110.972 174.562 110.526 174.562H110.218C109.779 174.562 109.566 174.332 109.58 173.872V168.166C109.573 167.925 109.626 167.748 109.74 167.635C109.853 167.522 110.03 167.469 110.271 167.476H111.429C111.705 167.469 111.918 167.5 112.067 167.571C112.222 167.635 112.392 167.773 112.577 167.986L117.443 173.372ZM123.005 168.719V170.397H128.041C128.495 170.397 128.721 170.582 128.721 170.95C128.721 171.325 128.495 171.513 128.041 171.513H123.005V173.319H128.296C128.743 173.298 128.973 173.493 128.987 173.904V173.978C128.973 174.389 128.743 174.584 128.296 174.562H122.081C121.84 174.57 121.663 174.516 121.55 174.403C121.436 174.29 121.383 174.113 121.39 173.872V168.166C121.383 167.925 121.436 167.748 121.55 167.635C121.663 167.522 121.84 167.469 122.081 167.476H128.233C128.679 167.454 128.909 167.649 128.923 168.06V168.134C128.909 168.545 128.679 168.74 128.233 168.719H123.005ZM133.985 168.804H131.34C130.894 168.825 130.663 168.627 130.649 168.209V168.071C130.663 167.653 130.894 167.454 131.34 167.476H138.257C138.703 167.454 138.933 167.653 138.947 168.071V168.209C138.933 168.627 138.703 168.825 138.257 168.804H135.622V173.872C135.636 174.332 135.416 174.562 134.963 174.562H134.634C134.18 174.562 133.964 174.332 133.985 173.872V168.804ZM141.255 172.331H141.574C141.942 172.31 142.162 172.473 142.233 172.82C142.275 173.061 142.427 173.224 142.689 173.309C142.959 173.387 143.465 173.426 144.209 173.426C145.045 173.426 145.817 173.383 146.525 173.298C146.9 173.249 147.145 173.156 147.258 173.022C147.4 172.859 147.471 172.661 147.471 172.427C147.471 172.214 147.418 172.051 147.311 171.938C147.212 171.825 147.042 171.743 146.801 171.694C146.596 171.651 145.849 171.626 144.559 171.619H143.539C142.796 171.619 142.247 171.587 141.893 171.524C141.538 171.453 141.262 171.325 141.064 171.141C140.731 170.837 140.564 170.38 140.564 169.771C140.564 168.921 140.742 168.34 141.096 168.028C141.337 167.809 141.754 167.653 142.349 167.561C142.944 167.461 143.83 167.412 145.006 167.412C145.934 167.412 146.614 167.44 147.046 167.497C147.485 167.546 147.853 167.649 148.151 167.805C148.59 168.039 148.809 168.435 148.809 168.995C148.809 169.179 148.753 169.324 148.639 169.431C148.533 169.537 148.381 169.59 148.183 169.59H147.885C147.694 169.583 147.556 169.551 147.471 169.494C147.393 169.431 147.283 169.282 147.141 169.048C147.042 168.871 146.798 168.758 146.408 168.708C145.948 168.651 145.533 168.623 145.165 168.623C143.763 168.623 142.898 168.705 142.573 168.867C142.318 168.995 142.19 169.229 142.19 169.569C142.19 169.866 142.289 170.072 142.488 170.185C142.7 170.305 143.288 170.366 144.251 170.366H145.452C146.514 170.366 147.262 170.405 147.694 170.482C148.126 170.56 148.452 170.72 148.671 170.961C148.962 171.258 149.107 171.75 149.107 172.437C149.107 173.181 148.937 173.712 148.597 174.031C148.37 174.258 147.981 174.414 147.428 174.499C146.883 174.584 146.022 174.626 144.846 174.626C143.472 174.626 142.53 174.584 142.02 174.499C141.51 174.407 141.142 174.226 140.915 173.957C140.717 173.716 140.618 173.394 140.618 172.99C140.618 172.551 140.83 172.331 141.255 172.331ZM156.92 167.401C157.855 167.401 158.546 167.451 158.992 167.55C159.438 167.649 159.785 167.833 160.033 168.102C160.317 168.421 160.49 168.921 160.554 169.601C160.582 169.891 160.596 170.39 160.596 171.099C160.596 171.984 160.543 172.636 160.437 173.054C160.338 173.465 160.154 173.79 159.885 174.031C159.523 174.35 158.95 174.534 158.163 174.584C157.774 174.619 156.757 174.637 155.114 174.637C154.243 174.637 153.591 174.609 153.159 174.552C152.734 174.495 152.38 174.392 152.096 174.244C151.735 174.045 151.484 173.734 151.342 173.309C151.207 172.877 151.14 172.19 151.14 171.247C151.14 170.178 151.172 169.473 151.236 169.133C151.406 168.191 152.029 167.649 153.106 167.507C153.644 167.437 154.916 167.401 156.92 167.401ZM155.911 168.74C155.535 168.74 155.256 168.74 155.071 168.74C154.887 168.74 154.668 168.751 154.413 168.772C154.158 168.786 153.977 168.797 153.871 168.804C153.772 168.811 153.644 168.843 153.488 168.899C153.34 168.956 153.244 169.002 153.201 169.037C153.159 169.066 153.099 169.137 153.021 169.25C152.943 169.363 152.9 169.459 152.893 169.537C152.886 169.608 152.868 169.739 152.84 169.93C152.819 170.121 152.808 170.284 152.808 170.419C152.808 170.546 152.808 170.752 152.808 171.035C152.808 171.354 152.808 171.598 152.808 171.768C152.808 171.938 152.826 172.122 152.861 172.321C152.904 172.512 152.939 172.646 152.968 172.724C153.003 172.802 153.077 172.891 153.191 172.99C153.311 173.082 153.421 173.142 153.52 173.171C153.626 173.192 153.8 173.22 154.041 173.256C154.282 173.284 154.505 173.298 154.71 173.298C154.923 173.298 155.231 173.298 155.635 173.298C156.647 173.298 157.32 173.284 157.653 173.256C157.993 173.227 158.259 173.16 158.45 173.054C158.648 172.947 158.783 172.753 158.854 172.469C158.925 172.186 158.96 171.69 158.96 170.982C158.96 170.706 158.96 170.504 158.96 170.376C158.96 170.242 158.95 170.082 158.928 169.898C158.907 169.714 158.889 169.586 158.875 169.516C158.868 169.445 158.826 169.353 158.748 169.239C158.677 169.126 158.62 169.055 158.578 169.027C158.535 168.991 158.436 168.945 158.28 168.889C158.131 168.832 158.007 168.804 157.908 168.804C157.809 168.797 157.632 168.786 157.377 168.772C157.129 168.751 156.913 168.74 156.729 168.74C156.552 168.74 156.279 168.74 155.911 168.74ZM166.824 173.266L169.682 168.007C169.774 167.801 169.887 167.66 170.022 167.582C170.156 167.497 170.337 167.461 170.564 167.476H171.053C171.371 167.476 171.531 167.603 171.531 167.858C171.531 167.929 171.499 168.017 171.435 168.124L168.163 174.042C168.063 174.247 167.946 174.389 167.812 174.467C167.677 174.538 167.497 174.57 167.27 174.562H166.356C166.13 174.577 165.949 174.545 165.814 174.467C165.68 174.382 165.563 174.237 165.464 174.031L162.266 168.124C162.209 168.01 162.181 167.922 162.181 167.858C162.181 167.738 162.223 167.646 162.308 167.582C162.393 167.511 162.51 167.476 162.659 167.476H163.137C163.364 167.461 163.541 167.497 163.668 167.582C163.803 167.66 163.916 167.801 164.008 168.007L166.824 173.266Z" fill="white"/>
<path id="Standard" d="M201.404 32.1262H201.85C202.366 32.0965 202.673 32.3246 202.773 32.8105C202.832 33.1477 203.045 33.3757 203.412 33.4947C203.789 33.6038 204.498 33.6584 205.539 33.6584C206.709 33.6584 207.79 33.5989 208.782 33.4799C209.308 33.4105 209.65 33.2815 209.808 33.0931C210.007 32.865 210.106 32.5874 210.106 32.2601C210.106 31.9626 210.032 31.7345 209.883 31.5759C209.744 31.4172 209.506 31.3032 209.169 31.2337C208.881 31.1742 207.835 31.1395 206.03 31.1296H204.602C203.561 31.1296 202.792 31.085 202.297 30.9957C201.801 30.8966 201.414 30.7181 201.136 30.4602C200.67 30.0338 200.437 29.3942 200.437 28.5414C200.437 27.3514 200.685 26.5382 201.181 26.1019C201.518 25.7945 202.103 25.5763 202.936 25.4474C203.769 25.3085 205.009 25.2391 206.655 25.2391C207.954 25.2391 208.906 25.2788 209.511 25.3581C210.126 25.4275 210.641 25.5713 211.058 25.7895C211.673 26.1167 211.98 26.6721 211.98 27.4555C211.98 27.7133 211.901 27.9166 211.742 28.0654C211.593 28.2141 211.38 28.2885 211.103 28.2885H210.686C210.418 28.2786 210.225 28.234 210.106 28.1546C209.997 28.0654 209.843 27.8571 209.645 27.5299C209.506 27.282 209.164 27.1233 208.618 27.0539C207.974 26.9745 207.394 26.9349 206.878 26.9349C204.915 26.9349 203.705 27.0489 203.249 27.277C202.892 27.4555 202.713 27.7827 202.713 28.2587C202.713 28.6752 202.852 28.9628 203.13 29.1215C203.427 29.2901 204.25 29.3744 205.599 29.3744H207.28C208.767 29.3744 209.813 29.4289 210.418 29.538C211.023 29.6471 211.479 29.8702 211.787 30.2074C212.193 30.6239 212.397 31.3131 212.397 32.275C212.397 33.3162 212.159 34.06 211.683 34.5062C211.365 34.8236 210.82 35.0417 210.046 35.1607C209.283 35.2798 208.078 35.3393 206.432 35.3393C204.508 35.3393 203.189 35.2798 202.475 35.1607C201.761 35.0318 201.245 34.779 200.928 34.4021C200.65 34.065 200.512 33.6137 200.512 33.0485C200.512 32.4337 200.809 32.1262 201.404 32.1262ZM219.196 27.1877H215.492C214.867 27.2175 214.545 26.9398 214.525 26.3547V26.1614C214.545 25.5763 214.867 25.2986 215.492 25.3284H225.175C225.8 25.2986 226.122 25.5763 226.142 26.1614V26.3547C226.122 26.9398 225.8 27.2175 225.175 27.1877H221.486V34.2831C221.506 34.9277 221.199 35.25 220.564 35.25H220.103C219.468 35.25 219.166 34.9277 219.196 34.2831V27.1877ZM236.361 33.2865H229.265L228.581 34.5062C228.442 34.7938 228.278 34.9971 228.09 35.1161C227.902 35.2252 227.649 35.2698 227.331 35.25H226.632C226.196 35.25 225.978 35.0715 225.978 34.7145C225.978 34.6153 226.022 34.4963 226.112 34.3575L230.857 26.0572C231.006 25.7697 231.174 25.5763 231.363 25.4771C231.551 25.368 231.804 25.3185 232.121 25.3284H233.534C233.852 25.3185 234.104 25.368 234.293 25.4771C234.481 25.5763 234.65 25.7697 234.799 26.0572L239.469 34.3426C239.559 34.5112 239.603 34.6352 239.603 34.7145C239.603 34.8831 239.544 35.017 239.425 35.1161C239.306 35.2054 239.147 35.25 238.949 35.25H238.294C237.987 35.2599 237.739 35.2153 237.551 35.1161C237.362 35.007 237.198 34.8087 237.06 34.5211L236.361 33.2865ZM235.498 31.68L232.805 26.9349L230.143 31.68H235.498ZM253.005 33.584L252.961 26.2952C252.931 25.6507 253.229 25.3284 253.853 25.3284H254.255C254.88 25.3284 255.177 25.6507 255.147 26.2952V34.2831C255.157 34.6203 255.083 34.8682 254.924 35.0269C254.766 35.1855 254.518 35.2599 254.181 35.25H252.529C252.143 35.2599 251.84 35.2202 251.622 35.131C251.414 35.0318 251.186 34.8335 250.938 34.536L244.17 27.039L244.214 34.2831C244.244 34.9277 243.947 35.25 243.322 35.25H242.89C242.276 35.25 241.978 34.9277 241.998 34.2831V26.2952C241.988 25.9581 242.062 25.7102 242.221 25.5515C242.38 25.3928 242.628 25.3185 242.965 25.3284H244.586C244.973 25.3185 245.27 25.3631 245.479 25.4622C245.697 25.5515 245.935 25.7449 246.193 26.0424L253.005 33.584ZM258.532 34.2831V26.2952C258.522 25.9581 258.596 25.7102 258.755 25.5515C258.914 25.3928 259.162 25.3185 259.499 25.3284H266.773C268.627 25.3284 269.886 25.6903 270.551 26.4142C270.858 26.7613 271.076 27.2423 271.205 27.8571C271.334 28.462 271.399 29.3099 271.399 30.4007C271.399 31.5114 271.319 32.3692 271.161 32.9741C271.002 33.579 270.734 34.055 270.357 34.4021C269.753 34.9674 268.637 35.25 267.011 35.25H259.499C259.162 35.2599 258.914 35.1855 258.755 35.0269C258.596 34.8682 258.522 34.6203 258.532 34.2831ZM260.823 33.4352H266.505C267.278 33.4352 267.863 33.3262 268.26 33.108C268.805 32.8105 269.078 31.9626 269.078 30.5644C269.078 29.8206 269.048 29.2455 268.989 28.8389C268.929 28.4323 268.796 28.1001 268.587 27.8422C268.389 27.5745 268.131 27.401 267.814 27.3216C267.506 27.2423 267.07 27.2026 266.505 27.2026H260.823V33.4352ZM283.87 33.2865H276.775L276.091 34.5062C275.952 34.7938 275.788 34.9971 275.6 35.1161C275.412 35.2252 275.159 35.2698 274.841 35.25H274.142C273.706 35.25 273.488 35.0715 273.488 34.7145C273.488 34.6153 273.532 34.4963 273.622 34.3575L278.367 26.0572C278.515 25.7697 278.684 25.5763 278.872 25.4771C279.061 25.368 279.314 25.3185 279.631 25.3284H281.044C281.362 25.3185 281.614 25.368 281.803 25.4771C281.991 25.5763 282.16 25.7697 282.309 26.0572L286.979 34.3426C287.069 34.5112 287.113 34.6352 287.113 34.7145C287.113 34.8831 287.054 35.017 286.935 35.1161C286.816 35.2054 286.657 35.25 286.459 35.25H285.804C285.497 35.2599 285.249 35.2153 285.06 35.1161C284.872 35.007 284.708 34.8087 284.57 34.5211L283.87 33.2865ZM283.008 31.68L280.315 26.9349L277.653 31.68H283.008ZM290.475 25.3284H297.912C298.775 25.3284 299.434 25.3879 299.891 25.5069C300.347 25.6259 300.709 25.8292 300.976 26.1167C301.403 26.5828 301.616 27.3762 301.616 28.4967C301.616 29.5182 301.472 30.2074 301.185 30.5644C300.917 30.9015 300.5 31.1197 299.935 31.2189C300.56 31.2685 300.972 31.4271 301.17 31.6949C301.368 31.9626 301.462 32.4932 301.452 33.2865V34.2831C301.472 34.9277 301.17 35.25 300.545 35.25H300.054C299.429 35.25 299.127 34.9277 299.147 34.2831V33.7625C299.137 33.0882 299.013 32.6518 298.775 32.4535C298.547 32.2452 298.056 32.1461 297.302 32.156H291.784V34.2831C291.804 34.9277 291.501 35.25 290.876 35.25H290.415C289.79 35.25 289.488 34.9277 289.508 34.2831V26.2952C289.498 25.9581 289.572 25.7102 289.731 25.5515C289.89 25.3928 290.138 25.3185 290.475 25.3284ZM291.784 30.3264H297.228C298.061 30.3264 298.616 30.2272 298.894 30.0289C299.172 29.8305 299.31 29.4339 299.31 28.8389C299.31 28.1546 299.182 27.7084 298.924 27.5001C298.666 27.2919 298.116 27.1877 297.273 27.1877H291.784V30.3264ZM304.792 34.2831V26.2952C304.783 25.9581 304.857 25.7102 305.016 25.5515C305.174 25.3928 305.422 25.3185 305.759 25.3284H313.033C314.888 25.3284 316.147 25.6903 316.811 26.4142C317.119 26.7613 317.337 27.2423 317.466 27.8571C317.595 28.462 317.659 29.3099 317.659 30.4007C317.659 31.5114 317.58 32.3692 317.421 32.9741C317.263 33.579 316.995 34.055 316.618 34.4021C316.013 34.9674 314.898 35.25 313.271 35.25H305.759C305.422 35.2599 305.174 35.1855 305.016 35.0269C304.857 34.8682 304.783 34.6203 304.792 34.2831ZM307.083 33.4352H312.765C313.539 33.4352 314.124 33.3262 314.521 33.108C315.066 32.8105 315.339 31.9626 315.339 30.5644C315.339 29.8206 315.309 29.2455 315.25 28.8389C315.19 28.4323 315.056 28.1001 314.848 27.8422C314.65 27.5745 314.392 27.401 314.074 27.3216C313.767 27.2423 313.331 27.2026 312.765 27.2026H307.083V33.4352Z" fill="white"/>
</g>
<defs>
<filter id="filter0_d_0_83" x="-21.25" y="-15.9375" width="382.5" height="236.938" filterUnits="userSpaceOnUse" color-interpolation-filters="sRGB">
<feFlood flood-opacity="0" result="BackgroundImageFix"/>
<feColorMatrix in="SourceAlpha" type="matrix" values="0 0 0 0 0 0 0 0 0 0 0 0 0 0 0 0 0 0 127 0" result="hardAlpha"/>
<feOffset dy="5.3125"/>
<feGaussianBlur stdDeviation="10.625"/>
<feComposite in2="hardAlpha" operator="out"/>
<feColorMatrix type="matrix" values="0 0 0 0 0 0 0 0 0 0 0 0 0 0 0 0 0 0 0.3 0"/>
<feBlend mode="normal" in2="BackgroundImageFix" result="effect1_dropShadow_0_83"/>
<feBlend mode="normal" in="SourceGraphic" in2="effect1_dropShadow_0_83" result="shape"/>
</filter>
<filter id="filter1_d_0_83" x="114.737" y="-116.888" width="346.258" height="346.258" filterUnits="userSpaceOnUse" color-interpolation-filters="sRGB">
<feFlood flood-opacity="0" result="BackgroundImageFix"/>
<feColorMatrix in="SourceAlpha" type="matrix" values="0 0 0 0 0 0 0 0 0 0 0 0 0 0 0 0 0 0 127 0" result="hardAlpha"/>
<feOffset/>
<feGaussianBlur stdDeviation="13.2812"/>
<feComposite in2="hardAlpha" operator="out"/>
<feColorMatrix type="matrix" values="0 0 0 0 0 0 0 0 0 0 0 0 0 0 0 0 0 0 0.3 0"/>
<feBlend mode="normal" in2="BackgroundImageFix" result="effect1_dropShadow_0_83"/>
<feBlend mode="normal" in="SourceGraphic" in2="effect1_dropShadow_0_83" result="shape"/>
</filter>
<linearGradient id="paint0_linear_0_83" x1="358.594" y1="-96.1563" x2="358.594" y2="126.969" gradientUnits="userSpaceOnUse">
<stop offset="0.519522" stop-color="#012174"/>
<stop offset="0.902572" stop-color="#011445"/>
</linearGradient>
</defs>
</svg>
